SplineFontDB: 3.2
FontName: RallyDisplay-Thin
FullName: Rally Display Thin
FamilyName: Rally Display
Weight: Thin
Copyright: Copyright (c) 2023-2024, Zamero Type Foundry
UComments: "2023-12-31: Created with FontForge (http://fontforge.org)+AAoACgAK-Magical cartoon rabbit. :)"
Version: 001.000
ItalicAngle: 0
UnderlinePosition: -100
UnderlineWidth: 50
Ascent: 800
Descent: 200
InvalidEm: 0
LayerCount: 2
Layer: 0 0 "Back" 1
Layer: 1 0 "Fore" 0
XUID: [1021 474 1118879153 10182]
StyleMap: 0x0040
FSType: 0
OS2Version: 0
OS2_WeightWidthSlopeOnly: 0
OS2_UseTypoMetrics: 1
CreationTime: 1704051534
ModificationTime: 1731766604
PfmFamily: 81
TTFWeight: 100
TTFWidth: 5
LineGap: 90
VLineGap: 90
OS2TypoAscent: 0
OS2TypoAOffset: 1
OS2TypoDescent: 0
OS2TypoDOffset: 1
OS2TypoLinegap: 90
OS2WinAscent: 0
OS2WinAOffset: 1
OS2WinDescent: 0
OS2WinDOffset: 1
HheadAscent: 0
HheadAOffset: 1
HheadDescent: 0
HheadDOffset: 1
OS2Vendor: 'ZAM '
Lookup: 1 0 0 "'subs' Subscript lookup 0" { "'subs' Subscript lookup 0 subtable" ("inferior") } ['subs' ('DFLT' <'dflt' > ) ]
Lookup: 1 0 0 "'onum' Oldstyle Figures lookup 27" { "'onum' Oldstyle Figures lookup 27-1" ("osf") } ['onum' ('DFLT' <'dflt' > 'grek' <'dflt' > 'latn' <'AZE ' 'CAT ' 'CRT ' 'KAZ ' 'MOL ' 'NLD ' 'ROM ' 'TAT ' 'TRK ' 'dflt' > ) ]
Lookup: 1 0 0 "'ss16' Style Set 16 lookup 26" { "'ss16' Style Set 16 lookup 26-1" ("ss16") } ['ss16' ('DFLT' <'dflt' > 'grek' <'dflt' > 'latn' <'AZE ' 'CAT ' 'CRT ' 'KAZ ' 'MOL ' 'NLD ' 'ROM ' 'TAT ' 'TRK ' 'dflt' > ) ]
Lookup: 1 0 0 "'init' Initial Forms lookup 24" { "'init' Initial Forms lookup 24-1" ("init") } ['init' ('DFLT' <'dflt' > 'grek' <'dflt' > 'latn' <'AZE ' 'CAT ' 'CRT ' 'KAZ ' 'MOL ' 'NLD ' 'ROM ' 'TAT ' 'TRK ' 'dflt' > ) ]
Lookup: 1 0 0 "'fina' Terminal Forms lookup 25" { "'fina' Terminal Forms lookup 25-1" ("fina") } ['fina' ('DFLT' <'dflt' > 'grek' <'dflt' > 'latn' <'AZE ' 'CAT ' 'CRT ' 'KAZ ' 'MOL ' 'NLD ' 'ROM ' 'TAT ' 'TRK ' 'dflt' > ) ]

StartChar: dotlessi
Encoding: 239 305 1
Width: 310
Flags: W
HStem: 0 21G<172.83 220.559> 458.024 38.9868<33.2201 174.211>
VStem: 172.83 47.7291<0 458.024>
LayerCount: 2
Back
SplineSet
274.729492188 496.93359375 m 5
 280.159179688 0 l 5
 83.830078125 0 l 5
 90 496.93359375 l 5
 274.729492188 496.93359375 l 5
EndSplineSet
Fore
SplineSet
215.129492188 497.010742188 m 1
 220.559179688 0 l 1
 172.830078125 0 l 1
 174.211367188 458.023984375 l 1
 29.6 456.020078125 l 1
 33.2201171875 497.010742188 l 1
 215.129492188 497.010742188 l 1
EndSplineSet
EndChar

StartChar: period
Encoding: 14 46 2
Width: 270
Flags: W
HStem: -10 76<105.009 174.991>
VStem: 102 76<-6.99071 62.9907>
LayerCount: 2
Fore
SplineSet
102 28 m 4
 102 51.2223721593 116.777627841 66 140 66 c 4
 163.222372159 66 178 51.2223721593 178 28 c 4
 178 4.77762784093 163.222372159 -10 140 -10 c 0
 116.777627841 -10 102 4.77762784093 102 28 c 4
EndSplineSet
EndChar

StartChar: o
Encoding: 79 111 3
Width: 565
Flags: W
HStem: -10.0664 43.9248<185.462 378.942> 463.009 43.9248<185.462 378.942>
VStem: 35 46.375<141.773 356.681> 482.625 48.375<141.773 356.681>
AnchorPoint: "Anchor-3" 315 0 basechar 0
AnchorPoint: "Anchor-2" 278 0 basechar 0
AnchorPoint: "Anchor-0" 277 496.019 basechar 0
LayerCount: 2
Fore
SplineSet
81.375 249.858398438 m 0
 81.375 117.858151726 159.40518062 33.8583984375 282.025390625 33.8583984375 c 0
 404.614561529 33.8583984375 482.625 117.858151726 482.625 249.858398438 c 0
 482.625 380.117723438 404.614561529 463.008789062 282.025390625 463.008789062 c 4
 159.40518062 463.008789062 81.375 380.117723438 81.375 249.858398438 c 0
35 249.93359375 m 0
 35 406.989257812 131.055451271 506.93359375 282 506.93359375 c 0
 434.166980833 506.93359375 531 406.989257812 531 249.93359375 c 0
 531 91.0439453125 434.166980833 -10.06640625 282 -10.06640625 c 0
 131.055451271 -10.06640625 35 91.0439453125 35 249.93359375 c 0
EndSplineSet
EndChar

StartChar: slash
Encoding: 15 47 4
Width: 497
Flags: W
LayerCount: 2
Back
SplineSet
1 -123.994140625 m 1
 198.637695312 379 l 1
 317 815.001953125 l 1
 506 763.001953125 l 1
 328.983398438 331 l 1
 190 -175.994140625 l 1
 1 -123.994140625 l 1
EndSplineSet
Fore
SplineSet
71 -153.994140625 m 5
 387 805.001953125 l 1
 426 793.001953125 l 1
 110 -165.994140625 l 1
 71 -153.994140625 l 5
EndSplineSet
Substitution2: "'frac' Diagonal Fractions in Latin lookup 25 subtable" fraction
EndChar

StartChar: d
Encoding: 68 100 5
Width: 672
Flags: W
HStem: -10.0664 44<179.164 370.913> 0 40.9268<536.849 658.38> 464.934 42<181.361 369.388> 735.002 20G<491.875 534.245>
VStem: 30 44<140.186 355.559> 478 58.8486<116.766 380.156> 487.271 49.5781<243.934 755.002> 487.271 29.7295<107.737 404.656>
AnchorPoint: "Anchor-2" 328 0 basechar 0
AnchorPoint: "Anchor-0" 483 755.01 basechar 0
LayerCount: 2
Back
SplineSet
387.270507812 755.001953125 m 5
 381.840820312 0 l 5
 578.169921875 0 l 5
 573.848632812 604.075195312 l 5
 672 602.071289062 l 5
 668.379882812 755.001953125 l 5
 387.270507812 755.001953125 l 5
EndSplineSet
Fore
SplineSet
478 246.93359375 m 0xbc
 478 380.156289063 398.667429958 464.93359375 274 464.93359375 c 0
 151.776544745 464.93359375 74 380.156289063 74 246.93359375 c 0
 74 116.765735745 151.776544745 33.93359375 274 33.93359375 c 4
 398.667429958 33.93359375 478 116.765735745 478 246.93359375 c 0xbc
517 243.93359375 m 0xb9
 517 107.737298044 430.673544191 -10.06640625 268 -10.06640625 c 0
 122.554875959 -10.06640625 30 89.8779296875 30 246.93359375 c 0
 30 405.823242188 122.554875959 506.93359375 268 506.93359375 c 0
 420.167142759 506.93359375 517 404.656455822 517 243.93359375 c 0xb9
487.270507812 0 m 1x79
 492 755.001953125 l 1
 534.169921875 755.001953125 l 1
 536.848632812 40.9267578125 l 1x7a
 662 42.9306640625 l 1
 658.379882812 0 l 1
 487.270507812 0 l 1x79
EndSplineSet
EndChar

StartChar: p
Encoding: 80 112 6
Width: 662
Flags: W
HStem: -10.0664 44<301.398 486.369> 459.084 37.9268<33.6201 155.151> 464.934 42<304.261 481.404>
VStem: 162 32.7295<62.341 459.084> 588 44<141.811 357.184>
AnchorPoint: "Anchor-2" 181 -173.994 basechar 0
AnchorPoint: "Anchor-0" 339 496.019 basechar 0
LayerCount: 2
Fore
SplineSet
201 249.93359375 m 0xb8
 201 117.932692307 275.276482476 33.93359375 392 33.93359375 c 0
 511.779391164 33.93359375 588 117.932692307 588 249.93359375 c 0
 588 381.323854933 511.779391164 464.93359375 392 464.93359375 c 0
 275.276482476 464.93359375 201 381.323854933 201 249.93359375 c 0xb8
162 242.93359375 m 0
 162 384.491675205 242.085863331 506.93359375 393 506.93359375 c 0
 539.056427258 506.93359375 632 406.989257812 632 249.93359375 c 0
 632 91.0439453125 539.056427258 -10.06640625 393 -10.06640625 c 0
 251.832698774 -10.06640625 162 88.3218792926 162 242.93359375 c 0
194.729492188 497.010742188 m 1xd8
 200.159179688 -174 l 1
 150.830078125 -174 l 1
 155.151367188 459.083984375 l 1
 30 457.080078125 l 1
 33.6201171875 497.010742188 l 1
 194.729492188 497.010742188 l 1xd8
EndSplineSet
EndChar

StartChar: t
Encoding: 84 116 7
Width: 426
Flags: W
HStem: -16 48.9307<262.039 319.201> 458 39<33 365>
VStem: 150.83 48.2988<98.0467 453.039>
AnchorPoint: "Anchor-2" 231 0 basechar 0
AnchorPoint: "Anchor-0" 186 648.019 basechar 0
LayerCount: 2
Fore
SplineSet
33 497 m 1
 173 496 l 1
 366 500 l 1
 365 455 l 1
 170 458 l 1
 30 458 l 1
 33 497 l 1
199.12890625 252 m 0
 199.12890625 110.12164754 218.218755459 46.9793666894 329.159179688 32.9306640625 c 1
 317.5390625 -16 l 1
 180.865173337 13.078125 150.830078125 72 150.830078125 262 c 0
 150.830078125 362.482421875 165.151367188 650.046875 165.151367188 650.046875 c 1
 210.729492188 649 l 1
 210.729492188 649 199.12890625 385.426669521 199.12890625 252 c 0
EndSplineSet
EndChar

StartChar: l
Encoding: 76 108 8
Width: 387
Flags: W
HStem: 0 42.3975<225.809 353.939> 713.075 41.9268<53.2201 181.471>
VStem: 177.15 48.6588<42.3975 713.075>
LayerCount: 2
Back
SplineSet
105.334960938 140.244140625 m 5
 109.862304688 751.69921875 l 5
 349.01953125 797.84375 l 5
 404.7265625 645.374023438 l 5
 295.80859375 623.6875 l 5
 300.63671875 14.7734375 l 5
 48.3994140625 -44.3125 l 5
 -7.3076171875 108.157226562 l 5
 105.334960938 140.244140625 l 5
EndSplineSet
Fore
SplineSet
225.80890625 42.3974609375 m 1
 357.559179688 43.9306640625 l 1
 353.9390625 0 l 1
 177.150078125 0 l 1
 181.471367188 713.075195312 l 1
 49.6 711.071289062 l 1
 53.2201171875 755.001953125 l 1
 221.409492188 755.001953125 l 1
 225.80890625 42.3974609375 l 1
EndSplineSet
EndChar

StartChar: e
Encoding: 69 101 9
Width: 541
Flags: W
HStem: -23.9004 44.8008<256.042 421.819> 218 40<64 466> 464.934 42<179.218 371.249>
VStem: 35 47<154.599 367.918> 467 43.6191<241.511 371.674>
AnchorPoint: "Anchor-3" 355 0 basechar 0
AnchorPoint: "Anchor-2" 288 0 basechar 0
AnchorPoint: "Anchor-0" 274 496.019 basechar 0
LayerCount: 2
Back
SplineSet
145 251.93359375 m 0
 145 118.399011671 234.924400059 91.0845098901 427.2890625 79.900390625 c 1
 411.819335938 -23.900390625 l 1
 195.319904327 -22.2919921875 30 49 30 259 c 0
 30 399.989257812 114.333684792 506.93359375 271 506.93359375 c 0
 466.952995619 506.93359375 517.619140625 377.117081999 517.619140625 261.659179688 c 0
 517.619140625 223.858398438 512 196 512 196 c 1
 130 193 l 1
 115 279 l 1
 404 283 l 1
 404 283 404.043226139 284.065301324 404.043226139 285.999999724 c 0
 404.043226139 306 397.916066056 408.93359375 277 408.93359375 c 0
 172.754005142 408.93359375 145 332.861387567 145 251.93359375 c 0
EndSplineSet
Fore
SplineSet
82 251.93359375 m 0
 82 77.651375209 233.143673523 24.0401416503 425.2890625 20.900390625 c 1
 421.819335938 -23.900390625 l 1
 192.858103387 -22.2919921875 35 49 35 259 c 0
 35 399.989257812 117.584023282 506.93359375 271 506.93359375 c 0
 461.391095736 506.93359375 510.619140625 383.468327997 510.619140625 273.659179688 c 0
 510.619140625 243.342655149 505 221 505 221 c 1
 64 218 l 1
 50 258 l 1
 466 262 l 1
 466 262 467 271.077667473 467 285 c 0
 467 361.514119142 419.622714012 464.93359375 279 464.93359375 c 4
 123.420750098 464.93359375 82 361.727352241 82 251.93359375 c 0
EndSplineSet
Substitution2: "'ss17' Style Set 17 lookup 29-1" e.ss17
Substitution2: "'ss15' Style Set 15 lookup 23-1" e.ss15
Substitution2: "'ss04' Style Set 4 lookup 12-1" e.ss04
EndChar

StartChar: s
Encoding: 83 115 10
Width: 388
Flags: W
HStem: 495.9 20G<280.303 282.884>
VStem: 50 43.4316<317.847 416.674> 293.438 44.8516<84.0992 186.597>
AnchorPoint: "Anchor-2" 186 0 basechar 0
AnchorPoint: "Anchor-0" 189 496.019 basechar 0
LayerCount: 2
Fore
SplineSet
280.302734375 515.900390625 m 1
 285.232421875 477.700195312 l 1
 285.232421875 477.700195312 93.431640625 463.898873205 93.431640625 367 c 0
 93.431640625 334.169647655 102.975264603 312.06285671 192.298828125 276.861328125 c 0
 293.784351728 236.866891952 338.2890625 202.510163554 338.2890625 137 c 0
 338.2890625 -20.6150395318 71.0390625 -23.900390625 71.0390625 -23.900390625 c 1
 65.5693359375 19.900390625 l 1
 65.5693359375 19.900390625 293.4375 21.6639836195 293.4375 137 c 0
 293.4375 173.953289048 273.382751759 199.379291802 190.036132812 231.700195312 c 0
 86.2278361966 271.955912712 50 303.297535627 50 362 c 0
 50 511.986457823 280.302734375 515.900390625 280.302734375 515.900390625 c 1
EndSplineSet
EndChar

StartChar: b
Encoding: 66 98 11
Width: 662
Flags: W
HStem: -10.0664 45<299.685 486.673> 0 21G<147.83 196.159> 464.934 42<303.801 481.721> 714.075 40.9268<33.6201 152.151>
VStem: 152.151 38.5781<253.934 714.075> 162 34.1592<112.375 408.546> 588 44<140.437 355.559>
AnchorPoint: "Anchor-2" 338 0 basechar 0
AnchorPoint: "Anchor-0" 154 755.01 basechar 0
LayerCount: 2
Fore
SplineSet
201 246.93359375 m 0xb2
 201 117.376685049 275.276482476 34.93359375 392 34.93359375 c 0
 511.779391164 34.93359375 588 117.376685049 588 246.93359375 c 0
 588 380.156725761 511.779391164 464.93359375 392 464.93359375 c 0
 275.276482476 464.93359375 201 380.156725761 201 246.93359375 c 0xb2
162 253.93359375 m 0xb6
 162 408.545721611 252.221584916 506.93359375 394 506.93359375 c 0
 539.4453125 506.93359375 632 405.823242188 632 246.93359375 c 0
 632 89.8779296875 539.4453125 -10.06640625 394 -10.06640625 c 0
 242.43255538 -10.06640625 162 112.374771897 162 253.93359375 c 0xb6
190.729492188 755.001953125 m 5x7a
 196.159179688 0 l 5x76
 147.830078125 0 l 5
 152.151367188 714.075195312 l 5
 30 712.071289062 l 1
 33.6201171875 755.001953125 l 1
 190.729492188 755.001953125 l 5x7a
EndSplineSet
EndChar

StartChar: grave
Encoding: 64 96 12
Width: 230
Flags: W
HStem: 526.72 213.784
VStem: 11 208.518
LayerCount: 2
Fore
SplineSet
46.6767578125 740.50390625 m 1
 219.517578125 552.465820312 l 5
 196.080078125 526.719726562 l 1
 11 704.18359375 l 1
 46.6767578125 740.50390625 l 1
EndSplineSet
EndChar

StartChar: q
Encoding: 81 113 13
Width: 682
Flags: W
HStem: -173.994 40.9268<536.849 658.38> -10.0664 44<179.164 370.913> 464.934 42<181.361 369.388> 476.934 20G<491.859 534.255>
VStem: 30 44<140.186 355.559> 478 56.1699<116.766 380.156> 487.271 49.5781<-133.067 496.934> 492 25<98.7373 404.656>
AnchorPoint: "Anchor-2" 506 -173.994 basechar 0
AnchorPoint: "Anchor-0" 323 496.019 basechar 0
LayerCount: 2
Fore
SplineSet
478 246.93359375 m 4xec
 478 380.156289062 398.667429958 464.93359375 274 464.93359375 c 4
 151.776544745 464.93359375 74 380.156289062 74 246.93359375 c 4
 74 116.765735745 151.776544745 33.93359375 274 33.93359375 c 4
 398.667429958 33.93359375 478 116.765735745 478 246.93359375 c 4xec
517 243.93359375 m 4xe9
 517 98.7372980441 430.673544191 -10.06640625 268 -10.06640625 c 4
 122.554875959 -10.06640625 30 89.8779296875 30 246.93359375 c 4
 30 405.823242188 122.554875959 506.93359375 268 506.93359375 c 4
 420.167142759 506.93359375 517 404.656455822 517 243.93359375 c 4xe9
487.270507812 -173.994140625 m 1xda
 492 496.93359375 l 1xd9
 534.169921875 496.93359375 l 1xdc
 536.848632812 -133.067382812 l 1
 662 -131.063476562 l 1
 658.379882812 -173.994140625 l 1
 487.270507812 -173.994140625 l 1xda
EndSplineSet
EndChar

StartChar: a
Encoding: 65 97 14
Width: 672
Flags: W
HStem: -10.0664 44<179.164 370.913> 0 40.9268<536.849 658.38> 464.934 42<181.361 369.388> 477.002 20G<491.81 534.287>
VStem: 30 44<140.186 355.559> 478 58.8486<116.766 380.156> 487.271 49.5781<243.934 497.002> 492 25<107.737 404.656>
AnchorPoint: "Anchor-3" 475 0 basechar 0
AnchorPoint: "Anchor-2" 328 0 basechar 0
AnchorPoint: "Anchor-0" 323 496.019 basechar 0
LayerCount: 2
Back
SplineSet
434 246.93359375 m 0xac
 434 342.267265625 377.222768499 402.93359375 288 402.93359375 c 0
 200.610229493 402.93359375 145 342.267265625 145 246.93359375 c 0
 145 153.432738 200.610229493 93.93359375 288 93.93359375 c 0
 377.222768499 93.93359375 434 153.432738 434 246.93359375 c 0xac
505 263.93359375 m 0xa9
 505 117.013180272 422.833855314 -10.06640625 268 -10.06640625 c 0
 122.554875959 -10.06640625 30 89.8779296875 30 246.93359375 c 0
 30 405.823242188 122.554875959 506.93359375 268 506.93359375 c 0
 412.833786481 506.93359375 505 412.434184942 505 263.93359375 c 0xa9
442.270507812 0 m 1x5c
 447 497.001953125 l 1
 554.169921875 497.001953125 l 1x5a
 556.848632812 90.9267578125 l 1
 662 92.9306640625 l 1
 658.379882812 0 l 1
 442.270507812 0 l 1x5c
EndSplineSet
Fore
SplineSet
478 246.93359375 m 0xac
 478 380.156289062 398.667429958 464.93359375 274 464.93359375 c 4
 151.776544745 464.93359375 74 380.156289062 74 246.93359375 c 0
 74 116.765735745 151.776544745 33.93359375 274 33.93359375 c 4
 398.667429958 33.93359375 478 116.765735745 478 246.93359375 c 0xac
517 243.93359375 m 0xa9
 517 107.737298044 430.673544191 -10.06640625 268 -10.06640625 c 0
 122.554875959 -10.06640625 30 89.8779296875 30 246.93359375 c 0
 30 405.823242188 122.554875959 506.93359375 268 506.93359375 c 0
 420.167142759 506.93359375 517 404.656455822 517 243.93359375 c 0xa9
487.270507812 0 m 1x5a
 492 497.001953125 l 1x59
 534.169921875 497.001953125 l 1
 536.848632812 40.9267578125 l 1
 662 42.9306640625 l 1
 658.379882812 0 l 1
 487.270507812 0 l 1x5a
EndSplineSet
Substitution2: "'ss03' Style Set 3 lookup 11-1" a.ss03
EndChar

StartChar: h
Encoding: 72 104 15
Width: 633
Flags: W
HStem: 0 21G<157.83 206.159> 463.934 43<296.326 459.548> 714.075 40.9268<33.6201 162.151>
VStem: 157.83 48.3291<0 714.075> 524 44<68.1039 393.522>
AnchorPoint: "Anchor-2" 340 0 basechar 0
AnchorPoint: "Anchor-0" 164 755.01 basechar 0
LayerCount: 2
Fore
SplineSet
168 303.93359375 m 1
 188.128255208 406.752960567 251.611111111 506.93359375 383 506.93359375 c 0
 504.892653245 506.93359375 568 429.158203125 568 278.93359375 c 0
 568 134.376953125 550.159179688 -15 550.159179688 -15 c 1
 503.830078125 -10 l 1
 503.830078125 -10 524 144.744364191 524 271.93359375 c 0
 524 393.803786058 486.200177395 463.93359375 379 463.93359375 c 0
 270.993953623 463.93359375 213.269053357 384.53439443 196 266.93359375 c 1
 168 303.93359375 l 1
200.729492188 755.001953125 m 1
 206.159179688 0 l 1
 157.830078125 0 l 5
 162.151367188 714.075195312 l 5
 30 712.071289062 l 1
 33.6201171875 755.001953125 l 1
 200.729492188 755.001953125 l 1
EndSplineSet
EndChar

StartChar: n
Encoding: 78 110 16
Width: 633
Flags: W
HStem: 0 21G<170.83 220.159> 457.071 39.9307<33.6201 175.151> 463.934 43<306.326 469.548>
VStem: 170.83 49.3291<0 459.075> 534 44<68.1039 393.522>
AnchorPoint: "Anchor-2" 340 0 basechar 0
AnchorPoint: "Anchor-0" 323 496.019 basechar 0
AnchorPoint: "Anchor-0" 323 496.019 basechar 0
LayerCount: 2
Fore
SplineSet
178 303.93359375 m 5xb8
 198.128255208 406.681814321 261.611111111 506.93359375 393 506.93359375 c 0
 514.892653245 506.93359375 578 429.158203125 578 278.93359375 c 0
 578 134.376953125 560.159179688 -15 560.159179688 -15 c 1
 513.830078125 -10 l 1
 513.830078125 -10 534 144.744364191 534 271.93359375 c 0
 534 393.803786058 496.200177395 463.93359375 389 463.93359375 c 0
 280.993953623 463.93359375 223.269053357 384.607268923 206 266.93359375 c 5
 178 303.93359375 l 5xb8
214.729492188 497.001953125 m 1xd8
 220.159179688 0 l 1
 170.830078125 0 l 1
 175.151367188 459.075195312 l 1
 30 457.071289062 l 1
 33.6201171875 497.001953125 l 1
 214.729492188 497.001953125 l 1xd8
EndSplineSet
EndChar

StartChar: I
Encoding: 41 73 17
Width: 468
Flags: W
HStem: 0 44<53.958 203.084 257.21 415.287> 678.08 52.9307<58.748 206.279 254.135 405.857>
VStem: 203.084 54.126<44 679>
AnchorPoint: "Anchor-3" 305 0 basechar 0
AnchorPoint: "Anchor-2" 228 0 basechar 0
AnchorPoint: "Anchor-2" 228 0 basechar 0
AnchorPoint: "Anchor-0" 233 731.008 basechar 0
LayerCount: 2
Back
SplineSet
339.857421875 731.010742188 m 5
 345.287109375 0 l 5
 128.958007812 0 l 5
 133.279296875 560.083984375 l 5
 15.1279296875 558.080078125 l 5
 18.748046875 731.010742188 l 5
 339.857421875 731.010742188 l 5
EndSplineSet
Fore
SplineSet
405.857421875 731.010742188 m 5
 412.127929688 676 l 5
 254.134765625 679 l 1
 257.209960938 44 l 1
 418.26953125 48 l 5
 415.287109375 0 l 5
 53.9580078125 0 l 1
 50 46 l 1
 203.083984375 44 l 1
 206.279296875 680.083984375 l 1
 55.1279296875 678.080078125 l 1
 58.748046875 731.010742188 l 1
 405.857421875 731.010742188 l 5
EndSplineSet
EndChar

StartChar: c
Encoding: 67 99 18
Width: 471
Flags: W
HStem: -10.0664 45<188.882 414.428> 463.934 43<190.429 388.809>
VStem: 35 49<141.565 351.132>
AnchorPoint: "Anchor-0" 297 496.019 basechar 0
AnchorPoint: "Anchor-2" 288 0 basechar 0
LayerCount: 2
Back
SplineSet
20 249.93359375 m 0
 20 406.989257812 127.722105271 506.93359375 297 506.93359375 c 0
 415.535915516 506.93359375 465.916992188 450.782226562 465.916992188 450.782226562 c 1
 409.647460938 308.369140625 l 1
 409.647460938 308.369140625 373.776884975 346.93359375 318 346.93359375 c 4
 252.610710758 346.93359375 211 309.211914062 211 249.93359375 c 0
 211 180.822265625 247.426625003 154.52486356 323.040039062 139.244140625 c 0
 407.435563152 122.917258333 455.553710938 87 455.553710938 1.279296875 c 0
 455.553710938 -81.1748046875 404 -147 404 -147 c 1
 280 -97 l 1
 280 -97 295.76171875 -74 295.76171875 -54 c 0
 295.76171875 -29.5654296875 282.579369985 -17.3599949932 223.834960938 -5.6943359375 c 0
 112.853515625 16.3447265625 20 91.0439453125 20 249.93359375 c 0
EndSplineSet
Fore
SplineSet
35 249.93359375 m 0
 35 406.989257812 134.944335938 506.93359375 292 506.93359375 c 0
 400.009806154 506.93359375 445.916992188 460.782226562 445.916992188 460.782226562 c 1
 424.647460938 423.369140625 l 5
 424.647460938 423.369140625 370.772605561 463.93359375 287 463.93359375 c 4
 162.943684896 463.93359375 84 379.934801868 84 247.93359375 c 0
 84 117.766464844 155.725976561 34.93359375 296 34.93359375 c 0
 392.347693724 34.93359375 441.1484375 70.3642578125 441.1484375 70.3642578125 c 1
 455.146484375 29.31640625 l 1
 455.146484375 29.31640625 414.159810979 -10.06640625 287 -10.06640625 c 0
 132.999893605 -10.06640625 35 91.0439453125 35 249.93359375 c 0
EndSplineSet
EndChar

StartChar: equal
Encoding: 29 61 19
Width: 450
Flags: W
HStem: 222 47<151.2 399> 232 40<46 292.8> 398 40<48 403>
LayerCount: 2
Fore
SplineSet
46 272 m 5x60
 400 269 l 5
 399 222 l 5xa0
 45 232 l 5
 46 272 l 5x60
48 438 m 5
 404 443 l 5
 403 392 l 5
 47 398 l 5
 48 438 l 5
EndSplineSet
EndChar

StartChar: k
Encoding: 75 107 20
Width: 568
Flags: W
HStem: 0 21G<157.83 206.159> 494 20G<470.496 511.135> 714.075 40.9268<33.6201 162.151>
VStem: 157.83 48.3291<0 714.075>
AnchorPoint: "Anchor-2" 358 0 basechar 0
AnchorPoint: "Anchor-0" 164 755.01 basechar 0
LayerCount: 2
Fore
SplineSet
496 514 m 5
 524 477 l 5
 237 254 l 1
 538 24 l 1
 511 -17 l 1
 167 256 l 1
 496 514 l 5
200.729492188 755.001953125 m 1
 206.159179688 0 l 1
 157.830078125 0 l 1
 162.151367188 714.075195312 l 1
 30 712.071289062 l 1
 33.6201171875 755.001953125 l 1
 200.729492188 755.001953125 l 1
EndSplineSet
Substitution2: "'ss06' Style Set 6 lookup 14-1" k.ss06
EndChar

StartChar: m
Encoding: 77 109 21
Width: 938
Flags: W
HStem: 0 21G<170.83 220.159> 457.071 39.9307<33.6201 175.151> 463.934 43<308.592 459.173 637.901 786.475>
VStem: 170.83 49.3291<0 459.075> 512 46<86.6326 403.954> 837 46<96.719 409.447>
AnchorPoint: "Anchor-2" 520 0 basechar 0
AnchorPoint: "Anchor-0" 529 496.019 basechar 0
LayerCount: 2
Fore
SplineSet
519 273.93359375 m 5xbc
 536.109335937 419.494738914 606.316432292 506.93359375 718 506.93359375 c 0
 826.714927456 506.93359375 883 439.391601562 883 308.93359375 c 0
 883 149.623046875 865.159179688 -15 865.159179688 -15 c 1
 815.830078125 -8 l 1
 815.830078125 -8 837 162.112426042 837 301.93359375 c 0
 837 404.760602679 804.41339173 463.93359375 712 463.93359375 c 0
 631.062328543 463.93359375 563.666321266 402.910110235 541 246.93359375 c 5
 519 273.93359375 l 5xbc
188 293.93359375 m 1
 204.765783975 427.000220016 273.561387173 506.93359375 383 506.93359375 c 0
 488.303790118 506.93359375 558 439.391601562 558 308.93359375 c 4
 558 154.541015625 545.159179688 -5 545.159179688 -5 c 5
 495.830078125 0 l 5
 495.830078125 0 512 154.743761943 512 281.93359375 c 4
 512 397.454808728 479.41339173 463.93359375 387 463.93359375 c 0
 301.329131382 463.93359375 229.99183713 405.722252332 206 256.93359375 c 1
 188 293.93359375 l 1
214.729492188 497.001953125 m 1xdc
 220.159179688 0 l 1
 170.830078125 0 l 1
 175.151367188 459.075195312 l 1
 30 457.071289062 l 1
 33.6201171875 497.001953125 l 1
 214.729492188 497.001953125 l 1xdc
EndSplineSet
EndChar

StartChar: hyphen
Encoding: 13 45 23
Width: 380
Flags: W
HStem: 235 52<70.5 347> 243 43<33 307.5>
VStem: 33 316
LayerCount: 2
Fore
SplineSet
33 286 m 1x60
 349 287 l 1
 347 235 l 1xa0
 31 243 l 1
 33 286 l 1x60
EndSplineSet
EndChar

StartChar: three
Encoding: 19 51 24
Width: 581
Flags: W
HStem: -10.0664 48<106.435 372.693> 372.992 44.0078<231.463 395.091> 680.008 51<70 420.848>
VStem: 471.917 48<126.646 299.644>
LayerCount: 2
Fore
SplineSet
231 405 m 1
 231 405 253.965517241 417 305 417 c 0
 438.141494172 417 519.916992188 339.428051035 519.916992188 213.9921875 c 0
 519.916992188 67.1992635586 421.528196992 -10.06640625 266.916992188 -10.06640625 c 0
 113.294262326 -10.06640625 48 34.0849609375 48 34.0849609375 c 1
 67 74 l 1
 67 74 141.769862386 37.93359375 245.916992188 37.93359375 c 0
 405.16727941 37.93359375 471.916992188 104.398170752 471.916992188 216.9921875 c 4
 471.916992188 309.3921875 407.883769937 372.9921875 301.916992188 372.9921875 c 0
 206.180140226 372.9921875 155.2578125 328.43359375 155.2578125 328.43359375 c 1
 129 362 l 1
 420.84765625 680.0078125 l 1
 63 678.0078125 l 1
 70 731.0078125 l 1
 489.016601562 731.0078125 l 1
 499.016601562 695.0078125 l 1
 231 405 l 1
EndSplineSet
Substitution2: "'onum' Oldstyle Figures lookup 27-1" three.osf
Substitution2: "'ss01' Style Set 1 lookup 9-1" three.ss01
Substitution2: "'frac' Diagonal Fractions in Latin lookup 26 subtable" three.numr
Substitution2: "'dnom' Denominators lookup 0 subtable" three.dnom
Substitution2: "'numr' Numerators lookup 0 subtable" three.numr
Substitution2: "'sinf' Scientific Inferiors lookup 0 subtable" three.inferior
Substitution2: "'sups' Superscript lookup 0 subtable" three.superior
EndChar

StartChar: eight
Encoding: 24 56 25
Width: 608
Flags: W
HStem: -10.0078 49.7393<197.825 415.7> 693.656 45.3359<211.695 401.93>
VStem: 60 47.3105<121.369 275.58> 96.6787 48.1211<488.499 632.119> 474.223 45.9346<475.608 627.322> 499.693 49.2354<111.856 263.016>
LayerCount: 2
Fore
SplineSet
301.500976562 39.7314453125 m 0xe4
 424.4031876 39.7314453125 499.693359375 94.189935162 499.693359375 183.086914062 c 0xe4
 499.693359375 261.725286579 455.875594269 322.090988533 303.751953125 365.103515625 c 0
 165.011929795 404.331862826 96.6787109375 464.194983719 96.6787109375 556 c 0
 96.6787109375 667.860058235 179.036934526 738.9921875 308.55078125 738.9921875 c 0
 438.225869271 738.9921875 520.157226562 671.809062301 520.157226562 550.611328125 c 0
 520.157226562 399.201270665 353.474609375 357.615234375 353.474609375 357.615234375 c 1
 320 383 l 1
 320 383 474.22265625 426.020582347 474.22265625 547.682617188 c 0
 474.22265625 638.457610239 411.378209264 693.65625 308.02734375 693.65625 c 0
 207.36062693 693.65625 144.799804688 641.856065932 144.799804688 558.504882812 c 0xd8
 144.799804688 496.776958306 172.556245459 450.028264542 313.245117188 407.96484375 c 0
 485.629365474 356.425080267 548.928710938 301.064525612 548.928710938 186.379882812 c 0
 548.928710938 63.9610813383 457.285716435 -10.0078125 305.616210938 -10.0078125 c 0
 158.105827561 -10.0078125 60 72.9892081911 60 197.782226562 c 0
 60 364.203346799 252.83984375 418.700195312 252.83984375 418.700195312 c 1
 285 393 l 1
 285 393 107.310546875 332.221092668 107.310546875 201.194335938 c 0
 107.310546875 103.419679031 183.907995513 39.7314453125 301.500976562 39.7314453125 c 0xe4
EndSplineSet
Substitution2: "'onum' Oldstyle Figures lookup 27-1" eight.osf
Substitution2: "'frac' Diagonal Fractions in Latin lookup 26 subtable" eight.numr
Substitution2: "'dnom' Denominators lookup 0 subtable" eight.dnom
Substitution2: "'numr' Numerators lookup 0 subtable" eight.numr
Substitution2: "'sinf' Scientific Inferiors lookup 0 subtable" eight.inferior
Substitution2: "'sups' Superscript lookup 0 subtable" eight.superior
EndChar

StartChar: g
Encoding: 71 103 26
Width: 603
Flags: W
HStem: -196.994 47.9307<173.362 308.472> 19.9336 44<169.782 358.346> 464.934 42<169.259 350.305>
VStem: 30 44<162.808 369.334> 468.422 47.5781<-27.545 498.264>
AnchorPoint: "Anchor-2" 310 -190 basechar 0
AnchorPoint: "Anchor-0" 307 496.019 basechar 0
LayerCount: 2
Back
SplineSet
382.270507812 -173.994140625 m 5
 387 496.93359375 l 5
 574.169921875 496.93359375 l 5xf8
 576.848632812 -23.0673828125 l 5
 672 -21.0634765625 l 5
 668.379882812 -173.994140625 l 5
 382.270507812 -173.994140625 l 5
EndSplineSet
Fore
SplineSet
452 262.93359375 m 0
 452 386.378476564 375.778511135 464.93359375 256 464.93359375 c 0
 144.776655718 464.93359375 74 387.156250001 74 264.93359375 c 0
 74 142.099136196 148.665482955 63.93359375 266 63.93359375 c 0
 379.667362608 63.93359375 452 141.321369604 452 262.93359375 c 0
491 272.93359375 m 0
 491 137.273503932 431.914010875 19.93359375 260 19.93359375 c 0
 119.443787692 19.93359375 30 114.044602687 30 261.93359375 c 0
 30 411.6565317 119.443787692 506.93359375 260 506.93359375 c 0
 401.167108342 506.93359375 491 415.934163046 491 272.93359375 c 0
516 83 m 4
 516 -28 478.56537789 -180.994140625 173.890625 -196.994140625 c 5
 170.270507812 -149.063476562 l 1
 446.189867758 -132.951078856 468.421875 -18.0585100809 468.421875 96.9326171875 c 4
 468.421875 282.849918906 463.100585938 498.93359375 463.100585938 498.93359375 c 1
 463.100585938 498.93359375 509.270507812 498.93359375 509.270507812 497.93359375 c 1
 509.270507812 497.93359375 516 247 516 83 c 4
EndSplineSet
Substitution2: "'ss05' Style Set 5 lookup 13-1" g.ss05
EndChar

StartChar: u
Encoding: 85 117 27
Width: 633
Flags: W
HStem: -9.93164 43<172.17 347.514> 0 37.9268<487.849 599.38> 477.002 20G<85.8408 129.17 447.81 485.287>
VStem: 65 44<104.246 427.594> 443.271 44.5781<173.068 497.002>
AnchorPoint: "Anchor-3" 465 0 basechar 0
AnchorPoint: "Anchor-2" 325 0 basechar 0
AnchorPoint: "Anchor-0" 298 496.019 basechar 0
LayerCount: 2
Fore
SplineSet
443.270507812 0 m 5x78
 448 497.001953125 l 5
 485.169921875 497.001953125 l 5
 487.848632812 37.9267578125 l 5
 603 39.9306640625 l 5
 599.379882812 0 l 5
 443.270507812 0 l 5x78
475 173.068359375 m 5
 447.037815126 67.9719030269 383.834443934 -9.931640625 250 -9.931640625 c 4
 132.380167643 -9.931640625 65 61.5188557527 65 216 c 4
 65 350.317966612 85.8408203125 509.001953125 85.8408203125 509.001953125 c 5
 129.169921875 505.001953125 l 5
 129.169921875 505.001953125 109 351.355752725 109 225.068359375 c 4
 109 103.197719841 146.799408403 33.068359375 254 33.068359375 c 4xb8
 367.833834133 33.068359375 421.384615383 99.7650160039 457 210.068359375 c 5
 475 173.068359375 l 5
EndSplineSet
EndChar

StartChar: exclam
Encoding: 1 33 28
Width: 256
Flags: W
HStem: -10 76<93.0093 162.991> 711 20G<101 155>
VStem: 90 76<-6.99071 62.9907> 101 54<284.556 731>
LayerCount: 2
Fore
SplineSet
101 731 m 1xd0
 155 731 l 1
 146 157 l 5
 146 157 141.178082192 159.634765625 130 159.634765625 c 4
 116.269230769 159.634765625 109 157 109 157 c 5
 101 731 l 1xd0
90 28 m 0xe0
 90 51.2223721593 104.777627841 66 128 66 c 0
 151.222372159 66 166 51.2223721593 166 28 c 0
 166 4.77762784093 151.222372159 -10 128 -10 c 0
 104.777627841 -10 90 4.77762784093 90 28 c 0xe0
EndSplineSet
Substitution2: "'ss16' Style Set 16 lookup 26-1" exclam.ss16
EndChar

StartChar: r
Encoding: 82 114 29
Width: 478
Flags: W
HStem: 0 21G<170.83 220.159> 459.075 37.9268<33.6201 175.151> 496.934 20G<403.355 448.532>
VStem: 170.83 49.3291<0 334.607 376.447 459.075>
AnchorPoint: "Anchor-2" 288 0 basechar 0
AnchorPoint: "Anchor-0" 249 496.019 basechar 0
LayerCount: 2
Fore
SplineSet
437 516.93359375 m 1xb0
 460.068359375 476.926757812 l 5
 203.962890625 334.607421875 l 1
 200.669921875 376.447265625 l 1
 437 516.93359375 l 1xb0
214.729492188 497.001953125 m 1xd0
 220.159179688 0 l 1
 170.830078125 0 l 1
 175.151367188 459.075195312 l 1
 30 457.071289062 l 1
 33.6201171875 497.001953125 l 1
 214.729492188 497.001953125 l 1xd0
EndSplineSet
Substitution2: "'ss07' Style Set 7 lookup 15-1" r.ss07
EndChar

StartChar: f
Encoding: 70 102 30
Width: 433
Flags: W
HStem: 0 21G<169.335 218.637> 458 39<50 373> 755.374 42.4697<265.139 323.455>
VStem: 134.869 46.5332<516.987 690.983> 171.994 42.6436<0 532.773>
AnchorPoint: "Anchor-2" 194 0 basechar 0
AnchorPoint: "Anchor-0" 254 765.01 basechar 0
LayerCount: 2
Fore
SplineSet
50 497 m 1xe0
 190 496 l 1
 375 500 l 1
 373 454 l 1
 187 458 l 1
 47 458 l 1
 50 497 l 1xe0
171.984375 412.096679688 m 2
 171.990869549 413.10685859 171.994140625 414.107770821 171.994140625 415.099609375 c 0xe8
 171.994140625 515.113036994 134.869140625 540.873657754 134.869140625 620 c 4
 134.869140625 727.283209119 202.693146661 773.36684414 322.01953125 797.84375 c 1
 330.7265625 755.374023438 l 1
 222.078977569 732.038197908 181.40234375 692.094174562 181.40234375 617 c 4xf0
 181.40234375 559.603718916 213.680976864 505.364303327 214.637695312 399.96484375 c 2xe8
 218.63671875 0 l 1
 169.334960938 0 l 1
 171.984375 412.096679688 l 2
EndSplineSet
EndChar

StartChar: one
Encoding: 17 49 32
Width: 359
Flags: W
HStem: 0 21G<217.83 269.159> 686.084 44.9268<62.6201 222.151>
VStem: 217.83 51.3291<0 686.084>
LayerCount: 2
Fore
SplineSet
263.729492188 731.010742188 m 1
 269.159179688 0 l 1
 217.830078125 0 l 1
 222.151367188 686.083984375 l 1
 59 684.080078125 l 5
 62.6201171875 731.010742188 l 5
 263.729492188 731.010742188 l 1
EndSplineSet
Substitution2: "'onum' Oldstyle Figures lookup 27-1" one.osf
Substitution2: "'frac' Diagonal Fractions in Latin lookup 26 subtable" one.numr
Substitution2: "'dnom' Denominators lookup 0 subtable" one.dnom
Substitution2: "'numr' Numerators lookup 0 subtable" one.numr
Substitution2: "'sinf' Scientific Inferiors lookup 0 subtable" one.inferior
Substitution2: "'sups' Superscript lookup 0 subtable" one.superior
EndChar

StartChar: zero
Encoding: 16 48 33
Width: 675
Flags: W
HStem: -10.0664 46.3506<234.73 439.452> 692.583 46.3506<238.409 435.762>
VStem: 34 46.4873<218.033 507.775> 594.513 46.4873<218.033 507.775>
LayerCount: 2
Fore
SplineSet
80.4873046875 361.704101562 m 0
 80.4873046875 162.835999839 180.123838992 36.2841796875 336.697265625 36.2841796875 c 0
 494.251808579 36.2841796875 594.512695312 162.835999839 594.512695312 361.704101562 c 0
 594.512695312 563.909046434 494.251808579 692.583007812 336.697265625 692.583007812 c 0
 180.123838992 692.583007812 80.4873046875 563.909046434 80.4873046875 361.704101562 c 0
34 361.93359375 m 0
 34 592.322641811 151.833205404 738.93359375 337 738.93359375 c 0
 522.778161338 738.93359375 641 592.322641811 641 361.93359375 c 0
 641 134.599173678 522.778161338 -10.06640625 337 -10.06640625 c 0
 151.833205404 -10.06640625 34 134.599173678 34 361.93359375 c 0
EndSplineSet
Substitution2: "'onum' Oldstyle Figures lookup 27-1" zero.osf
Substitution2: "'frac' Diagonal Fractions in Latin lookup 26 subtable" zero.numr
Substitution2: "'dnom' Denominators lookup 0 subtable" zero.dnom
Substitution2: "'numr' Numerators lookup 0 subtable" zero.numr
Substitution2: "'sinf' Scientific Inferiors lookup 0 subtable" zero.inferior
Substitution2: "'sups' Superscript lookup 0 subtable" zero.superior
EndChar

StartChar: uni0237
Encoding: 424 567 35
Width: 310
Flags: W
HStem: 458.024 38.9868<33.2201 174.211>
VStem: 172.83 47.7291<10.2 458.024>
LayerCount: 2
Fore
SplineSet
215.129492188 497.010742188 m 1
 220.559179688 0 l 1
 89.4 -184 l 1
 50.2 -157.2 l 1
 172.830078125 10.2 l 1
 174.211367188 458.023984375 l 1
 29.6 456.020078125 l 1
 33.2201171875 497.010742188 l 1
 215.129492188 497.010742188 l 1
EndSplineSet
EndChar

StartChar: y
Encoding: 89 121 36
Width: 593
Flags: W
HStem: 491 20G<28.4397 174.88 498.916 554.011>
AnchorPoint: "Anchor-2" 223 -186.994 basechar 0
AnchorPoint: "Anchor-0" 333 496.019 basechar 0
AnchorPoint: "Anchor-0" 333 496.019 basechar 0
LayerCount: 2
Fore
SplineSet
330.529401438 30.3740925 m 1
 330.529401438 30.3740925 321.60992 1.56032 321.60992 1.56032 c 1
 321.60992 1.56032 294.054164688 1.56032 294.054164688 1.56032 c 1
 294.054164688 1.56032 133.059143188 465.241024 133.059143188 465.241024 c 1
 31.7976424375 454.397056 l 1
 28.43968 497 l 1
 168.121403 511 l 1
 330.529401438 30.3740925 l 1
328.620570938 40.19976375 m 2
 506.471592875 511 l 1
 554.010515312 495.43968 l 1
 365.009997875 18.431952125 l 2
 314.52420978 -109.253743042 231.34048 -206.56032 231.34048 -206.56032 c 1
 196.65952 -180.589852625 l 1
 196.65952 -180.589852625 277.620772825 -94.7295536096 328.620570938 40.19976375 c 2
EndSplineSet
Substitution2: "'ss08' Style Set 8 lookup 16-1" y.ss08
EndChar

StartChar: x
Encoding: 88 120 37
Width: 562
Flags: W
HStem: 494 20G<91.2936 170.763 469.382 512.759>
AnchorPoint: "Anchor-2" 327.769 0 basechar 0
AnchorPoint: "Anchor-0" 319.769 496.019 basechar 0
LayerCount: 2
Fore
SplineSet
483.945770688 514 m 1
 523.016810688 486.87936 l 1
 345.811178688 251 l 1
 538.016810688 14.808576 l 1
 501.179818688 -17 l 1
 292.428074688 251 l 1
 483.945770688 514 l 1
133.457244812 462.035727875 m 1
 41.85699475 432.33780825 l 1
 28.43968 474.8359375 l 1
 156.889194688 514 l 1
 339.328874688 251 l 1
 124.123242688 -17 l 1
 84.5202986875 13.886592 l 1
 285.945770688 251 l 1
 133.457244812 462.035727875 l 1
EndSplineSet
EndChar

StartChar: S
Encoding: 51 83 38
Width: 487
Flags: W
HStem: 718.393 20G<364.69 366.809>
VStem: 50 49.2686<474.612 597.217> 387.121 50.2148<135.742 264.041>
AnchorPoint: "Anchor-2" 207 0 basechar 0
AnchorPoint: "Anchor-2" 207 0 basechar 0
AnchorPoint: "Anchor-0" 227 731.008 basechar 0
LayerCount: 2
Fore
SplineSet
364.690429688 738.392578125 m 1
 369.541015625 692.592773438 l 1
 369.541015625 692.592773438 99.2685546875 681.492526408 99.2685546875 533.93359375 c 0
 99.2685546875 479.599920556 131.389759205 444.938921249 276.284179688 379.650390625 c 4
 393.037885121 327.041892331 437.3359375 284.58612856 437.3359375 201.044921875 c 0
 437.3359375 -15.0925405022 86.4423828125 -19.8779296875 86.4423828125 -19.8779296875 c 1
 81.220703125 26.6826171875 l 1
 81.220703125 26.6826171875 387.12109375 43.6329088557 387.12109375 196 c 0
 387.12109375 252.014292842 365.405984812 291.819230099 231.401367188 347.655273438 c 0
 92.4356787061 405.558458732 50 457.218672569 50 527.93359375 c 0
 50 733.066558856 364.690429688 738.392578125 364.690429688 738.392578125 c 1
EndSplineSet
EndChar

StartChar: v
Encoding: 86 118 39
Width: 593
Flags: W
HStem: 0 21G<287.133 365.652> 491 20G<28.4397 174.86 498.775 554.011>
AnchorPoint: "Anchor-2" 328 0 basechar 0
AnchorPoint: "Anchor-0" 336 496.019 basechar 0
LayerCount: 2
Fore
SplineSet
357.728061875 0 m 1
 294.054164688 0 l 1
 133.059143188 465.241024 l 1
 31.7976424375 454.397056 l 1
 28.43968 497 l 1
 168.121403 511 l 1
 326.061305438 42.2180605 l 1
 506.471592875 511 l 1
 554.010515312 495.43968 l 1
 357.728061875 0 l 1
EndSplineSet
EndChar

StartChar: w
Encoding: 87 119 40
Width: 862
Flags: W
HStem: 0 21G<287.656 364.605 577.558 655.555> 491 20G<28.4397 174.88 494.062 547.869 779.871 833.011>
AnchorPoint: "Anchor-2" 470 0 basechar 0
AnchorPoint: "Anchor-0" 503 496.019 basechar 0
LayerCount: 2
Fore
SplineSet
357.025917875 0 m 1
 294.600276688 0 l 1
 133.059143188 465.241024 l 1
 31.7976424375 454.397056 l 1
 28.43968 497 l 1
 168.121403 511 l 1
 326.217337438 43.1542525 l 1
 501.393576875 521 l 1
 547.868691312 503.595712 l 1
 357.025917875 0 l 1
647.884093875 0 m 1
 585.770516688 0 l 1
 452.591047188 324.34048 l 1
 478.12064 392.149056 l 1
 617.075513438 43.6223485 l 1
 787.315560875 501 l 1
 833.010515312 482.673728 l 1
 647.884093875 0 l 1
EndSplineSet
EndChar

StartChar: six
Encoding: 22 54 41
Width: 619
Flags: W
HStem: -10 46.8584<217.035 412.072> 437.009 46.7178<218.999 413.559> 696.533 52.459<367.06 488.803>
VStem: 60 58.375<158.985 399.937> 511.625 46.6914<137.861 335.692>
LayerCount: 2
Back
SplineSet
498.310546875 748.9921875 m 1
 512 637.533203125 l 1
 175.065365254 610.146952891 170.458007812 416.932617188 170.458007812 416.932617188 c 1
 170.458007812 416.932617188 215.209080523 483.7265625 336.600585938 483.7265625 c 0
 472.674581172 483.7265625 572.31640625 388.819152798 572.31640625 245.249023438 c 0
 572.31640625 100.798835154 490.925518401 -10 316.310546875 -10 c 0
 170.896357089 -10 45 80.6409024463 45 300.348632812 c 4
 45 516.020480109 153.586977651 728.185507446 498.310546875 748.9921875 c 1
176.375 242.858398438 m 0
 176.375 154.857510653 229.905346038 98.8583984375 314.025390625 98.8583984375 c 0
 398.725511696 98.8583984375 452.625 154.857510653 452.625 242.858398438 c 0
 452.625 329.728081597 398.725511696 385.008789062 314.025390625 385.008789062 c 0
 229.905346038 385.008789062 176.375 329.728081597 176.375 242.858398438 c 0
EndSplineSet
Fore
SplineSet
488.310546875 748.9921875 m 1
 492 696.533203125 l 5
 113.937078853 679.340785773 110.458007812 376.932617188 110.458007812 376.932617188 c 1
 110.458007812 376.932617188 159.138044996 483.7265625 324.600585938 483.7265625 c 0
 459.647840254 483.7265625 558.31640625 386.43132013 558.31640625 239.249023438 c 0
 558.31640625 107.959282621 490.941708166 -10 316.310546875 -10 c 0
 162.818077976 -10 60 92.3932717408 60 306.348632812 c 0
 60 519.13616121 162.598424197 728.463768616 488.310546875 748.9921875 c 1
118.375 236.858398438 m 0
 118.375 114.634943181 195.238521829 36.8583984375 316.025390625 36.8583984375 c 0
 435.558992994 36.8583984375 511.625 114.634943181 511.625 236.858398438 c 0
 511.625 359.172526042 435.558992994 437.008789062 316.025390625 437.008789062 c 0
 195.238521829 437.008789062 118.375 359.172526042 118.375 236.858398438 c 0
EndSplineSet
Substitution2: "'onum' Oldstyle Figures lookup 27-1" six.osf
Substitution2: "'frac' Diagonal Fractions in Latin lookup 26 subtable" six.numr
Substitution2: "'dnom' Denominators lookup 0 subtable" six.dnom
Substitution2: "'numr' Numerators lookup 0 subtable" six.numr
Substitution2: "'sinf' Scientific Inferiors lookup 0 subtable" six.inferior
Substitution2: "'sups' Superscript lookup 0 subtable" six.superior
EndChar

StartChar: z
Encoding: 90 122 42
Width: 461
Flags: W
HStem: 0 44<99.1689 415.017> 454 43<46 344.848>
AnchorPoint: "Anchor-2" 238 0 basechar 0
AnchorPoint: "Anchor-0" 231 496.019 basechar 0
LayerCount: 2
Fore
SplineSet
40 454 m 1
 46 497 l 1
 406.016601562 497 l 1
 411.016601562 469 l 1
 99.1689453125 44 l 1
 421.016601562 46 l 5
 415.016601562 0 l 1
 41 0 l 1
 32 32 l 1
 344.84765625 455 l 1
 40 454 l 1
EndSplineSet
EndChar

StartChar: O
Encoding: 47 79 43
Width: 785
Flags: W
HStem: -10.0664 49.3506<272.285 505.621> 689.583 49.3506<276.424 505.621>
VStem: 46 47.4873<230.927 494.696> 691.513 47.4873<234.663 490.897>
AnchorPoint: "Anchor-3" 435 0 basechar 0
AnchorPoint: "Anchor-2" 377 0 basechar 0
AnchorPoint: "Anchor-2" 377 0 basechar 0
AnchorPoint: "Anchor-0" 377 731.008 basechar 0
AnchorPoint: "Anchor-0" 377 731.008 basechar 0
LayerCount: 2
Back
SplineSet
295.487304688 361.704101562 m 0
 295.487304688 247.780273438 320.957605563 175.284179688 376.697265625 175.284179688 c 0
 439.529183996 175.284179688 469.512695312 247.780273438 469.512695312 361.704101562 c 0
 469.512695312 478.963867188 439.529183996 553.583007812 376.697265625 553.583007812 c 0
 320.957605563 553.583007812 295.487304688 478.963867188 295.487304688 361.704101562 c 0
90 361.93359375 m 0
 90 592.322265625 195.499874605 738.93359375 377 738.93359375 c 0
 565.222610829 738.93359375 675 592.322265625 675 361.93359375 c 0
 675 134.599609375 565.222610829 -10.06640625 377 -10.06640625 c 0
 195.499874605 -10.06640625 90 134.599609375 90 361.93359375 c 0
EndSplineSet
Fore
SplineSet
93.4873046875 361.704101562 m 0
 93.4873046875 163.47837688 213.88279725 39.2841796875 386.697265625 39.2841796875 c 0
 566.849296993 39.2841796875 691.512695312 163.47837688 691.512695312 361.704101562 c 0
 691.512695312 563.249005424 566.849296993 689.583007812 386.697265625 689.583007812 c 0
 213.88279725 689.583007812 93.4873046875 563.249005424 93.4873046875 361.704101562 c 0
46 361.93359375 m 0
 46 592.322641811 178.610967139 738.93359375 387 738.93359375 c 0
 602.111555233 738.93359375 739 592.322641811 739 361.93359375 c 0
 739 134.599173678 602.111555233 -10.06640625 387 -10.06640625 c 0
 178.610967139 -10.06640625 46 134.599173678 46 361.93359375 c 0
EndSplineSet
EndChar

StartChar: L
Encoding: 44 76 44
Width: 620
Flags: W
HStem: 0 51.293<219.064 576.539> 680.084 50.9258<53.6201 168.151>
VStem: 163.43 55.6348<51.293 680.084>
AnchorPoint: "Anchor-2" 377 0 basechar 0
AnchorPoint: "Anchor-2" 377 0 basechar 0
AnchorPoint: "Anchor-0" 206 731.008 basechar 0
LayerCount: 2
Fore
SplineSet
219.064453125 51.29296875 m 1
 580.159179688 52.9306640625 l 5
 576.5390625 0 l 5
 163.4296875 0 l 1
 168.151367188 680.083984375 l 1
 50 678.080078125 l 1
 53.6201171875 731.010742188 l 1
 214.729492188 731.009765625 l 1
 219.064453125 51.29296875 l 1
EndSplineSet
EndChar

StartChar: K
Encoding: 43 75 45
Width: 697
Flags: W
HStem: 0 21G<163.83 220.159> 680.084 50.9268<53.6201 168.151>
VStem: 163.83 56.3291<0 680.084>
AnchorPoint: "Anchor-2" 366 0 basechar 0
AnchorPoint: "Anchor-2" 366 0 basechar 0
AnchorPoint: "Anchor-0" 356 731.008 basechar 0
LayerCount: 2
Fore
SplineSet
214.729492188 731.010742188 m 1
 220.159179688 0 l 1
 163.830078125 0 l 1
 168.151367188 680.083984375 l 1
 50 678.080078125 l 1
 53.6201171875 731.010742188 l 1
 214.729492188 731.010742188 l 1
588 745.0078125 m 1
 632 701.0078125 l 1
 251 359 l 5
 657 18 l 1
 623 -27 l 1
 179 359 l 1
 588 745.0078125 l 1
EndSplineSet
EndChar

StartChar: J
Encoding: 42 74 46
Width: 370
Flags: W
HStem: 680.084 50.9268<53.6201 228.151>
VStem: 223.83 56.3291<40 680.084>
AnchorPoint: "Anchor-2" 100 -148 basechar 0
AnchorPoint: "Anchor-2" 100 -148 basechar 0
AnchorPoint: "Anchor-0" 186 731.008 basechar 0
LayerCount: 2
Fore
SplineSet
274.729492188 731.010742188 m 1
 280.159179688 30 l 1
 100 -187 l 5
 58 -153 l 5
 223.830078125 40 l 1
 228.151367188 680.083984375 l 1
 50 678.080078125 l 1
 53.6201171875 731.010742188 l 1
 274.729492188 731.010742188 l 1
EndSplineSet
Substitution2: "'ss12' Style Set 12 lookup 20-1" J.ss12
EndChar

StartChar: H
Encoding: 40 72 47
Width: 780
Flags: W
HStem: 0 21G<163.83 220.159 613.83 670.159> 321 45<202 634> 680.084 50.9268<53.6201 168.151 503.62 618.151>
VStem: 163.83 56.3291<0 321 366 680.084> 613.83 56.3291<0 315 367 680.084>
AnchorPoint: "Anchor-2" 432 0 basechar 0
AnchorPoint: "Anchor-2" 432 0 basechar 0
AnchorPoint: "Anchor-0" 386 731.008 basechar 0
LayerCount: 2
Back
SplineSet
252 393 m 1xb6
 608 397 l 1
 604 285 l 1xd6
 248 296 l 1
 252 393 l 1xb6
704.729492188 731.010742188 m 1
 710.159179688 0 l 1
 573.830078125 0 l 1
 578.151367188 620.083984375 l 1
 440 618.080078125 l 5
 443.620117188 731.010742188 l 5
 704.729492188 731.010742188 l 1
294.729492188 731.010742188 m 1
 300.159179688 0 l 1
 163.830078125 0 l 1x9a
 168.151367188 620.083984375 l 1
 30 618.080078125 l 5
 33.6201171875 731.010742188 l 5
 294.729492188 731.010742188 l 1
EndSplineSet
Fore
SplineSet
202 366 m 1
 638 367 l 1
 634 315 l 1
 198 321 l 1
 202 366 l 1
664.729492188 731.010742188 m 1
 670.159179688 0 l 1
 613.830078125 0 l 1
 618.151367188 680.083984375 l 1
 500 678.080078125 l 5
 503.620117188 731.010742188 l 5
 664.729492188 731.010742188 l 1
214.729492188 731.010742188 m 1
 220.159179688 0 l 1
 163.830078125 0 l 1
 168.151367188 680.083984375 l 1
 50 678.080078125 l 1
 53.6201171875 731.010742188 l 1
 214.729492188 731.010742188 l 1
EndSplineSet
EndChar

StartChar: backslash
Encoding: 60 92 48
Width: 497
Flags: W
LayerCount: 2
Back
SplineSet
506 -123.994140625 m 1
 317 -175.994140625 l 1
 178.016601562 331 l 1
 1 763.001953125 l 1
 190 815.001953125 l 1
 308.362304688 379 l 1
 506 -123.994140625 l 1
EndSplineSet
Fore
SplineSet
426 -153.994140625 m 1
 387 -165.994140625 l 1
 71 793.001953125 l 5
 110 805.001953125 l 1
 426 -153.994140625 l 1
EndSplineSet
EndChar

StartChar: F
Encoding: 38 70 49
Width: 620
Flags: W
HStem: 0 21G<163.83 220.159> 301 46<182 537> 678.08 52.9307<53.6201 168.151 216.104 578.729>
VStem: 163.83 56.3291<0 301 347 678>
AnchorPoint: "Anchor-2" 367 0 basechar 0
AnchorPoint: "Anchor-2" 367 0 basechar 0
AnchorPoint: "Anchor-0" 327 731.008 basechar 0
LayerCount: 2
Fore
SplineSet
182 347 m 1
 538 347 l 1
 537 295 l 5
 178 301 l 5
 182 347 l 1
578.729492188 731.010742188 m 1
 584.61328125 674 l 1
 216.103515625 678 l 1
 220.159179688 0 l 1
 163.830078125 0 l 1
 168.151367188 680.083984375 l 1
 50 678.080078125 l 1
 53.6201171875 731.010742188 l 1
 53.6201171875 731.010742188 578.729492188 731.010742188 578.729492188 731.010742188 c 1
EndSplineSet
EndChar

StartChar: E
Encoding: 37 69 50
Width: 620
Flags: W
HStem: 0 51.4805<219.018 586.539> 344 46<182 536> 678.08 52.9307<53.6201 168.151 216.104 578.729>
VStem: 163.43 55.5879<51.4805 344 390 678>
AnchorPoint: "Anchor-3" 515 0 basechar 0
AnchorPoint: "Anchor-2" 377 0 basechar 0
AnchorPoint: "Anchor-2" 377 0 basechar 0
AnchorPoint: "Anchor-0" 327 731.008 basechar 0
LayerCount: 2
Fore
SplineSet
182 390 m 1
 538 390 l 1
 536 338 l 1
 178 344 l 1
 182 390 l 1
578.729492188 731.010742188 m 1
 584.61328125 674 l 1
 216.103515625 678 l 1
 219.017578125 51.48046875 l 1
 319.064453125 51.29296875 l 1
 590.159179688 52.9306640625 l 1
 586.5390625 0 l 1
 163.4296875 0 l 1
 168.151367188 680.083984375 l 1
 50 678.080078125 l 1
 53.6201171875 731.010742188 l 1
 53.6201171875 731.010742188 578.729492188 731.010742188 578.729492188 731.010742188 c 1
EndSplineSet
Substitution2: "'ss15' Style Set 15 lookup 23-1" E.ss15
EndChar

StartChar: N
Encoding: 46 78 51
Width: 790
Flags: W
HStem: -10 21G<621.881 700.539> 0 21G<175.21 224.539> 711.011 20G<648.884 695.258>
VStem: 175.21 49.3291<0 658.793> 645.151 55.3877<66.8887 731.011>
AnchorPoint: "Anchor-2" 438 0 basechar 0
AnchorPoint: "Anchor-2" 438 0 basechar 0
AnchorPoint: "Anchor-0" 441 731.008 basechar 0
LayerCount: 2
Fore
SplineSet
695.109375 731.010742188 m 1x78
 700.5390625 0 l 1x78
 634.209960938 -10 l 1xb8
 221.92578125 658.79296875 l 5
 224.5390625 0 l 1
 175.209960938 0 l 1
 179.53125 687.083984375 l 1
 54.3798828125 678.080078125 l 1
 50 731.010742188 l 1
 226.109375 741.010742188 l 1
 645.151367188 66.888671875 l 5
 649 731.010742188 l 1
 695.109375 731.010742188 l 1x78
EndSplineSet
EndChar

StartChar: bar
Encoding: 92 124 52
Width: 246
Flags: W
VStem: 104.17 38.7295<-170 788.992>
LayerCount: 2
Back
SplineSet
220.899414062 788.9921875 m 1
 193.418945312 334 l 1
 226.329101562 -170 l 1
 30 -170 l 1
 63.3330078125 338 l 1
 36.169921875 788.9921875 l 1
 220.899414062 788.9921875 l 1
EndSplineSet
Fore
SplineSet
142.899414062 788.9921875 m 5
 146.329101562 -170 l 1
 100 -170 l 1
 104.169921875 788.9921875 l 1
 142.899414062 788.9921875 l 5
EndSplineSet
EndChar

StartChar: U
Encoding: 53 85 53
Width: 767
Flags: W
HStem: -10 52<322.444 532.412> 680.084 50.9268<53.6201 175.151 503.62 629.151>
VStem: 163.517 51.6426<156.323 505.609> 637.83 49.8115<156.047 494.476>
AnchorPoint: "Anchor-3" 500 0 basechar 0
AnchorPoint: "Anchor-2" 430 0 basechar 0
AnchorPoint: "Anchor-2" 430 0 basechar 0
AnchorPoint: "Anchor-0" 386 731.008 basechar 0
AnchorPoint: "Anchor-0" 386 731.008 basechar 0
LayerCount: 2
Fore
SplineSet
687.641601562 270.946289062 m 0
 687.641601562 85.0810974478 590.83907027 -10 428.830078125 -10 c 0
 255.919233106 -10 163.516601562 84.5172625506 163.516601562 290.099609375 c 0
 163.516601562 442.335144737 175.151367188 680.083984375 175.151367188 680.083984375 c 1
 50 678.080078125 l 1
 53.6201171875 731.010742188 l 1
 223.729492188 731.010742188 l 1
 223.729492188 731.010742188 215.159179688 403.488572129 215.159179688 289 c 0
 215.159179688 141.882202148 270.928784014 42 430 42 c 0
 574.907637752 42 637.830078125 131.802368166 637.830078125 289 c 0
 637.830078125 440.176445805 629.151367188 680.083984375 629.151367188 680.083984375 c 1
 500 678.080078125 l 1
 503.620117188 731.010742188 l 1
 674.729492188 731.010742188 l 1
 674.729492188 731.010742188 687.641601562 450.456085293 687.641601562 270.946289062 c 0
EndSplineSet
EndChar

StartChar: A
Encoding: 33 65 54
Width: 670
Flags: W
HStem: 203 50<186.25 518> 211 48<142 475.75> 674.069 46.9307<101.819 266.04> 682.112 48.8877<177.072 290.508>
AnchorPoint: "Anchor-3" 604 0 basechar 0
AnchorPoint: "Anchor-2" 338 0 basechar 0
AnchorPoint: "Anchor-2" 338 0 basechar 0
AnchorPoint: "Anchor-0" 316 731.008 basechar 0
LayerCount: 2
Fore
SplineSet
142 259 m 1x40
 518 253 l 1
 524 203 l 1x80
 138 211 l 1
 142 259 l 1x40
290.5078125 682.112304688 m 5x10
 101.819335938 674.069335938 l 5
 101.439453125 721 l 1x20
 353.548828125 731 l 1
 638.450195312 0.9111328125 l 1
 591.176757812 -15 l 1
 332.818359375 666.8671875 l 1
 75.8193359375 -15 l 1
 30.2734375 3 l 1
 290.5078125 682.112304688 l 5x10
EndSplineSet
Substitution2: "'fina' Terminal Forms lookup 25-1" A.fina
Substitution2: "'init' Initial Forms lookup 24-1" A.init
Substitution2: "'ss14' Style Set 14 lookup 22-1" A.ss14
EndChar

StartChar: B
Encoding: 34 66 55
Width: 739
Flags: W
HStem: -10.0664 45<224.675 547.074> 342.992 41.9414<217.715 516.048> 692.992 46<191.187 507.526>
VStem: 168 49.7139<59.2461 337.434 392.877 699.25> 605.917 44<457.141 609.406> 643.917 46<115.019 262.481>
AnchorPoint: "Anchor-2" 427 0 basechar 0
AnchorPoint: "Anchor-2" 427 0 basechar 0
AnchorPoint: "Anchor-0" 386 731.008 basechar 0
LayerCount: 2
Fore
SplineSet
194.196289062 392.876953125 m 1xf4
 194.196289062 392.876953125 246.647496591 384.93359375 377.916992188 384.93359375 c 0
 538.285156247 384.93359375 605.916992188 441.735368114 605.916992188 527 c 0
 605.916992188 631.854664657 531.661755235 692.9921875 373.916992188 692.9921875 c 4
 191.372219074 692.9921875 58.26953125 617.427734375 58.26953125 617.427734375 c 1
 38 664.840820312 l 1
 38 664.840820312 142.067681351 738.9921875 386.916992188 738.9921875 c 0
 547.639311806 738.9921875 649.916992188 656.914373024 649.916992188 527.93359375 c 0xf8
 649.916992188 402.036366266 535.275390625 368.96875 535.275390625 368.96875 c 1
 535.275390625 368.96875 689.916992188 339.955073011 689.916992188 189.9921875 c 0
 689.916992188 67.7338434701 587.639311806 -10.06640625 426.916992188 -10.06640625 c 0
 245.224676986 -10.06640625 168 24.0849609375 168 24.0849609375 c 1
 173.940429688 699.25 l 1
 215.669921875 699.25 l 1
 217.713867188 59.24609375 l 1
 217.713867188 59.24609375 263.663037158 34.93359375 414.916992188 34.93359375 c 0
 559.740836739 34.93359375 643.916992188 91.0570085932 643.916992188 189.9921875 c 0
 643.916992188 274.1421875 581.074486214 342.9921875 398 342.9921875 c 0
 249.653585775 342.9921875 194.2578125 337.43359375 194.2578125 337.43359375 c 1
 194.196289062 392.876953125 l 1xf4
EndSplineSet
EndChar

StartChar: C
Encoding: 35 67 56
Width: 651
Flags: W
HStem: -10.0664 50<271.759 550.747> 692.992 46<277.274 527.015>
VStem: 46 50<223.27 499.738>
AnchorPoint: "Anchor-0" 387 731.008 basechar 0
AnchorPoint: "Anchor-2" 378 0 basechar 0
AnchorPoint: "Anchor-2" 378 0 basechar 0
LayerCount: 2
Fore
SplineSet
46 361.93359375 m 0
 46 592.358449127 182.499851806 738.9921875 397 738.9921875 c 0
 571.675165443 738.9921875 645.916992188 662.840820312 645.916992188 662.840820312 c 1
 621.647460938 625.427734375 l 1
 621.647460938 625.427734375 532.938238868 692.9921875 395 692.9921875 c 4
 212.276659035 692.9921875 96 564.249030478 96 361.93359375 c 0
 96 165.155117185 198.175683593 39.93359375 398 39.93359375 c 4
 557.407490037 39.93359375 638.1484375 100.364257812 638.1484375 100.364257812 c 1
 661.146484375 62.31640625 l 1
 661.146484375 62.31640625 594.321700857 -10.06640625 387 -10.06640625 c 0
 178.610967139 -10.06640625 46 134.599173678 46 361.93359375 c 0
EndSplineSet
EndChar

StartChar: D
Encoding: 36 68 57
Width: 783
Flags: W
HStem: -10.0664 50<219.91 511.559> 694.992 44<192.133 504.518>
VStem: 173.94 41.7295<61.8467 684.25> 686.917 47<223.27 503.942>
AnchorPoint: "Anchor-2" 399 0 basechar 0
AnchorPoint: "Anchor-2" 399 0 basechar 0
AnchorPoint: "Anchor-0" 386 731.008 basechar 0
LayerCount: 2
Fore
SplineSet
733.916992188 361.93359375 m 0
 733.916992188 134.599609375 602.861743916 -10.06640625 396.916992188 -10.06640625 c 0
 223.626596728 -10.06640625 167.770507812 32.31640625 167.770507812 32.31640625 c 5
 173.940429688 684.25 l 5
 215.669921875 684.25 l 5
 219.002929688 61.8466796875 l 5
 219.002929688 61.8466796875 291.920464162 39.93359375 386.916992188 39.93359375 c 0
 585.418154171 39.93359375 686.916992188 165.15421875 686.916992188 361.93359375 c 0
 686.916992188 565.47102474 583.509144174 694.9921875 371.916992188 694.9921875 c 0
 181.030634354 694.9921875 58.26953125 617.427734375 58.26953125 617.427734375 c 1
 38 664.840820312 l 1
 38 664.840820312 142.067681351 738.9921875 386.916992188 738.9921875 c 0
 598.973060712 738.9921875 733.916992188 592.358398438 733.916992188 361.93359375 c 0
EndSplineSet
EndChar

StartChar: P
Encoding: 48 80 58
Width: 721
Flags: W
HStem: 0 21G<167.771 219.003> 229.934 47<262.065 521.921> 696.992 42<197.184 508.627>
VStem: 167.771 51.2324<0 283.434 330.877 699.25> 636.917 45<379.056 584.511>
AnchorPoint: "Anchor-2" 377 0 basechar 0
AnchorPoint: "Anchor-2" 377 0 basechar 0
AnchorPoint: "Anchor-0" 386 731.008 basechar 0
LayerCount: 2
Fore
SplineSet
219.002929688 0 m 1
 167.770507812 0 l 1
 173.940429688 699.25 l 1
 215.669921875 699.25 l 1
 219.002929688 0 l 1
204.196289062 330.876953125 m 1
 204.196289062 330.876953125 257.914258136 276.93359375 396.916992188 276.93359375 c 0
 554.220205629 276.93359375 636.916992188 352.646131152 636.916992188 474.93359375 c 0
 636.916992188 623.621276255 553.706316691 696.9921875 369.916992188 696.9921875 c 0
 205.051257741 696.9921875 58.26953125 621.427734375 58.26953125 621.427734375 c 1
 38 664.840820312 l 1
 38 664.840820312 142.067681351 738.9921875 386.916992188 738.9921875 c 0
 568.911396328 738.9921875 681.916992188 642.502051577 681.916992188 473.93359375 c 0
 681.916992188 325.951009114 576.805664061 229.93359375 406.916992188 229.93359375 c 0
 268.56143278 229.93359375 185.2578125 283.43359375 185.2578125 283.43359375 c 1
 204.196289062 330.876953125 l 1
EndSplineSet
EndChar

StartChar: M
Encoding: 45 77 59
Width: 877
VWidth: 1111
Flags: W
HStem: 684.08 46.9307<50 177.497> 719 20G<699.136 754>
AnchorPoint: "Anchor-2" 483 0 basechar 0
AnchorPoint: "Anchor-2" 483 0 basechar 0
AnchorPoint: "Anchor-0" 494 731.008 basechar 0
LayerCount: 2
Back
SplineSet
198.817382812 545.212890625 m 1
 93 539.080078125 l 1
 88.6201171875 731.010742188 l 1
 430.729492188 741.010742188 l 1
 483 547 l 1
 552 740 l 1
 766 731 l 1
 825 5 l 1
 613 -9 l 1
 584 361 l 5
 486 160 l 5
 390 352 l 5
 356 -6 l 1
 155 9 l 1
 198.817382812 545.212890625 l 1
EndSplineSet
Fore
SplineSet
188.817382812 690.212890625 m 1x40
 50 684.080078125 l 1
 48.6201171875 731.010742188 l 1x80
 232.729492188 741.010742188 l 1
 471 299 l 1
 710 739 l 1
 754 733 l 1
 813 -5 l 1
 767 -9 l 1
 719 668 l 1
 470 217 l 1
 228 659 l 1
 180 -6 l 1
 135 -1 l 1
 188.817382812 690.212890625 l 1x40
EndSplineSet
Substitution2: "'fina' Terminal Forms lookup 25-1" M.fina
Substitution2: "'init' Initial Forms lookup 24-1" M.init
EndChar

StartChar: G
Encoding: 39 71 60
Width: 794
Flags: W
HStem: -10.0664 50<264.786 507.253> 306.319 47.9307<651.565 760.097> 692.992 46<284.042 536.378>
VStem: 46 50<223.27 499.738> 608.987 42.5781<-87.7607 308.323>
AnchorPoint: "Anchor-2" 388 0 basechar 0
AnchorPoint: "Anchor-2" 388 0 basechar 0
AnchorPoint: "Anchor-0" 387 731.008 basechar 0
LayerCount: 2
Fore
SplineSet
608.987304688 354.25 m 5
 760.096679688 354.25 l 5
 763.716796875 306.319335938 l 1
 651.565429688 308.323242188 l 1
 655.88671875 -87.7607421875 l 1
 603.557617188 -87.7607421875 l 1
 608.987304688 354.25 l 5
46 361.93359375 m 0
 46 592.358449127 182.499851806 738.9921875 397 738.9921875 c 0
 571.675165443 738.9921875 645.916992188 662.840820312 645.916992188 662.840820312 c 1
 624.647460938 627.427734375 l 1
 624.647460938 627.427734375 540.635007413 692.9921875 410 692.9921875 c 0
 208.109936243 692.9921875 96 564.249030478 96 361.93359375 c 0
 96 165.155117185 199.867333984 39.93359375 380 39.93359375 c 0
 551.310681517 39.93359375 624.1484375 136.364257812 624.1484375 136.364257812 c 1
 651.146484375 112.31640625 l 1
 651.146484375 112.31640625 584.321700857 -10.06640625 377 -10.06640625 c 0
 174.722082472 -10.06640625 46 134.599173678 46 361.93359375 c 0
EndSplineSet
Substitution2: "'ss11' Style Set 11 lookup 19-1" G.ss11
EndChar

StartChar: T
Encoding: 52 84 61
Width: 590
Flags: W
HStem: 0 21G<261.83 318.159> 678 30<266.151 314.104> 678.08 52.9307<43.6201 266.151 314.104 538.729>
VStem: 261.83 56.3291<0 708>
AnchorPoint: "Anchor-2" 288 0 basechar 0
AnchorPoint: "Anchor-2" 288 0 basechar 0
AnchorPoint: "Anchor-0" 289 731.008 basechar 0
LayerCount: 2
Fore
SplineSet
314.103515625 708 m 1xd0
 318.159179688 0 l 1
 261.830078125 0 l 1
 266.151367188 710.083984375 l 1
 314.103515625 708 l 1xd0
292.103515625 678 m 1
 40 678.080078125 l 1
 43.6201171875 731.010742188 l 1
 538.729492188 731.010742188 l 5xb0
 544.61328125 674 l 5
 292.103515625 678 l 1
EndSplineSet
EndChar

StartChar: V
Encoding: 54 86 62
Width: 774
Flags: W
HStem: 0 21G<397.374 471.1>
AnchorPoint: "Anchor-2" 436 0 basechar 0
AnchorPoint: "Anchor-2" 436 0 basechar 0
AnchorPoint: "Anchor-0" 435 731.008 basechar 0
LayerCount: 2
Fore
SplineSet
463.607421875 0 m 1
 404.174804688 0 l 1
 167.151367188 697 l 1
 35.0458984375 683 l 1
 30 732 l 1
 198.546875 746 l 1
 435.905273438 51.1328125 l 5
 692.904296875 746 l 1
 737.450195312 731 l 1
 463.607421875 0 l 1
EndSplineSet
Substitution2: "'fina' Terminal Forms lookup 25-1" V.fina
Substitution2: "'init' Initial Forms lookup 24-1" V.init
EndChar

StartChar: W
Encoding: 55 87 63
Width: 1134
Flags: W
HStem: 0 21G<397.374 471.033 766.529 841.957> 716 20G<1046.6 1098.45>
AnchorPoint: "Anchor-2" 609 0 basechar 0
AnchorPoint: "Anchor-2" 609 0 basechar 0
AnchorPoint: "Anchor-0" 655 731.008 basechar 0
LayerCount: 2
Fore
SplineSet
463.607421875 0 m 1
 404.174804688 0 l 1
 167.151367188 697 l 1
 35.0458984375 683 l 1
 30 732 l 1
 198.546875 746 l 1
 435.905273438 51.1328125 l 1
 693.904296875 759 l 1
 739.450195312 743 l 1
 463.607421875 0 l 1
834.607421875 0 m 1
 775.174804688 0 l 1
 588 433 l 1
 612.395507812 493 l 1
 803.905273438 51.1328125 l 5
 1053.90429688 736 l 1
 1098.45019531 718 l 1
 834.607421875 0 l 1
EndSplineSet
Substitution2: "'fina' Terminal Forms lookup 25-1" W.fina
Substitution2: "'init' Initial Forms lookup 24-1" W.init
EndChar

StartChar: Q
Encoding: 49 81 64
Width: 785
Flags: W
HStem: -10.0664 49.3506<272.285 505.621> 689.583 49.3506<276.424 505.621>
VStem: 46 47.4873<230.927 494.696> 691.513 47.4873<234.663 490.897>
AnchorPoint: "Anchor-0" 377 731.008 basechar 0
LayerCount: 2
Fore
SplineSet
155 76 m 1
 789 -72 l 1
 779 -118 l 1
 144 34 l 1
 155 76 l 1
EndSplineSet
Refer: 43 79 N 1 0 0 1 0 0 2
Substitution2: "'ss10' Style Set 10 lookup 18-1" Q.ss10
EndChar

StartChar: underscore
Encoding: 63 95 65
Width: 580
Flags: W
HStem: -37 37<33 547>
LayerCount: 2
Fore
SplineSet
33 0 m 1
 549 4 l 1
 547 -42 l 5
 31 -37 l 5
 33 0 l 1
EndSplineSet
EndChar

StartChar: R
Encoding: 50 82 66
Width: 699
Flags: W
HStem: 0 21G<167.771 219.003> 258 42.9336<250.955 494.944> 696.992 42<185.559 486.897>
VStem: 167.771 51.2324<0 285.434 331.877 699.25> 614.917 44<408.73 592.467>
AnchorPoint: "Anchor-2" 417 0 basechar 0
AnchorPoint: "Anchor-2" 417 0 basechar 0
AnchorPoint: "Anchor-0" 386 731.008 basechar 0
LayerCount: 2
Back
SplineSet
289.002929688 0 m 5xb8
 157.770507812 0 l 5
 163.940429688 669.25 l 1
 285.669921875 669.25 l 1
 289.002929688 0 l 5xb8
274.196289062 355.876953125 m 1
 274.196289062 355.876953125 298.311785784 334.93359375 373.916992188 334.93359375 c 0
 487.119605202 334.93359375 551.916992188 395.921142577 551.916992188 475.93359375 c 0
 551.916992188 563.722489841 489.063645233 617.9921875 353 617.9921875 c 0
 219.214256452 617.9921875 49.26953125 556.427734375 49.26953125 556.427734375 c 1
 18 674.840820312 l 1
 18 674.840820312 122.067681352 738.9921875 366.916992188 738.9921875 c 0xd8
 557.583984375 738.9921875 678.916992188 638.247073955 678.916992188 479.93359375 c 0
 678.916992188 277.943443494 474.740234375 245.040039062 474.740234375 245.040039062 c 1
 701.770507812 69 l 1
 625.770507812 -37 l 1
 235.2578125 285.43359375 l 1
 274.196289062 355.876953125 l 1
EndSplineSet
Fore
SplineSet
219.002929688 0 m 1
 167.770507812 0 l 1
 173.940429688 699.25 l 1
 215.669921875 699.25 l 1
 219.002929688 0 l 1
204.196289062 331.876953125 m 1
 204.196289062 331.876953125 247.658217141 300.93359375 383.916992188 300.93359375 c 0
 530.82600121 300.93359375 614.916992188 387.440755207 614.916992188 500.93359375 c 0
 614.916992188 622.093229784 531.209112629 696.9921875 350 696.9921875 c 0
 184.066278595 696.9921875 58.26953125 621.427734375 58.26953125 621.427734375 c 1
 38 664.840820312 l 1
 38 664.840820312 136.10249859 738.9921875 366.916992188 738.9921875 c 0
 545.361741286 738.9921875 658.916992188 646.024859829 658.916992188 499.93359375 c 0
 658.916992188 360.71371357 564.259000882 258 389 258 c 0
 326.663460178 258 276.740234375 269.040039062 276.740234375 269.040039062 c 5
 671.770507812 19 l 1
 641.770507812 -27 l 1
 175.2578125 285.43359375 l 1
 204.196289062 331.876953125 l 1
EndSplineSet
EndChar

StartChar: five
Encoding: 21 53 67
Width: 581
Flags: W
HStem: -10.0664 50<110.145 367.264> 421.992 50.0078<179.872 384.206> 679 52.0078<159 479.017>
VStem: 470.917 49<136.429 335.632>
LayerCount: 2
Back
SplineSet
529.016601562 549.0078125 m 5
 239 550 l 29
 224 471 l 21
 224 471 248.642857143 479 316 479 c 4
 492.46964774 479 559.916992188 386.635747331 559.916992188 246.9921875 c 4
 559.916992188 68.1744133844 445.97265625 -10.06640625 266.916992188 -10.06640625 c 4
 85.2246769868 -10.06640625 8 44.0849609375 8 44.0849609375 c 5
 50 207 l 5
 50 207 126.85984585 163.93359375 233.916992188 163.93359375 c 4
 305.791015625 163.93359375 340.916992188 195.456256431 340.916992188 244.9921875 c 4
 340.916992188 289.603298611 303.700683594 317.9921875 230.916992188 317.9921875 c 4
 164.966339317 317.9921875 125.2578125 288.43359375 125.2578125 288.43359375 c 5
 19 392 l 5
 80 731.0078125 l 5
 365 731.0078125 l 5
 362 798.0078125 l 5
 515.016601562 800.0078125 l 5
 529.016601562 549.0078125 l 5
EndSplineSet
Fore
SplineSet
479.016601562 678.0078125 m 1
 159 679 l 1
 115 413 l 1
 115 413 163.214285715 472 295 472 c 0
 448.149164663 472 519.916992188 368.441422213 519.916992188 236.9921875 c 0
 519.916992188 75.1307174514 418.805977362 -10.06640625 259.916992188 -10.06640625 c 0
 97.1716470908 -10.06640625 28 44.0849609375 28 44.0849609375 c 1
 45 88 l 1
 45 88 130.635852588 39.93359375 249.916992188 39.93359375 c 0
 398.367077978 39.93359375 470.916992188 115.789415685 470.916992188 234.9921875 c 0
 470.916992188 349.269965278 409.340917967 421.9921875 288.916992188 421.9921875 c 0
 164.169977071 421.9921875 105.2578125 348.43359375 105.2578125 348.43359375 c 1
 59 372 l 1
 120 731.0078125 l 1
 479.016601562 731.0078125 l 1
 479.016601562 678.0078125 l 1
EndSplineSet
Substitution2: "'onum' Oldstyle Figures lookup 27-1" five.osf
Substitution2: "'ss02' Style Set 2 lookup 10-1" five.ss02
Substitution2: "'frac' Diagonal Fractions in Latin lookup 26 subtable" five.numr
Substitution2: "'dnom' Denominators lookup 0 subtable" five.dnom
Substitution2: "'numr' Numerators lookup 0 subtable" five.numr
Substitution2: "'sinf' Scientific Inferiors lookup 0 subtable" five.inferior
Substitution2: "'sups' Superscript lookup 0 subtable" five.superior
EndChar

StartChar: Z
Encoding: 58 90 68
Width: 601
Flags: W
HStem: 0 47<117.169 533.017> 680.008 51<68 490.848>
AnchorPoint: "Anchor-2" 315 0 basechar 0
AnchorPoint: "Anchor-2" 315 0 basechar 0
AnchorPoint: "Anchor-0" 294 731.008 basechar 0
LayerCount: 2
Fore
SplineSet
62 680.0078125 m 1
 68 731.0078125 l 1
 538.016601562 731.0078125 l 1
 549.016601562 689.0078125 l 1
 117.168945312 47 l 1
 539.016601562 52 l 1
 533.016601562 0 l 1
 66 0 l 1
 52 38 l 1
 490.84765625 685.0078125 l 1
 62 680.0078125 l 1
EndSplineSet
EndChar

StartChar: Y
Encoding: 57 89 69
Width: 704
Flags: W
HStem: 0 21G<366.83 419.159>
VStem: 370.623 45.1113<0 287.155>
AnchorPoint: "Anchor-2" 393 0 basechar 0
AnchorPoint: "Anchor-2" 393 0 basechar 0
AnchorPoint: "Anchor-0" 391 731.008 basechar 0
AnchorPoint: "Anchor-0" 391 731.008 basechar 0
LayerCount: 2
Fore
SplineSet
370.623046875 287.155273438 m 1
 141.151367188 693 l 1
 37.0458984375 675 l 1
 30 722 l 1
 169.546875 746 l 1
 391.905273438 347.1328125 l 1
 630.904296875 746 l 1
 677.450195312 721 l 5
 415.734375 293.650390625 l 1
 419.159179688 0 l 1
 366.830078125 0 l 1
 370.623046875 287.155273438 l 1
EndSplineSet
Substitution2: "'ss13' Style Set 13 lookup 21-1" Y.ss13
EndChar

StartChar: X
Encoding: 56 88 70
Width: 756
Flags: W
AnchorPoint: "Anchor-2" 425 0 basechar 0
AnchorPoint: "Anchor-2" 425 0 basechar 0
AnchorPoint: "Anchor-0" 422 731.008 basechar 0
LayerCount: 2
Fore
SplineSet
207 745.0078125 m 1
 441 364 l 1
 150 -27 l 1
 108 6 l 1
 386 364 l 1
 185 688.0078125 l 1
 53 641.93359375 l 5
 38 691 l 1
 207 745.0078125 l 1
660 745.0078125 m 1
 706 717.0078125 l 1
 443 364 l 1
 721 6 l 1
 681 -27 l 1
 388 364 l 1
 660 745.0078125 l 1
EndSplineSet
EndChar

StartChar: comma
Encoding: 12 44 71
Width: 270
Flags: W
HStem: -91 191
VStem: 67 122
LayerCount: 2
Fore
SplineSet
138 100 m 25
 189 76 l 25
 94 -91 l 29
 67 -75 l 29
 138 100 l 25
EndSplineSet
EndChar

StartChar: nine
Encoding: 25 57 73
Width: 619
Flags: W
HStem: -20 52.459<149.514 264.707> 245.266 46.7178<204.775 399.318> 692.134 46.8584<206.552 401.589>
VStem: 60 46.6914<393.3 591.131> 499.941 58.375<329.055 570.008>
LayerCount: 2
Fore
SplineSet
150.005859375 -20 m 5
 146.31640625 32.458984375 l 5
 504.561774928 49.5384793214 507.858398438 352.059570312 507.858398438 352.059570312 c 1
 507.858398438 352.059570312 459.178239624 245.265625 293.715820312 245.265625 c 0
 158.752676021 245.265625 60 342.56086737 60 489.743164062 c 0
 60 621.032904879 127.653029816 738.9921875 303.005859375 738.9921875 c 0
 455.89919908 738.9921875 558.31640625 636.598632812 558.31640625 422.643554688 c 0
 558.31640625 209.85546875 460.508277823 0.528320312454 150.005859375 -20 c 5
499.94140625 492.133789062 m 0
 499.94140625 614.357244319 423.07788442 692.133789062 302.291015625 692.133789062 c 0
 182.757413256 692.133789062 106.69140625 614.357244319 106.69140625 492.133789062 c 0
 106.69140625 369.819661458 182.757413256 291.983398438 302.291015625 291.983398438 c 0
 423.07788442 291.983398438 499.94140625 369.819661458 499.94140625 492.133789062 c 0
EndSplineSet
Substitution2: "'onum' Oldstyle Figures lookup 27-1" nine.osf
Substitution2: "'frac' Diagonal Fractions in Latin lookup 26 subtable" nine.numr
Substitution2: "'dnom' Denominators lookup 0 subtable" nine.dnom
Substitution2: "'numr' Numerators lookup 0 subtable" nine.numr
Substitution2: "'sinf' Scientific Inferiors lookup 0 subtable" nine.inferior
Substitution2: "'sups' Superscript lookup 0 subtable" nine.superior
EndChar

StartChar: at
Encoding: 32 64 74
Width: 925
Flags: W
HStem: -159.727 46.877<334.407 666.183> 48.4209 46.6357<357.007 522.764 673.523 789.502> 447.86 45.6455<360.254 523.717> 663.433 44.2939<326.725 607.865>
VStem: 50 48<130.047 422.934> 237.529 45.5947<175.096 368.386> 598.856 49.9111<163.942 379.544> 604.985 33.3086<131.105 360.897> 834.404 40.8828<154.665 423.698>
LayerCount: 2
Back
SplineSet
365.124023438 363.1875 m 4
 365.124023438 312.997070312 392.912109375 281.056640625 436.578125 281.056640625 c 4
 480.749023438 281.056640625 508.856445312 312.997070312 508.856445312 363.1875 c 4
 508.856445312 411.876953125 480.749023438 442.860351562 436.578125 442.860351562 c 4
 392.912109375 442.860351562 365.124023438 411.876953125 365.124023438 363.1875 c 4
207.529296875 362.254882812 m 4
 207.529296875 497.463867188 289.260742188 583.505859375 417.694335938 583.505859375 c 4
 542.1171875 583.505859375 621.293945312 489.212890625 621.293945312 341.037109375 c 4
 621.293945312 217.215820312 542.1171875 138.420898438 417.694335938 138.420898438 c 4
 289.260742188 138.420898438 207.529296875 225.466796875 207.529296875 362.254882812 c 4
482.713867188 -69.7265625 m 4
 196.205078125 -69.7265625 20 94.120869497 20 358.08984375 c 4
 20 614.04161915 179.602962903 797.7265625 458.420898438 797.7265625 c 4
 719.309753403 797.7265625 905.287109375 654.481445312 905.287109375 383.712890625 c 4
 905.287109375 234.838867187 845.620117188 138.420898438 718.064453125 138.420898438 c 4
 609.642578125 138.420898438 536.985351562 205.224609375 536.985351562 370.025390625 c 4xbec0
 536.985351562 473.729492188 566.369140625 581.030273438 566.369140625 581.030273438 c 5
 721.677734375 569.944335938 l 5
 721.677734375 569.944335938 689.767578125 428.384765625 689.767578125 333.604492188 c 4
 689.767578125 282.138671875 704.185546875 254.978515625 740.811523438 254.978515625 c 4xbf40
 782.825195312 254.978515625 804.404296875 305.185546875 804.404296875 383.712890625 c 4
 804.404296875 614.064453125 662.40625 699.432617188 459.420898438 699.432617188 c 4
 248.553710938 699.432617188 128 560.595703125 128 361.93359375 c 4
 128 157.513671875 252.708984375 31.150390625 483.713867188 31.150390625 c 4
 665.813476562 31.150390625 793 94 793 94 c 5
 818.250976562 5.7744140625 l 5
 818.250976562 5.7744140625 708.095703125 -69.7265625 482.713867188 -69.7265625 c 4
EndSplineSet
Fore
SplineSet
283.124023438 272.1875 m 0xfe80
 283.124023438 163.942267809 343.9681167 95.056640625 439.578125 95.056640625 c 0
 536.916669665 95.056640625 598.856445312 163.942267809 598.856445312 272.1875 c 0
 598.856445312 379.544208136 538.472180183 447.860351562 443.578125 447.860351562 c 0
 345.523693515 447.860351562 283.124023438 379.544208136 283.124023438 272.1875 c 0xfe80
237.529296875 272.254882812 m 0
 237.529296875 407.463867188 313.42736626 493.505859375 432.694335938 493.505859375 c 0
 558.339418249 493.505859375 638.293945312 403.101761614 638.293945312 261.037109375 c 0xfd80
 638.293945312 131.104695813 558.339418249 48.4208984375 432.694335938 48.4208984375 c 0
 313.42736626 48.4208984375 237.529296875 135.466796875 237.529296875 272.254882812 c 0
482.713867188 -159.7265625 m 0
 214.780842288 -159.7265625 50 4.12109375 50 268.08984375 c 0
 50 524.041992188 198.681353076 707.7265625 458.420898438 707.7265625 c 0
 701.795021294 707.7265625 875.287109375 564.481445312 875.287109375 293.712890625 c 0
 875.287109375 144.838867188 826.13706413 48.4208984375 721.064453125 48.4208984375 c 0
 651.56160199 48.4208984375 604.985351562 103.110181745 604.985351562 238.025390625 c 0xfd80
 604.985351562 360.897105311 631.369140625 488.030273438 631.369140625 488.030273438 c 5
 677.677734375 482.944335938 l 5
 677.677734375 482.944335938 648.767578125 333.777551055 648.767578125 234.604492188 c 0xfe80
 648.767578125 142.418961804 666.219876689 91.978515625 730.811523438 91.978515625 c 0
 799.251891053 91.978515625 834.404296875 162.855804188 834.404296875 273.712890625 c 0
 834.404296875 558.055427368 678.411566152 663.432617188 455.420898438 663.432617188 c 0
 228.011160662 663.432617188 98 502.381732598 98 271.93359375 c 0
 98 34.142340813 233.226621938 -112.849609375 483.713867188 -112.849609375 c 0
 681.112441858 -112.849609375 802 -43 802 -43 c 1
 818.250976562 -84.2255859375 l 1
 818.250976562 -84.2255859375 708.095703125 -159.7265625 482.713867188 -159.7265625 c 0
EndSplineSet
EndChar

StartChar: percent
Encoding: 5 37 75
Width: 889
Flags: W
HStem: -10 45.5576<600.099 748.218> 315.225 45.6543<600.099 750.21> 368.113 45.5576<140.099 288.218> 693.338 45.6543<140.099 290.21>
VStem: 39.5205 45.3037<469.12 636.736> 343.784 45.3359<471.205 636.736> 499.521 45.3037<91.007 258.622> 803.784 45.3359<93.0914 258.622>
LayerCount: 2
Fore
SplineSet
544.82421875 176.256835938 m 0
 544.82421875 90.2741809114 595.064367131 35.5576171875 674.015625 35.5576171875 c 0
 753.318735912 35.5576171875 803.784179688 90.2741809114 803.784179688 176.256835938 c 0
 803.784179688 261.181995453 753.318735912 315.224609375 674.015625 315.224609375 c 0
 595.064367131 315.224609375 544.82421875 261.181995453 544.82421875 176.256835938 c 0
499.520507812 176.399414062 m 0
 499.520507812 289.137173592 567.373367414 360.87890625 674 360.87890625 c 0
 781.018033516 360.87890625 849.120117188 289.137173592 849.120117188 176.399414062 c 0
 849.120117188 62.4884665477 781.018033516 -10 674 -10 c 0
 567.373367414 -10 499.520507812 62.4884665477 499.520507812 176.399414062 c 0
84.82421875 554.370117188 m 0
 84.82421875 468.387462161 135.064367131 413.670898438 214.015625 413.670898438 c 0
 293.318735912 413.670898438 343.784179688 468.387462161 343.784179688 554.370117188 c 0
 343.784179688 639.295276703 293.318735912 693.337890625 214.015625 693.337890625 c 0
 135.064367131 693.337890625 84.82421875 639.295276703 84.82421875 554.370117188 c 0
39.5205078125 554.512695312 m 0
 39.5205078125 667.250454842 107.373367414 738.9921875 214 738.9921875 c 0
 321.018033516 738.9921875 389.120117188 667.250454842 389.120117188 554.512695312 c 0
 389.120117188 440.601747797 321.018033516 368.11328125 214 368.11328125 c 0
 107.373367414 368.11328125 39.5205078125 440.601747797 39.5205078125 554.512695312 c 0
EndSplineSet
Refer: 168 8260 N 1 0 0 1 304 0 2
EndChar

StartChar: ampersand
Encoding: 6 38 76
Width: 715
Flags: W
HStem: -9.99805 46.998<192.503 470.321> 319 48<514 654> 343 45<244.38 355> 700 45<266.309 375.622>
VStem: 60 49<108.403 261.616> 78 49<471.227 606.933> 489 54<67 319 367 552> 493 43<67 552>
LayerCount: 2
Fore
SplineSet
655 367 m 1xd0
 654 315 l 1
 509 319 l 1
 514 367 l 1
 655 367 l 1xd0
375 745 m 1
 379 700 l 1
 255.077693723 687.734582864 127 650.525340126 127 537.93359375 c 0xb4
 127 459.450480328 193.773544125 400.741112277 357 388 c 1
 355 343 l 1
 197.307692307 331.802816902 109 294.690140846 109 184 c 0
 109 94.8360655738 172.3 37 320 37 c 0
 439.629213484 37 489 67 489 67 c 1xba
 493 555 l 1
 536 552 l 1xb1
 543 37 l 1
 543 37 462.767731838 -9.998046875 320 -9.998046875 c 0
 168.406779661 -9.998046875 60 46.730470241 60 193 c 0xba
 60 349.968504872 254 368 254 368 c 5
 254 368 78 392.498754252 78 535 c 0xb4
 78 638.533653846 156.110091743 728.846153847 375 745 c 1
EndSplineSet
Substitution2: "'ss18' Style Set 18 lookup 30-1" ampersand.ss18
Substitution2: "'ss09' Style Set 9 lookup 17-1" ampersand.ss09
EndChar

StartChar: two
Encoding: 18 50 77
Width: 595
Flags: W
HStem: 0 46<162.152 531> 687 52<161.793 382.185>
VStem: 462.364 52.5996<390.335 604.235>
LayerCount: 2
Fore
SplineSet
162.15234375 46 m 5
 535 52 l 1
 531 0 l 1
 65.9833984375 0 l 1
 59.9833984375 40 l 1
 59.9833984375 40 462.364257812 214.759552294 462.364257812 502 c 0
 462.364257812 626.509420955 395.919598804 687 283.955078125 687 c 0
 154.07030232 687 76.4638671875 618 76.4638671875 618 c 1
 56.5634765625 663 l 1
 56.5634765625 663 140.760070527 739 282.03125 739 c 0
 432.577011685 739 514.963867188 650.154075522 514.963867188 508.93359375 c 0
 514.963867188 216.728864188 162.15234375 46 162.15234375 46 c 5
EndSplineSet
Substitution2: "'onum' Oldstyle Figures lookup 27-1" two.osf
Substitution2: "'frac' Diagonal Fractions in Latin lookup 26 subtable" two.numr
Substitution2: "'dnom' Denominators lookup 0 subtable" two.dnom
Substitution2: "'numr' Numerators lookup 0 subtable" two.numr
Substitution2: "'sinf' Scientific Inferiors lookup 0 subtable" two.inferior
Substitution2: "'sups' Superscript lookup 0 subtable" two.superior
EndChar

StartChar: three.ss01
Encoding: 736 -1 78
Width: 579
Flags: W
HStem: -10.0664 104<112.497 354.73> 324.992 95.9414<145.272 343.718> 625.992 113<122.338 350.346>
VStem: 397.917 123<466.129 582.438> 420.917 119<149.272 271.114>
LayerCount: 2
Fore
SplineSet
60 139 m 1xe8
 60 139 132.680795022 93.93359375 233.916992188 93.93359375 c 0
 359.528603241 93.93359375 420.916992188 139.067314096 420.916992188 209.9921875 c 0xe8
 420.916992188 280.269965278 364.184119591 324.9921875 236.916992188 324.9921875 c 0
 164.724609375 324.9921875 145.2578125 318.43359375 145.2578125 318.43359375 c 1
 145.196289062 424.876953125 l 1
 145.196289062 424.876953125 163.407226562 420.93359375 222.916992188 420.93359375 c 0
 347.24110814 420.93359375 397.916992188 462.112758092 397.916992188 523.93359375 c 0
 397.916992188 587.308273802 349.979492187 625.9921875 241.916992188 625.9921875 c 0
 139.594498513 625.9921875 72.26953125 581.427734375 72.26953125 581.427734375 c 1
 41 694.840820312 l 1
 41 694.840820312 106.293638705 738.9921875 259.916992188 738.9921875 c 0
 421.687757173 738.9921875 520.916992188 663.358398438 520.916992188 542.93359375 c 0xf0
 520.916992188 412.324363089 395.275390625 376.96875 395.275390625 376.96875 c 5
 395.275390625 376.96875 539.916992188 347.792964204 539.916992188 196.9921875 c 0
 539.916992188 70.4560546875 433.750426621 -10.06640625 266.916992188 -10.06640625 c 0
 99.2594696565 -10.06640625 28 34.0849609375 28 34.0849609375 c 1
 60 139 l 1xe8
EndSplineSet
Substitution2: "'dnom' Denominators lookup 0 subtable" three.ss01.dnom
Substitution2: "'numr' Numerators lookup 0 subtable" three.ss01.numr
Substitution2: "'subs' Subscript lookup 0 subtable" three.ss01.subscript
Substitution2: "'sinf' Scientific Inferiors lookup 0 subtable" three.ss01.inferior
Substitution2: "'sups' Superscript lookup 0 subtable" three.ss01.superior
EndChar

StartChar: four
Encoding: 20 52 79
Width: 679
Flags: W
HStem: 0 21G<422 476.329> 222.12 46.96<120.72 613.76>
VStem: 422 54.3291<0 629.934>
LayerCount: 2
Fore
SplineSet
470.899414062 629.93359375 m 1
 476.329101562 0 l 1
 422 0 l 1
 428.169921875 629.93359375 l 1
 470.899414062 629.93359375 l 1
388.559570312 752.280273438 m 1
 426.759765625 725.400390625 l 5
 120.719726562 269.080078125 l 1
 615.639648438 268.959960938 l 1
 613.759765625 219.6796875 l 1
 64.759765625 222.120117188 l 1
 53.5595703125 253.360351562 l 1
 388.559570312 752.280273438 l 1
EndSplineSet
Substitution2: "'onum' Oldstyle Figures lookup 27-1" four.osf
Substitution2: "'frac' Diagonal Fractions in Latin lookup 26 subtable" four.numr
Substitution2: "'dnom' Denominators lookup 0 subtable" four.dnom
Substitution2: "'numr' Numerators lookup 0 subtable" four.numr
Substitution2: "'sinf' Scientific Inferiors lookup 0 subtable" four.inferior
Substitution2: "'sups' Superscript lookup 0 subtable" four.superior
EndChar

StartChar: seven
Encoding: 23 55 80
Width: 568
Flags: W
HStem: 675.713 55.2949<116 484.848>
LayerCount: 2
Fore
SplineSet
47 488.0078125 m 1
 72 731.0078125 l 1
 507.016601562 731.0078125 l 1
 537.016601562 683.0078125 l 1
 256 -16 l 1
 207 1 l 1
 484.84765625 677.0078125 l 1
 116 675.712890625 l 1
 97 483 l 1
 47 488.0078125 l 1
EndSplineSet
Substitution2: "'onum' Oldstyle Figures lookup 27-1" seven.osf
Substitution2: "'frac' Diagonal Fractions in Latin lookup 26 subtable" seven.numr
Substitution2: "'dnom' Denominators lookup 0 subtable" seven.dnom
Substitution2: "'numr' Numerators lookup 0 subtable" seven.numr
Substitution2: "'sinf' Scientific Inferiors lookup 0 subtable" seven.inferior
Substitution2: "'sups' Superscript lookup 0 subtable" seven.superior
EndChar

StartChar: dollar
Encoding: 4 36 81
Width: 408
Flags: W
HStem: 0 21G<188 245> 719 20G<153 210>
VStem: 50 44.4316<446.953 540.38> 312.438 45.8516<199.867 297.899>
LayerCount: 2
Fore
SplineSet
245 0 m 1
 188 0 l 1
 195 135 l 1
 236 135 l 1
 245 0 l 1
153 739 m 1
 210 739 l 1
 203 604 l 1
 162 604 l 1
 153 739 l 1
277.302734375 645.848632812 m 1
 284.232421875 602.830078125 l 1
 284.232421875 602.830078125 94.431640625 589.278785716 94.431640625 490.092773438 c 0
 94.431640625 451.92024758 133.339615957 423.857336449 227.732421875 381.959960938 c 0
 318.996256316 341.451416827 358.2890625 311.700112929 358.2890625 249.793945312 c 0
 358.2890625 102.620164361 103.0390625 87.0791015625 103.0390625 87.0791015625 c 1
 96.5693359375 133.671875 l 1
 96.5693359375 133.671875 312.4375 145.072688202 312.4375 247.923828125 c 0
 312.4375 296.622504429 286.683968594 307.064445351 172.036132812 361.897460938 c 0
 84.7571448476 403.640683344 50 430.168945311 50 486.14453125 c 0
 50 632.151159692 277.302734375 645.848632812 277.302734375 645.848632812 c 1
EndSplineSet
EndChar

StartChar: quotesingle
Encoding: 7 39 82
Width: 256
Flags: W
HStem: 465 300<107 143>
VStem: 94 68<654.474 765>
LayerCount: 2
Fore
SplineSet
94 765 m 29
 162 765 l 29
 143 465 l 29
 107 465 l 29
 94 765 l 29
EndSplineSet
EndChar

StartChar: quotedbl
Encoding: 2 34 83
Width: 462
VWidth: 1111
Flags: W
HStem: 460 306
VStem: 111 35<460 507.333> 304 32<459.562 498.765>
LayerCount: 2
Fore
SplineSet
69 759 m 1
 141 766 l 1
 146 460 l 1
 111 457 l 1
 69 759 l 1
321 765 m 1
 387 755 l 1
 336 458 l 1
 304 460 l 1
 321 765 l 1
EndSplineSet
EndChar

StartChar: plus
Encoding: 11 43 84
Width: 450
Flags: W
HStem: 351 38<21 285.4>
VStem: 211.5 31<266.5 569.5>
LayerCount: 2
Fore
SplineSet
247.5 569.5 m 1
 242.5 371.5 l 1
 246.5 158.5 l 1
 197.5 160.5 l 1
 211.5 372.5 l 1
 206.5 572.5 l 1
 247.5 569.5 l 1
21 389 m 1
 223 386 l 1
 432 390 l 1
 431 341 l 1
 223 355 l 1
 19 351 l 1
 21 389 l 1
EndSplineSet
EndChar

StartChar: minus
Encoding: 719 8722 85
Width: 450
Flags: W
HStem: 275 112<90.5 402> 283 103<48 357.5>
LayerCount: 2
Fore
SplineSet
48 386 m 5x40
 404 387 l 5
 402 275 l 5x80
 46 283 l 5
 48 386 l 5x40
EndSplineSet
Validated: 1
EndChar

StartChar: question
Encoding: 31 63 86
Width: 437
Flags: W
HStem: -10 76<111.009 180.991> 315 40.4736<145.127 263.471> 696 49.3838<68.8615 168.87>
VStem: 108 76<-6.99071 62.9907> 122.905 44.4219<159.635 316> 331 46<419.426 582.949>
LayerCount: 2
Fore
SplineSet
59 696 m 1xec
 70.490234375 745.383789062 l 1
 280.687399987 713.077976399 377 640.950232335 377 502.010742188 c 0
 377 387.417520318 299.948569279 315 197 315 c 0
 178.161587482 315 167.327148438 316 167.327148438 316 c 1
 164 157 l 5
 164 157 159.178082192 159.634765625 148 159.634765625 c 4
 134.269230769 159.634765625 127 157 127 157 c 5
 122.905273438 358 l 1
 122.905273438 358 141.65711204 355.473632812 179 355.473632812 c 0
 259.527472528 355.473632812 331 397.666144987 331 502 c 0
 331 616.45221819 235.64611319 676.946780467 59 696 c 1xec
108 28 m 0xf4
 108 51.2223721593 122.777627841 66 146 66 c 0
 169.222372159 66 184 51.2223721593 184 28 c 0
 184 4.77762784093 169.222372159 -10 146 -10 c 0
 122.777627841 -10 108 4.77762784093 108 28 c 0xf4
EndSplineSet
EndChar

StartChar: parenleft
Encoding: 8 40 87
Width: 361
Flags: W
VStem: 60 51.1367<130.772 464.6>
LayerCount: 2
Fore
SplineSet
111.13671875 300.836914062 m 0
 111.13671875 -5.04157247427 300 -168.994140625 300 -168.994140625 c 1
 270 -198.994140625 l 5
 270 -198.994140625 60 -37 60 301.005859375 c 0
 60 613 270 791.001953125 270 791.001953125 c 5
 300 761.001953125 l 1
 300 761.001953125 111.13671875 603.290915262 111.13671875 300.836914062 c 0
EndSplineSet
EndChar

StartChar: parenright
Encoding: 9 41 88
Width: 361
Flags: W
VStem: 249.863 51.1367<127.408 461.236>
LayerCount: 2
Fore
SplineSet
249.86328125 291.170898438 m 0
 249.86328125 597.049384974 61 761.001953125 61 761.001953125 c 1
 91 791.001953125 l 1
 91 791.001953125 301 629.0078125 301 291.001953125 c 0
 301 -20.9921875 91 -198.994140625 91 -198.994140625 c 1
 61 -168.994140625 l 5
 61 -168.994140625 249.86328125 -11.2831027611 249.86328125 291.170898438 c 0
EndSplineSet
EndChar

StartChar: bracketleft
Encoding: 59 91 89
Width: 394
Flags: W
HStem: -190 46<123.747 341.824> 745 46.0107<120.672 332.395>
VStem: 70 53.7471<-144 745>
LayerCount: 2
Fore
SplineSet
332.39453125 791.010742188 m 1
 338.665039062 744 l 1
 120.671875 745 l 1
 123.747070312 -144 l 5
 344.806640625 -142 l 5
 341.82421875 -190 l 1
 70 -190 l 1
 72.69140625 791.010742188 l 1
 332.39453125 791.010742188 l 1
EndSplineSet
EndChar

StartChar: bracketright
Encoding: 61 93 90
Width: 394
Flags: W
HStem: -190 48<52.9824 271.06> 744 47.0107<62.4121 274.135>
VStem: 271.06 53.7471<-146 747>
LayerCount: 2
Fore
SplineSet
62.412109375 791.010742188 m 1
 322.115234375 791.010742188 l 1
 324.806640625 -190 l 1
 52.982421875 -190 l 1
 50 -142 l 1
 271.059570312 -146 l 1
 274.134765625 747 l 5
 56.1416015625 744 l 5
 62.412109375 791.010742188 l 1
EndSplineSet
EndChar

StartChar: less
Encoding: 28 60 91
Width: 450
Flags: W
LayerCount: 2
Fore
SplineSet
129.37109375 331.5 m 5
 415.349609375 161 l 1
 395.349609375 122 l 1
 54.650390625 332 l 1
 395.349609375 561 l 1
 415.349609375 522 l 1
 129.37109375 331.5 l 5
EndSplineSet
EndChar

StartChar: greater
Encoding: 30 62 92
Width: 450
Flags: W
LayerCount: 2
Fore
SplineSet
330.62890625 350.5 m 1
 34.650390625 522 l 1
 54.650390625 561 l 1
 395.349609375 351 l 1
 54.650390625 122 l 1
 34.650390625 161 l 5
 330.62890625 350.5 l 1
EndSplineSet
EndChar

StartChar: asciicircum
Encoding: 62 94 93
Width: 392
Flags: W
HStem: 436 312
LayerCount: 2
Fore
SplineSet
194 748 m 25
 367 458 l 29
 334 436 l 29
 195 676 l 25
 59 442 l 29
 25 462 l 29
 194 748 l 25
EndSplineSet
EndChar

StartChar: asterisk
Encoding: 10 42 94
Width: 401
Flags: W
VStem: 183.368 37.0488<603.537 765>
LayerCount: 2
Fore
SplineSet
176.857421875 765 m 1
 222.857421875 765 l 1
 220.416992188 603.537109375 l 1
 356.330078125 661.889648438 l 1
 370.1640625 618.8046875 l 1
 229.74609375 571.580078125 l 1
 318.087890625 442.75 l 1
 284.510742188 419.079101562 l 1
 201.842773438 547.431640625 l 1
 118.2734375 419.079101562 l 1
 85.6962890625 442.75 l 1
 174.038085938 571.580078125 l 1
 31 627.254882812 l 1
 46.8681640625 664.889648438 l 1
 183.368164062 603.537109375 l 1
 176.857421875 765 l 1
EndSplineSet
EndChar

StartChar: sterling
Encoding: 97 163 95
Width: 576
Flags: W
HStem: 0 111.293<189.064 536.539> 275 112<164 416> 286 97<24 272>
VStem: 53.4297 135.635<111.293 227.921>
LayerCount: 2
Fore
SplineSet
24 383 m 1xb0
 420 387 l 1
 416 275 l 1xd0
 20 286 l 1
 24 383 l 1xb0
189.064453125 111.29296875 m 5
 540.159179688 112.930664062 l 5
 536.5390625 0 l 5
 53.4296875 0 l 5
 74.4187518606 452.125433501 165.496678415 643.005046291 451.930664062 747.6640625 c 5
 488.798828125 639.354492188 l 5
 299.067835543 570.708196146 200.944357369 416.352364698 189.064453125 111.29296875 c 5
EndSplineSet
Validated: 5
EndChar

StartChar: braceleft
Encoding: 91 123 96
Width: 474
Flags: W
HStem: -199.681 48.1201<210.683 410.929> 277.602 46.4004<50.0254 166.082> 752.927 48.1201<214.387 410.753>
VStem: 113.34 53.2266<-109.79 61.9826 516.421 707.013> 182.296 43.4512<118.704 261.533 336.647 460.736>
LayerCount: 2
Fore
SplineSet
296.986328125 801.046875 m 0
 388.712128346 801.046875 442.4609375 763.2265625 442.4609375 763.2265625 c 1
 423.530273438 725.016601562 l 1
 423.530273438 725.016601562 376.930687405 752.926757812 310.157226562 752.926757812 c 0
 212.184039885 752.926757812 161.56640625 712.766484762 161.56640625 612 c 0
 161.56640625 528.380479115 228.350585938 475.300024232 228.350585938 387.743164062 c 0
 228.350585938 320.164604062 178.905273438 296.681640625 178.905273438 296.681640625 c 1
 178.905273438 296.681640625 225.747070312 276.810162193 225.747070312 204.143554688 c 0
 225.747070312 102.726975895 166.56640625 68.2866758942 166.56640625 -39 c 0
 166.56640625 -120.377189334 219.737538574 -151.560546875 307 -151.560546875 c 4
 390.174018954 -151.560546875 423.530273438 -123.650390625 423.530273438 -123.650390625 c 5
 442.4609375 -161.860351562 l 1
 442.4609375 -161.860351562 388.712128346 -199.680664062 296.986328125 -199.680664062 c 0
 179.15022949 -199.680664062 113.33984375 -145.895507812 113.33984375 -39 c 0
 113.33984375 68.4997648532 182.295898438 118.28413915 182.295898438 198.765625 c 0
 182.295898438 254.420042784 156.15930556 277.6015625 113.743164062 277.6015625 c 0
 81.4718841229 277.6015625 50 275.721679688 50 275.721679688 c 1
 50 328 l 1
 50 328 84.9048768862 324.001953125 118.982421875 324.001953125 c 0
 156.16695553 324.001953125 182.295898438 342.356668061 182.295898438 393.12109375 c 0
 182.295898438 463.240850967 113.33984375 493.804591507 113.33984375 622 c 0
 113.33984375 733.947265625 179.15022949 801.046875 296.986328125 801.046875 c 0
EndSplineSet
EndChar

StartChar: braceright
Encoding: 93 125 97
Width: 474
Flags: W
HStem: -199.681 48.1201<62.9121 259.32> 277.364 46.4004<313.262 423.975> 752.927 48.1201<62.9546 268.034>
VStem: 245.649 53.0547<135.385 266.983 337.323 487.617> 312.434 48.2266<-97.6718 71.1947 539.384 711.156>
LayerCount: 2
Fore
SplineSet
177.013671875 -199.680664062 m 0
 85.2878716539 -199.680664062 31.5390625 -161.860351562 31.5390625 -161.860351562 c 1
 50.4697265625 -123.650390625 l 1
 50.4697265625 -123.650390625 92.9590247152 -151.560546875 169 -151.560546875 c 0
 257.93803247 -151.560546875 312.43359375 -111.400273823 312.43359375 -10.6337890625 c 0
 312.43359375 72.9857318226 245.649414062 115.032847907 245.649414062 213.623046875 c 0
 245.649414062 281.201606877 295.094726562 304.684570312 295.094726562 304.684570312 c 1
 295.094726562 304.684570312 248.252929688 324.556048745 248.252929688 397.22265625 c 0
 248.252929688 498.639235041 312.43359375 533.079535042 312.43359375 640.366210938 c 4
 312.43359375 721.743400273 262.257447769 752.926757812 166.842773438 752.926757812 c 0
 88.0208008879 752.926757812 50.4697265625 725.016601562 50.4697265625 725.016601562 c 1
 31.5390625 763.2265625 l 1
 31.5390625 763.2265625 85.2878716539 801.046875 177.013671875 801.046875 c 0
 294.84977051 801.046875 360.66015625 747.26171875 360.66015625 640.366210938 c 0
 360.66015625 532.866446083 298.704101562 483.082071786 298.704101562 402.600585938 c 0
 298.704101562 346.946168154 322.171856327 323.764648438 360.256835938 323.764648438 c 0
 392.528115877 323.764648438 424 325.64453125 424 325.64453125 c 1
 424 273.366210938 l 1
 424 273.366210938 389.095123114 277.364257812 355.017578125 277.364257812 c 0
 321.944202943 277.364257812 298.704101562 259.009542879 298.704101562 208.245117188 c 0
 298.704101562 138.12535997 360.66015625 107.56161943 360.66015625 -20.6337890625 c 0
 360.66015625 -132.581054688 294.84977051 -199.680664062 177.013671875 -199.680664062 c 0
EndSplineSet
EndChar

StartChar: cent
Encoding: 96 162 98
Width: 391
Flags: W
HStem: 0 21G<198 295> 158.934 55.0664<205 286> 524 52.9336<203 284> 719 20G<194 291>
VStem: 40 109<291.542 442.474> 198 97<0 91.7143 610 739> 205 81<95.1111 214 524 660.818>
LayerCount: 2
Fore
SplineSet
295 0 m 1xfc
 198 0 l 1xfc
 205 214 l 1
 286 214 l 1xfa
 295 0 l 1xfc
194 739 m 1
 291 739 l 1
 284 524 l 1
 203 524 l 1
 194 739 l 1
40 369.93359375 m 0
 40 496.433681147 116.611027936 576.93359375 237 576.93359375 c 0
 341.501103034 576.93359375 385.916992188 534.782226562 385.916992188 534.782226562 c 1
 355.647460938 458.369140625 l 1
 355.647460938 458.369140625 315.47151381 481.93359375 253 481.93359375 c 0
 189.444055316 481.93359375 149 438.378664627 149 369.93359375 c 0
 149 296.599999999 185.548614644 249.93359375 265 249.93359375 c 0
 338.345425499 249.93359375 379.1484375 275.364257812 379.1484375 275.364257812 c 1
 401.146484375 191.31640625 l 1
 401.146484375 191.31640625 343.572391561 158.93359375 247 158.93359375 c 0
 120.499912603 158.93359375 40 240.988532903 40 369.93359375 c 0
EndSplineSet
Validated: 5
EndChar

StartChar: asciitilde
Encoding: 94 126 99
Width: 524
Flags: W
HStem: 240.96 221.04
LayerCount: 2
Fore
SplineSet
345.321289062 290.168945312 m 5
 479.98046875 402.280273438 l 1
 503.66015625 369 l 1
 339.280273438 240.959960938 l 5
 178.33984375 409.791015625 l 5
 44.6806640625 299.6796875 l 1
 21 329.959960938 l 1
 180.380859375 462 l 5
 345.321289062 290.168945312 l 5
EndSplineSet
EndChar

StartChar: numbersign
Encoding: 3 35 100
Width: 704
Flags: W
HStem: 223 42<114.5 629> 231 32<43 555.5> 475 42<157 661> 483 32<87 589> 718.008 20G<267.265 309 527.265 569>
LayerCount: 2
Fore
SplineSet
43 263 m 1x48
 631 265 l 1
 629 223 l 1x88
 41 231 l 1
 43 263 l 1x48
87 515 m 1x18
 663 517 l 1
 661 475 l 1x28
 85 483 l 1
 87 515 l 1x18
393 -1 m 1
 531 738.0078125 l 1
 569 732.0078125 l 1
 430 -7 l 1
 393 -1 l 1
133 -1 m 1
 271 738.0078125 l 1
 309 732.0078125 l 1
 171 -7 l 1
 133 -1 l 1
EndSplineSet
EndChar

StartChar: five.ss02
Encoding: 737 -1 101
Width: 581
Flags: W
HStem: -10.0664 108<122.633 355.252> 368.992 103.008<187.758 362.685> 619 112.008<189 399>
VStem: 406 93.0166<731.008 798.008> 420.917 119<157.193 312.291>
LayerCount: 2
Fore
SplineSet
499.016601562 618.0078125 m 1xf0
 189 619 l 1
 159 433 l 1
 159 433 198.107142858 472 305 472 c 4
 464.958306257 472 539.916992188 378.441422213 539.916992188 236.9921875 c 0
 539.916992188 65.1307174514 433.750426621 -10.06640625 266.916992188 -10.06640625 c 0
 99.2594696565 -10.06640625 28 44.0849609375 28 44.0849609375 c 1
 62 145 l 1
 62 145 142.620991595 97.93359375 254.916992188 97.93359375 c 0
 366.422486492 97.93359375 420.916992188 151.233948696 420.916992188 234.9921875 c 0xe8
 420.916992188 316.881076389 372.197460937 368.9921875 276.916992188 368.9921875 c 0
 188.495755025 368.9921875 135.2578125 308.43359375 135.2578125 308.43359375 c 1
 39 372 l 5
 100 731.0078125 l 1
 399 731.0078125 l 1
 406 798.0078125 l 1
 499.016601562 800.0078125 l 1
 499.016601562 618.0078125 l 1xf0
EndSplineSet
Substitution2: "'dnom' Denominators lookup 0 subtable" five.ss02.dnom
Substitution2: "'numr' Numerators lookup 0 subtable" five.ss02.numr
Substitution2: "'subs' Subscript lookup 0 subtable" five.ss02.subscript
Substitution2: "'sinf' Scientific Inferiors lookup 0 subtable" five.ss02.inferior
Substitution2: "'sups' Superscript lookup 0 subtable" five.ss02.superior
EndChar

StartChar: yen
Encoding: 99 165 102
Width: 704
Flags: W
HStem: 0 21G<366.83 419.159> 137.712 50<183 512.209> 255.712 59<404.866 596> 263.712 50<185 571.125>
VStem: 370.623 45.1113<0 287.155>
LayerCount: 2
Fore
SplineSet
183 187.711914062 m 1xc8
 404 186.711914062 l 1
 595 188.711914062 l 1
 594 129.711914062 l 1
 395 140 l 1
 182 137.711914062 l 1
 183 187.711914062 l 1xc8
185 313.711914062 m 1xd8
 406 309.711914062 l 5
 597 314.711914062 l 1
 596 255.711914062 l 1xe8
 397 263 l 1
 184 263.711914062 l 1
 185 313.711914062 l 1xd8
EndSplineSet
Refer: 69 89 N 1 0 0 1 0 0 2
EndChar

StartChar: brokenbar
Encoding: 100 166 103
Width: 246
Flags: W
VStem: 100 46.3291<-170 239.44 355.92 788.992>
LayerCount: 2
Back
SplineSet
188.022460938 355.919921875 m 5
 58.7568359375 355.919921875 l 5
 31.169921875 788.9921875 l 5
 215.899414062 788.9921875 l 5
 188.022460938 355.919921875 l 5
189.291015625 239.440429688 m 5
 221.329101562 -170 l 5
 25 -170 l 5
 57.31640625 239.440429688 l 5
 189.291015625 239.440429688 l 5
EndSplineSet
Fore
SplineSet
144.022460938 355.919921875 m 1
 102.756835938 355.919921875 l 1
 104.169921875 788.9921875 l 1
 142.899414062 788.9921875 l 1
 144.022460938 355.919921875 l 1
145.291015625 239.440429688 m 1
 146.329101562 -170 l 1
 100 -170 l 1
 101.31640625 239.440429688 l 1
 145.291015625 239.440429688 l 1
EndSplineSet
EndChar

StartChar: section
Encoding: 101 167 104
Width: 609
Flags: W
VStem: 115.253 124.099<536.189 623.249> 370.004 124.099<47.7507 134.823>
LayerCount: 2
Fore
SplineSet
69.890625 438.674804688 m 1
 119.677734375 352.695130739 202.060916271 319.721073427 326.131835938 278.893554688 c 0
 444.901783455 239.810405542 494.102539062 181.335397366 494.102539062 102.5 c 0
 494.102539062 -108.239257812 175.088867188 -114.163085938 175.088867188 -114.163085938 c 1
 156.552734375 -8.0234375 l 1
 156.552734375 -8.0234375 370.00390625 -7.52298347994 370.00390625 94.279296875 c 0
 370.00390625 125.897931955 339.691129991 161.446691159 198.58984375 205.873046875 c 4
 105.462499376 235.194597644 40 294.361626171 40 357.936523438 c 0
 40 402.8213103 69.890625 438.674804688 69.890625 438.674804688 c 1
539.46484375 232.325195312 m 1
 489.677734375 318.304869261 407.083446185 350.911556097 283.223632812 392.106445312 c 0
 164.295546159 431.661077448 115.252929688 489.664602634 115.252929688 568.5 c 0
 115.252929688 779.239257812 434.266601562 785.163085938 434.266601562 785.163085938 c 1
 452.802734375 679.0234375 l 1
 452.802734375 679.0234375 239.3515625 678.52298348 239.3515625 576.720703125 c 0
 239.3515625 545.102068045 269.664338759 509.553308841 410.765625 465.126953125 c 4
 503.892969374 435.805402356 569.35546875 376.638373829 569.35546875 313.063476562 c 4
 569.35546875 268.1786897 539.46484375 232.325195312 539.46484375 232.325195312 c 1
EndSplineSet
Validated: 1
EndChar

StartChar: currency
Encoding: 98 164 105
Width: 465
Flags: W
HStem: 153.532 98.9658<186.395 288.925> 461.688 98.9668<186.395 288.925>
VStem: 35.2803 95.9893<288.285 423.687> 333.991 95.9883<288.285 423.687>
LayerCount: 2
Fore
SplineSet
291.239257812 213.436523438 m 1
 359.889648438 246.325195312 l 1
 454.259765625 114.765625 l 1
 355.580078125 66.1455078125 l 1
 291.239257812 213.436523438 l 1
184.020507812 213.436523438 m 1
 119.6796875 66.1455078125 l 1
 11 114.765625 l 1
 105.370117188 246.325195312 l 1
 184.020507812 213.436523438 l 1
291.239257812 497.74609375 m 1
 355.580078125 645.036132812 l 1
 454.259765625 596.416015625 l 1
 359.889648438 464.856445312 l 1
 291.239257812 497.74609375 l 1
184.020507812 497.74609375 m 1
 105.370117188 464.856445312 l 1
 11 596.416015625 l 1
 119.6796875 645.036132812 l 1
 184.020507812 497.74609375 l 1
131.26953125 355.671875 m 0
 131.26953125 289.207770202 174.934834452 252.498046875 232.629882812 252.498046875 c 4
 290.329408297 252.498046875 333.991210938 289.207770202 333.991210938 355.671875 c 0
 333.991210938 422.702859512 290.329408297 461.688476562 232.629882812 461.688476562 c 0
 174.934834452 461.688476562 131.26953125 422.702859512 131.26953125 355.671875 c 0
35.2802734375 355.590820312 m 0
 35.2802734375 485.24609375 120.424854489 560.655273438 232.629882812 560.655273438 c 0
 344.834911135 560.655273438 429.979492188 485.24609375 429.979492188 355.590820312 c 0
 429.979492188 225.424804688 344.834911135 153.532226562 232.629882812 153.532226562 c 0
 120.424854489 153.532226562 35.2802734375 225.424804688 35.2802734375 355.590820312 c 0
EndSplineSet
Validated: 5
EndChar

StartChar: dieresis
Encoding: 102 168 106
Width: 450
Flags: W
HStem: 619.008 120<81.7076 178.292 271.708 368.292>
VStem: 70 120<630.715 727.3> 260 120<630.715 727.3>
LayerCount: 2
Fore
SplineSet
260 679.0078125 m 4
 260 715.67471591 283.33309659 739.0078125 320 739.0078125 c 4
 356.66690341 739.0078125 380 715.67471591 380 679.0078125 c 4
 380 642.34090909 356.66690341 619.0078125 320 619.0078125 c 4
 283.33309659 619.0078125 260 642.34090909 260 679.0078125 c 4
70 679.0078125 m 0
 70 715.67471591 93.333096591 739.0078125 130 739.0078125 c 0
 166.66690341 739.0078125 190 715.67471591 190 679.0078125 c 0
 190 642.34090909 166.66690341 619.0078125 130 619.0078125 c 0
 93.333096591 619.0078125 70 642.34090909 70 679.0078125 c 0
EndSplineSet
Validated: 1
EndChar

StartChar: guillemotleft
Encoding: 105 171 107
Width: 632
Flags: W
HStem: 491 20G<288.479 326.889>
LayerCount: 2
Fore
SplineSet
455.720703125 266.5 m 1
 611.69921875 129 l 1
 553.69921875 57 l 1
 311 260 l 1
 561.69921875 469 l 5
 611.69921875 400 l 5
 455.720703125 266.5 l 1
165.720703125 261.5 m 1
 371.69921875 81 l 1
 311.69921875 2 l 1
 11 252 l 1
 311.69921875 511 l 1
 371.69921875 432 l 1
 165.720703125 261.5 l 1
EndSplineSet
Validated: 1
EndChar

StartChar: guillemotright
Encoding: 121 187 108
Width: 632
Flags: W
HStem: 491 20G<304.81 344.056>
LayerCount: 2
Fore
SplineSet
175.978515625 246.5 m 1
 20 384 l 1
 78 456 l 1
 320.69921875 253 l 1
 70 44 l 5
 20 113 l 5
 175.978515625 246.5 l 1
465.978515625 251.5 m 1
 260 432 l 1
 320 511 l 1
 620.69921875 261 l 1
 320 2 l 1
 260 81 l 1
 465.978515625 251.5 l 1
EndSplineSet
Validated: 1
EndChar

StartChar: logicalnot
Encoding: 106 172 109
Width: 497
Flags: W
HStem: 289 91<48 355>
VStem: 351 102<158.824 283.966>
LayerCount: 2
Fore
SplineSet
48 380 m 1
 451 381 l 1
 453 156 l 1
 351 158.82421875 l 1
 355 283.965820312 l 1
 46 289 l 1
 48 380 l 1
EndSplineSet
Validated: 1
EndChar

StartChar: macron
Encoding: 109 175 111
Width: 330
Flags: W
HStem: 639.008 92<125 307> 650.008 77<23 203>
VStem: 23 286
LayerCount: 2
Fore
SplineSet
23 727.0078125 m 5x60
 309 731.0078125 l 5
 307 639.0078125 l 1xa0
 21 650.0078125 l 1
 23 727.0078125 l 5x60
EndSplineSet
Validated: 1
EndChar

StartChar: mu
Encoding: 115 181 112
Width: 633
Flags: W
HStem: -9.93164 43<177.471 357.239> 0 37.9268<487.849 599.38> 489.002 8G<82.8408 125.17 447.81 485.287>
VStem: 65 39<16.0772 418.957> 77 18<89.9639 175.235> 443.271 44.5781<153.068 497.002>
LayerCount: 2
Fore
SplineSet
104 225.068359375 m 0x34
 104 -7.93358531602 134 -182 134 -182 c 1
 92 -187 l 1
 92 -187 65 -6.66644428042 65 208.068359375 c 0
 65 356.067568079 82.8408203125 509.001953125 82.8408203125 509.001953125 c 1
 125.169921875 503.001953125 l 1
 125.169921875 503.001953125 104 360.826712738 104 225.068359375 c 0x34
256 -9.931640625 m 4xac
 160.157436125 -9.931640625 84.6602863366 67.6587669539 77 153.068359375 c 1
 95 210.068359375 l 1
 98.9917355372 89.9639058632 176.617368493 33.068359375 256 33.068359375 c 4
 343.106244287 33.068359375 441.538461539 67.3365358218 457 210.068359375 c 1
 475 153.068359375 l 1
 441.943396226 63.1125630605 393.488186108 -9.931640625 256 -9.931640625 c 4xac
443.270507812 0 m 1x64
 448 497.001953125 l 1
 485.169921875 497.001953125 l 1
 487.848632812 37.9267578125 l 1
 603 39.9306640625 l 1
 599.379882812 0 l 1
 443.270507812 0 l 1x64
EndSplineSet
EndChar

StartChar: acute
Encoding: 114 180 113
Width: 230
Flags: W
HStem: 526.72 213.784
VStem: 11 208.518
LayerCount: 2
Fore
SplineSet
183.840820312 740.50390625 m 1
 219.517578125 704.18359375 l 1
 34.4375 526.719726562 l 1
 11 552.465820312 l 5
 183.840820312 740.50390625 l 1
EndSplineSet
EndChar

StartChar: plusminus
Encoding: 111 177 114
Width: 450
Flags: W
HStem: 114 96<223 430> 126 81<21 258.333> 170.5 32.5<167.5 276.5> 363 94<21 275>
VStem: 184.5 85<324.618 587.25>
LayerCount: 2
Fore
SplineSet
21 457 m 1x18
 223 454 l 1
 432 460 l 1
 431 351 l 1
 223 367 l 1
 19 363 l 1
 21 457 l 1x18
277.5 609.5 m 1
 269.5 431.5 l 1
 276.5 168.5 l 1
 167.5 170.5 l 1x38
 184.5 432.5 l 1
 176.5 612.5 l 1
 277.5 609.5 l 1
21 207 m 1x58
 223 203 l 1x38
 432 210 l 1
 430 114 l 1x98
 18 126 l 1
 21 207 l 1x58
EndSplineSet
Validated: 5
EndChar

StartChar: copyright
Encoding: 103 169 116
Width: 795
Flags: W
HStem: -10.0664 70.877<278.885 517.541> 139.745 84.6001<340.459 516.883> 507.881 81.2998<346.277 508.543> 670.64 68.2939<278.885 517.541>
VStem: 30 78<235.702 490.594> 192.729 94.4998<280.053 446.895> 694.117 70.8828<235.702 490.594>
LayerCount: 2
Fore
SplineSet
192.729492188 362.9453125 m 4
 192.729492188 501.200345084 277.196143106 589.180664062 409.9296875 589.180664062 c 4
 514.734375589 589.180664062 559.279296875 543.489257812 559.279296875 543.489257812 c 5
 527.017578125 474.092041016 l 5
 527.017578125 474.092041016 486.590892052 507.880859375 423.729492188 507.880859375 c 4
 340.312165593 507.880859375 287.229248047 451.517846236 287.229248047 362.9453125 c 4
 287.229248047 278.244952039 331.990333902 224.345214844 419.529296875 224.345214844 c 4
 499.641426676 224.345214844 540.21875 260.303955078 540.21875 260.303955078 c 5
 568.416992188 181.674804688 l 5
 568.416992188 181.674804688 528.322264902 139.745117188 403.9296875 139.745117188 c 4
 274.862812306 139.745117188 192.729492188 226.544541099 192.729492188 362.9453125 c 4
30 361.93359375 m 0
 30 592.322641811 172.722067272 738.93359375 397 738.93359375 c 0
 621.889353198 738.93359375 765 592.322641811 765 361.93359375 c 0
 765 134.599173678 621.889353198 -10.06640625 397 -10.06640625 c 0
 172.722067272 -10.06640625 30 134.599173678 30 361.93359375 c 0
108 361.93359375 m 0
 108 177.913558157 220.776770833 60.810546875 398 60.810546875 c 0
 578.96098092 60.810546875 694.1171875 177.913558157 694.1171875 361.93359375 c 0
 694.1171875 550.588786913 578.96098092 670.639648438 398 670.639648438 c 0
 220.776770833 670.639648438 108 550.588786913 108 361.93359375 c 0
EndSplineSet
EndChar

StartChar: registered
Encoding: 108 174 117
Width: 795
Flags: W
HStem: -10.0664 70.877<278.885 517.541> 500.693 83.1006<353.33 474.034> 500.693 30.7549<310 350.356> 670.64 68.2939<278.885 517.541>
VStem: 30 78<235.702 490.594> 261.616 90.7393<140.398 307.008 359.925 531.448> 498.554 89.2502<372.334 475.121> 694.117 70.8828<235.702 490.594>
LayerCount: 2
Fore
SplineSet
352.35546875 140.3984375 m 5xbf
 261.616210938 140.3984375 l 5
 265.318359375 531.448242188 l 5
 350.356445312 531.448242188 l 5
 352.35546875 140.3984375 l 5xbf
338.971679688 359.924804688 m 5
 338.971679688 359.924804688 354.63816805 347.358398438 403.754638672 347.358398438 c 4
 464.044445434 347.358398438 498.554443359 380.317817032 498.554443359 423.558837891 c 4
 498.554443359 471.226172283 464.965837042 500.693359375 392.25390625 500.693359375 c 4
 310.000321653 500.693359375 205.515625 461.504882812 205.515625 461.504882812 c 5
 185.25390625 543.802734375 l 5
 185.25390625 543.802734375 249.484186397 583.793945312 400.604492188 583.793945312 c 4xdf
 515.004806858 583.793945312 587.8046875 523.346725276 587.8046875 428.358398438 c 4
 587.8046875 355.528314065 542.004312459 319.659644984 507.523925781 303.067138672 c 4
 485.976921933 292.775357231 468.297851562 289.822753906 468.297851562 289.822753906 c 5
 599.016601562 194.198730469 l 5
 545.916015625 120.698242188 l 5
 314.108398438 307.008300781 l 5
 338.971679688 359.924804688 l 5
30 361.93359375 m 0
 30 592.322641811 172.722067272 738.93359375 397 738.93359375 c 0
 621.889353198 738.93359375 765 592.322641811 765 361.93359375 c 0
 765 134.599173678 621.889353198 -10.06640625 397 -10.06640625 c 0
 172.722067272 -10.06640625 30 134.599173678 30 361.93359375 c 0
108 361.93359375 m 0
 108 177.913558157 220.776770833 60.810546875 398 60.810546875 c 0
 578.96098092 60.810546875 694.1171875 177.913558157 694.1171875 361.93359375 c 0
 694.1171875 550.588786913 578.96098092 670.639648438 398 670.639648438 c 0
 220.776770833 670.639648438 108 550.588786913 108 361.93359375 c 0
EndSplineSet
EndChar

StartChar: degree
Encoding: 110 176 118
Width: 429
Flags: W
HStem: 386.113 37.3027<143.625 285.632> 701.593 37.3994<143.625 285.632>
VStem: 46 36.3838<486.593 639.421> 347.184 36.416<486.593 637.424>
LayerCount: 2
Fore
SplineSet
82.3837890625 563.416015625 m 4
 82.3837890625 477.861816406 133.752254162 423.416015625 214.479492188 423.416015625 c 4
 295.576590964 423.416015625 347.18359375 477.861816406 347.18359375 563.416015625 c 4
 347.18359375 647.858336226 295.576590964 701.592773438 214.479492188 701.592773438 c 0
 133.752254162 701.592773438 82.3837890625 647.858336226 82.3837890625 563.416015625 c 4
46 563.512695312 m 4
 46 670.750112515 111.519755517 738.9921875 214.479492188 738.9921875 c 0
 317.830815985 738.9921875 383.599609375 670.750112515 383.599609375 563.512695312 c 4
 383.599609375 455.101489709 317.830815985 386.11328125 214.479492188 386.11328125 c 4
 111.519755517 386.11328125 46 455.101489709 46 563.512695312 c 4
EndSplineSet
EndChar

StartChar: AE
Encoding: 132 198 119
Width: 960
Flags: W
HStem: 0 111.48<619.018 926.539> 168 112<262.5 574> 308 112<562.5 874> 316 103<522 829.5> 613.08 117.928<219 487.996 616.104 918.729>
VStem: 518 101.018<316 419>
AnchorPoint: "Anchor-2" 538 0 basechar 0
AnchorPoint: "Anchor-2" 538 0 basechar 0
AnchorPoint: "Anchor-0" 536 731.008 basechar 0
LayerCount: 2
Fore
SplineSet
252 279 m 1xcc
 578 280 l 1
 574 168 l 1
 218 176 l 1
 252 279 l 1xcc
918.729492188 731.010742188 m 1
 924.61328125 614 l 1
 616.103515625 618 l 1
 619.017578125 111.48046875 l 1
 659.064453125 111.29296875 l 1
 930.159179688 112.930664062 l 1
 926.5390625 0 l 1
 483.4296875 0 l 1
 488.151367188 620.083984375 l 1
 210 613.080078125 l 5
 219 731.0078125 l 5
 918.729492188 731.010742188 l 1
522 419 m 1xdc
 878 420 l 1
 874 308 l 1xec
 518 316 l 1
 522 419 l 1xdc
552 645 m 1
 120.819335938 -15 l 1
 10.2734375 65 l 1
 467 703 l 1
 552 645 l 1
EndSplineSet
Validated: 5
EndChar

StartChar: ae
Encoding: 164 230 120
Width: 880
Flags: W
HStem: -23.9004 44.8008<606.042 771.819> -10.0664 93<169.993 322.949> 218 40<414 816> 253.934 83<169.03 324.027> 464.934 42<529.218 721.249> 501 20G<169.484 173>
VStem: 30 104<115.59 221.367> 367 85<138.148 292.201> 385 47<154.599 367.918> 817 43.6191<241.511 371.674>
AnchorPoint: "Anchor-0" 439 496.019 basechar 0
AnchorPoint: "Anchor-2" 440 0 basechar 0
LayerCount: 2
Fore
SplineSet
359 170.93359375 m 0x5240
 359 218.959260761 315.444263061 253.93359375 247 253.93359375 c 0
 177.944264132 253.93359375 134 218.959260761 134 170.93359375 c 0
 134 117.914601292 177.944264132 82.93359375 247 82.93359375 c 0
 315.444263061 82.93359375 359 117.914601292 359 170.93359375 c 0x5240
452 153.93359375 m 0x5340
 452 100.162245009 393.251277044 -10.06640625 238 -10.06640625 c 0
 110.888671875 -10.06640625 30 58.7666015625 30 166.93359375 c 0
 30 270.823242188 106.99920005 336.93359375 228 336.93359375 c 0
 383.249927391 336.93359375 452 228.806433766 452 153.93359375 c 0x5340
473.848632812 150.926757812 m 1
 362.270507812 151 l 1
 362.270507812 151 367 244.29296875 367 298 c 4
 367 420.300039557 157 430 157 430 c 1
 173 521 l 1x0740
 173 521 471.169921875 513.875646888 471.169921875 297.001953125 c 0
 471.169921875 241.854141501 473.848632812 150.926757812 473.848632812 150.926757812 c 1
EndSplineSet
Refer: 9 101 N 1 0 0 1 350 0 2
EndChar

StartChar: cedilla
Encoding: 118 184 121
Width: 227
Flags: W
HStem: -248 65<12 104.987> -102 122<37 91.9026>
VStem: 113 84<-170.839 -111.58>
LayerCount: 2
Fore
SplineSet
37 20 m 1
 110 17 l 1
 92 -47 l 1
 92 -47 197 -53.2707866846 197 -136 c 0
 197 -216.730463477 134.081218274 -242 12 -248 c 1
 6 -183 l 1
 81.8727272727 -182.427272728 113 -171.049688924 113 -141 c 0
 113 -114.731404959 90.3271759564 -103.552508047 23 -102 c 1
 13 -67 l 1
 37 20 l 1
EndSplineSet
Validated: 1
EndChar

StartChar: paragraph
Encoding: 116 182 124
Width: 823
Flags: W
HStem: 610.992 128<422.6 520 644.261 679.138>
VStem: 40 382.6<375.734 596.107> 287 135.6<-173.994 68.0812> 299 123.6<-1.08317 243.185> 520 134<-173.994 387.019> 520 124.261<45.5431 606.557>
LayerCount: 2
Fore
SplineSet
783 714.984375 m 1xc0
 772 597.984375 l 1
 772 597.984375 691.739419415 605.9921875 644.260742188 606.556640625 c 1xc4
 654 -173.994140625 l 5
 520 -173.994140625 l 1x88
 520 610.9921875 l 1
 422.599609375 610.9921875 l 1x94
 422.599609375 -173.994140625 l 1
 287 -173.994140625 l 1xa0
 299 240.9921875 l 1x90
 147.281312655 253.871308694 40 324.077035731 40 485.9921875 c 0
 40 667.805875713 159.999936311 738.9921875 388 738.9921875 c 0
 637.701797877 738.9921875 783 714.984375 783 714.984375 c 1xc0
EndSplineSet
Validated: 1
EndChar

StartChar: Eth
Encoding: 142 208 125
Width: 783
Flags: W
HStem: -10.0664 50<219.91 511.559> 334 41<34 458> 694.992 44<192.133 504.518>
VStem: 173.94 41.7295<61.8467 684.25> 686.917 47<223.27 503.942>
AnchorPoint: "Anchor-0" 386 731.008 basechar 0
AnchorPoint: "Anchor-2" 399 0 basechar 0
AnchorPoint: "Anchor-2" 399 0 basechar 0
LayerCount: 2
Fore
SplineSet
34 375 m 1
 460 377 l 1
 458 328 l 1
 32 334 l 1
 34 375 l 1
EndSplineSet
Refer: 57 68 N 1 0 0 1 0 0 2
EndChar

StartChar: eth
Encoding: 174 240 126
Width: 585
Flags: W
HStem: -10.0664 104.925<209.768 366.136> 398.009 108.925<206.032 369.694> 516.966 21G<180.923 227.455>
VStem: 30 112.375<165.262 333.421> 432.625 122.375<162.968 331.054>
AnchorPoint: "Anchor-0" 240 755.01 basechar 0
AnchorPoint: "Anchor-2" 287 0 basechar 0
LayerCount: 2
Fore
SplineSet
143.401367188 616.420898438 m 1
 306.440429688 684.025390625 l 1
 460.33984375 774.794921875 l 1
 513.955078125 661.89453125 l 1
 344.1171875 599.879882812 l 1
 190.368164062 516.965820312 l 1
 143.401367188 616.420898438 l 1
142.375 252.858398438 m 0
 142.375 156.302662417 198.62754988 94.8583984375 287.025390625 94.8583984375 c 0
 376.003307645 94.8583984375 432.625 156.302662417 432.625 252.858398438 c 4
 432.625 341.561927673 376.003307645 398.008789062 287.025390625 398.008789062 c 0
 198.62754988 398.008789062 142.375 341.561927673 142.375 252.858398438 c 0
30 249.93359375 m 0
 30 406.989257812 124.111008938 506.93359375 272 506.93359375 c 0
 378.789586976 506.93359375 409.90234375 467.057617188 409.90234375 467.057617188 c 1
 366.754641409 637.715281556 202.021484375 708.267578125 202.021484375 708.267578125 c 1
 311.770507812 782.510742188 l 1
 311.770507812 782.510742188 555 639.959487241 555 312 c 0
 555 76.5609773511 450.778115916 -10.06640625 287 -10.06640625 c 0
 129.944335938 -10.06640625 30 91.0439453125 30 249.93359375 c 0
EndSplineSet
Validated: 5
EndChar

StartChar: multiply
Encoding: 149 215 127
Width: 450
Flags: W
LayerCount: 2
Fore
SplineSet
353.034179688 568.0859375 m 1
 429 496.36328125 l 1
 262.42578125 335.126953125 l 5
 104.036132812 158.670898438 l 1
 23.12109375 236.7578125 l 1
 201.318359375 397.094726562 l 5
 353.034179688 568.0859375 l 1
99.0869140625 568.0859375 m 1
 260.802734375 397.094726562 l 5
 429 236.7578125 l 1
 348.084960938 158.670898438 l 1
 194.6953125 335.126953125 l 5
 23.12109375 496.36328125 l 1
 99.0869140625 568.0859375 l 1
EndSplineSet
Validated: 5
EndChar

StartChar: divide
Encoding: 181 247 128
Width: 450
Flags: W
HStem: 153 140<171.743 278.257> 324 94<40 411> 446 140<171.743 278.257>
VStem: 155 140<169.743 276.257 462.743 569.257>
LayerCount: 2
Fore
SplineSet
155 516 m 0
 155 558.778320312 182.222222222 586 225 586 c 0
 267.777777778 586 295 558.778320312 295 516 c 0
 295 473.221679688 267.777777778 446 225 446 c 0
 182.222222222 446 155 473.221679688 155 516 c 0
39 418 m 1
 415 422 l 1
 411 320 l 1
 40 324 l 1
 39 418 l 1
155 223 m 0
 155 265.778320312 182.222222222 293 225 293 c 0
 267.777777778 293 295 265.778320312 295 223 c 0
 295 180.221679688 267.777777778 153 225 153 c 0
 182.222222222 153 155 180.221679688 155 223 c 0
EndSplineSet
Validated: 1
EndChar

StartChar: Oslash
Encoding: 150 216 129
Width: 785
Flags: W
HStem: -10.0664 49.3506<272.285 505.621> 689.583 49.3506<276.424 505.621>
VStem: 46 47.4873<230.927 494.696> 691.513 47.4873<234.663 490.897>
AnchorPoint: "Anchor-0" 377 731.008 basechar 0
AnchorPoint: "Anchor-0" 377 731.008 basechar 0
AnchorPoint: "Anchor-2" 377 0 basechar 0
AnchorPoint: "Anchor-2" 377 0 basechar 0
LayerCount: 2
Fore
SplineSet
715.94921875 726.93359375 m 5
 437.330078125 349.799804688 l 5
 190.37890625 -81 l 5
 79.05078125 -17 l 5
 361.529296875 378.200195312 l 5
 611.220703125 793.93359375 l 5
 715.94921875 726.93359375 l 5
EndSplineSet
Refer: 43 79 N 1 0 0 1 0 0 2
EndChar

StartChar: oslash
Encoding: 182 248 130
Width: 565
Flags: W
HStem: -10.0664 43.9248<185.462 378.942> 463.009 43.9248<185.462 378.942>
VStem: 35 46.375<141.773 356.681> 482.625 48.375<141.773 356.681>
AnchorPoint: "Anchor-0" 277 496.019 basechar 0
AnchorPoint: "Anchor-2" 278 0 basechar 0
LayerCount: 2
Fore
SplineSet
508.0390625 498.638671875 m 5
 315.294921875 234.815429688 l 5
 142.185546875 -52.2802734375 l 5
 56.9609375 3.599609375 l 5
 252.09765625 268.624023438 l 5
 426.90625 556.37890625 l 5
 508.0390625 498.638671875 l 5
EndSplineSet
Refer: 3 111 N 1 0 0 1 0 0 2
EndChar

StartChar: Thorn
Encoding: 156 222 131
Width: 714
Flags: W
HStem: 0 21G<143.958 280.287> 124.934 109<301.68 503.31> 499.992 110<298.671 502.814> 620.084 110.927<33.748 148.279>
VStem: 143.958 136.329<0 179.434 274.877 458.428 555.841 620.084> 558.917 123<286.714 445.23>
LayerCount: 2
Fore
SplineSet
264.196289062 274.876953125 m 5
 264.196289062 274.876953125 305.649926381 233.93359375 412.916992188 233.93359375 c 4
 508.609780365 233.93359375 558.916992188 282.114299369 558.916992188 359.93359375 c 0
 558.916992188 453.715092443 511.234470273 499.9921875 405.916992188 499.9921875 c 0
 321.558413476 499.9921875 259.26953125 458.427734375 259.26953125 458.427734375 c 1
 228 555.840820312 l 1
 228 555.840820312 300.746451066 609.9921875 416.916992188 609.9921875 c 0
 580.403490822 609.9921875 681.916992188 517.142383873 681.916992188 354.93359375 c 0
 681.916992188 215.441813151 584.450124288 124.93359375 426.916992188 124.93359375 c 4
 307.286877798 124.93359375 235.2578125 179.43359375 235.2578125 179.43359375 c 5
 264.196289062 274.876953125 l 5
274.857421875 731.010742188 m 1
 280.287109375 0 l 1
 143.958007812 0 l 1
 148.279296875 620.083984375 l 1
 30.1279296875 618.080078125 l 1
 33.748046875 731.010742188 l 1
 274.857421875 731.010742188 l 1
EndSplineSet
Validated: 5
EndChar

StartChar: thorn
Encoding: 188 254 132
Width: 662
Flags: W
HStem: -10.0664 100<290.932 452.633> 406.934 100<291.519 452.633> 674.084 90.9268<13.6201 108.151>
VStem: 108.151 106.578<-174 674.084> 157 63.1592<96.6305 393.812> 521 111<160.078 338.427>
LayerCount: 2
Fore
SplineSet
224 249.93359375 m 0xe4
 224 152.15546875 281.555001795 89.93359375 372 89.93359375 c 0
 463.056474165 89.93359375 521 152.15546875 521 249.93359375 c 0
 521 345.878916317 463.056474165 406.93359375 372 406.93359375 c 0
 281.555001795 406.93359375 224 345.878916317 224 249.93359375 c 0xe4
157 262.93359375 m 4xec
 157 393.81162619 239.166144686 506.93359375 394 506.93359375 c 0
 539.445124041 506.93359375 632 406.989257812 632 249.93359375 c 0
 632 91.0439453125 539.445124041 -10.06640625 394 -10.06640625 c 0
 249.166213519 -10.06640625 157 96.630460435 157 262.93359375 c 4xec
214.729492188 765.010742188 m 1xf4
 220.159179688 -174 l 1xec
 103.830078125 -174 l 1
 108.151367188 674.083984375 l 1
 10 672.080078125 l 1
 13.6201171875 765.010742188 l 1
 214.729492188 765.010742188 l 1xf4
EndSplineSet
Validated: 5
EndChar

StartChar: kgreenlandic
Encoding: 246 312 133
Width: 608
Flags: W
HStem: 0 21G<133.83 250.159> 406.084 90.9268<13.6201 138.151> 494 20G<459.76 502.739>
VStem: 133.83 116.329<0 406.084>
AnchorPoint: "Anchor-2" 368 0 basechar 0
AnchorPoint: "Anchor-0" 354 497.019 basechar 0
LayerCount: 2
Fore
SplineSet
481 514 m 1xb0
 556 445 l 1
 346 255 l 1
 578 67 l 1
 501 -17 l 5
 207 256 l 1
 481 514 l 1xb0
244.729492188 497.010742188 m 1xd0
 250.159179688 0 l 1
 133.830078125 0 l 1
 138.151367188 406.083984375 l 1
 10 404.080078125 l 1
 13.6201171875 497.010742188 l 1
 244.729492188 497.010742188 l 1xd0
EndSplineSet
Validated: 5
EndChar

StartChar: Eng
Encoding: 264 330 134
Width: 830
Flags: W
HStem: 0 21G<143.83 280.159> 619.992 119<366.546 554.525> 620.084 110.927<33.6201 148.151>
VStem: 143.83 136.329<0 445.992> 633.872 132<121.797 533.074>
LayerCount: 2
Back
SplineSet
242.872070312 445.9921875 m 1xb8
 269.833984375 629.037109375 354.87109375 738.9921875 530.872070312 738.9921875 c 0
 688.88671875 738.9921875 785.872070312 652.708007812 785.872070312 430.9921875 c 0
 785.872070312 211.653320312 768.03125 -15 768.03125 -15 c 1
 546.702148438 0 l 1
 546.702148438 0 566.872070312 216.249023438 566.872070312 393.9921875 c 0
 566.872070312 495.55078125 538.45703125 553.9921875 457.872070312 553.9921875 c 0
 375.891601562 553.9921875 326.822265625 510.404296875 300.872070312 398.9921875 c 1
 242.872070312 445.9921875 l 1xb8
334.729492188 731.010742188 m 1
 340.159179688 0 l 1
 123.830078125 0 l 1
 128.151367188 560.083984375 l 1
 10 558.080078125 l 1
 13.6201171875 731.010742188 l 1
 334.729492188 731.010742188 l 1
EndSplineSet
Fore
SplineSet
182.872070312 445.9921875 m 1xd8
 211.706721608 629.037109375 302.649032965 738.9921875 490.872070312 738.9921875 c 0
 651.279733211 738.9921875 765.872070312 652.708007812 765.872070312 430.9921875 c 0
 765.872070312 274.59375 751.301757812 29.9814453125 751.301757812 29.9814453125 c 1
 579.142578125 -187.018554688 l 1
 471.142578125 -110.018554688 l 1
 620.97265625 59.9814453125 l 5
 620.97265625 59.9814453125 633.872070312 269.827925468 633.872070312 403.9921875 c 0
 633.872070312 541.096289062 588.512984237 619.9921875 459.872070312 619.9921875 c 0
 345.517176594 619.9921875 277.069906012 557.844291835 240.872070312 398.9921875 c 1
 182.872070312 445.9921875 l 1xd8
274.729492188 731.010742188 m 1xb8
 280.159179688 0 l 1
 143.830078125 0 l 1
 148.151367188 620.083984375 l 1
 30 618.080078125 l 1
 33.6201171875 731.010742188 l 1
 274.729492188 731.010742188 l 1xb8
EndSplineSet
EndChar

StartChar: eng
Encoding: 265 331 135
Width: 633
Flags: W
HStem: 0 21G<123.83 240.159> 406.075 90.9268<13.6201 128.151> 407.934 99<297.462 433.849>
VStem: 123.83 116.329<0 253.934> 476 112<16.0035 361.697>
LayerCount: 2
Back
SplineSet
188 253.93359375 m 5xb8
 210.000338808 411.989257812 279.388472577 506.93359375 423 506.93359375 c 4
 558.0703125 506.93359375 628 429.158131451 628 278.93359375 c 4
 628 134.376986611 610.159179688 -15 610.159179688 -15 c 5
 415.830078125 0 l 5
 415.830078125 0 436 138.277935542 436 251.93359375 c 4
 436 312.868913517 418.012695312 347.93359375 367 347.93359375 c 4
 307.390237894 347.93359375 282.693825662 311.094726562 266 216.93359375 c 5
 188 253.93359375 l 5xb8
EndSplineSet
Fore
SplineSet
476 251.93359375 m 0xb8
 476 350.953488371 447.585272304 407.93359375 367 407.93359375 c 0
 283.782411317 407.93359375 249.305241766 354.221962964 226 216.93359375 c 1
 168 253.93359375 l 1
 189.064154178 411.989257812 255.499601404 506.93359375 393 506.93359375 c 0
 521.481516768 506.93359375 588 429.158131451 588 278.93359375 c 0
 588 170.142989767 572.159179688 0 572.159179688 0 c 1
 441 -184 l 5
 343 -118 l 1
 457.830078125 18 l 1
 457.830078125 18 476 160.698425479 476 251.93359375 c 0xb8
234.729492188 497.001953125 m 1xd8
 240.159179688 0 l 1
 123.830078125 0 l 1
 128.151367188 406.075195312 l 1
 10 404.071289062 l 1
 13.6201171875 497.001953125 l 1
 234.729492188 497.001953125 l 1xd8
EndSplineSet
Validated: 5
EndChar

StartChar: OE
Encoding: 272 338 136
Width: 1115
Flags: W
HStem: -10.0664 49.3506<272.285 505.621> 0 111.293<774.064 1081.54> 308 112<717.5 1029> 316 103<677 984.5> 618 113.011<771.104 1073.73> 689.583 49.3506<276.424 505.621>
VStem: 46 47.4873<230.927 494.696> 673 101.018<316 419> 691.513 47.4873<234.663 490.897>
LayerCount: 2
Fore
SplineSet
677 419 m 1x13
 1033 420 l 5
 1029 308 l 5x23
 673 316 l 1
 677 419 l 1x13
1073.72949219 731.010742188 m 5x4b
 1079.61328125 614 l 5
 771.103515625 618 l 5
 774.017578125 111.48046875 l 5
 774.064453125 111.29296875 l 5
 1085.15917969 112.930664062 l 5
 1081.5390625 0 l 5
 638.4296875 0 l 1
 643.151367188 731.010742188 l 1
 1073.72949219 731.010742188 l 5x4b
EndSplineSet
Refer: 43 79 N 1 0 0 1 0 0 2
EndChar

StartChar: longs
Encoding: 317 383 138
Width: 401
Flags: W
HStem: 0 21G<133.335 248.637> 401 96<30 187> 696.374 101.47<296.766 343.31>
VStem: 114.869 113.533<391.252 637.735> 135.984 108.653<0 563.944> 135.994 51.0059<406 493>
AnchorPoint: "Anchor-2" 208 0 basechar 0
AnchorPoint: "Anchor-0" 254 765.01 basechar 0
LayerCount: 2
Fore
SplineSet
135.984375 412.096679688 m 2xe8
 135.99091194 413.106858318 135.994140625 414.107770821 135.994140625 415.099609375 c 0xe4
 135.994140625 495.588735002 114.869140625 516.320449633 114.869140625 580 c 0
 114.869140625 711.412976765 197.189297229 767.86158329 342.01953125 797.84375 c 5
 360.7265625 696.374023438 l 1
 264.448095983 674.387342781 228.40234375 636.752655962 228.40234375 566 c 0xf0
 228.40234375 522.090982389 243.871883933 481.46665868 244.637695312 399.96484375 c 2
 248.63671875 0 l 1
 133.334960938 0 l 1
 135.984375 412.096679688 l 2xe8
187 406 m 1
 27 401 l 1
 30 497 l 1
 190 493 l 1
 187 406 l 1
EndSplineSet
Validated: 5
EndChar

StartChar: uni018F
Encoding: 318 399 139
Width: 761
Flags: W
HStem: -9.99805 119<277.903 480.37> 317.566 112.587<173.162 612.81> 632.63 122.048<169.663 370.222>
VStem: 40 132<208.164 354.504>
LayerCount: 2
Back
SplineSet
20 361.93359375 m 0
 20 592.358449127 162.722067273 738.9921875 387 738.9921875 c 0
 692.703602516 738.9921875 740.809570312 528.036293548 740.809570312 395.250976562 c 0
 740.809570312 330.260178936 729.916992188 282.840820312 729.916992188 282.840820312 c 5
 148 284 l 5
 137 441 l 1
 505.647460938 445.427734375 l 1
 505.647460938 445.427734375 494.816386769 543.9921875 381 543.9921875 c 0
 300.33283944 543.9921875 249 476.30370791 249 369.93359375 c 0
 249 231.45533579 353.417075805 194.391339376 594.1484375 183.364257812 c 1
 571.146484375 -25.68359375 l 1
 248.292348682 -22.428262906 20 98.1280331654 20 361.93359375 c 0
EndSplineSet
Fore
SplineSet
720.809570312 357.060546875 m 4
 720.809570312 132.746806831 588.198603174 -9.998046875 379.809570312 -9.998046875 c 4
 86.2024479213 -9.998046875 40 194.820791431 40 323.743164062 c 4
 40 385.265015478 50.892578125 430.153320312 50.892578125 430.153320312 c 5
 612.809570312 428.994140625 l 5
 623.809570312 321.994140625 l 5
 173.162109375 317.56640625 l 5
 173.162109375 317.56640625 172 309.690203879 172 300 c 4
 172 206.142038489 228.481172444 109.001953125 382.809570312 109.001953125 c 4
 506.865885416 109.001953125 585.809570312 192.356730234 585.809570312 349.060546875 c 4
 585.809570312 559.535582627 476.887724325 622.86966774 159.661132812 632.629882812 c 5
 169.663085938 754.677734375 l 5
 512.51722163 751.338420391 720.809570312 627.671934681 720.809570312 357.060546875 c 4
EndSplineSet
Validated: 5
EndChar

StartChar: ordfeminine
Encoding: 104 170 140
Width: 468
Flags: W
HStem: 282 74<60 421> 402 80<138.944 260.726> 410 73<388 449> 668 80<139.731 260.193>
VStem: 23 87<510.345 638.596> 288 100<517.385 631.444> 296 90<579 741> 296 46<483.761 682.215>
LayerCount: 2
Fore
SplineSet
59 356 m 5x98
 425 360 l 5
 421 278 l 1
 60 282 l 1
 59 356 l 5x98
288 574 m 0xdc
 288 631.444444444 254.620689655 668 200 668 c 0
 146 668 110 631.444444444 110 574 c 0
 110 517.384615385 146 482 200 482 c 0
 254.620689655 482 288 517.384615385 288 574 c 0xdc
342 579 m 0xd9
 342 483.76142132 285 402 178 402 c 0
 83.1212121212 402 23 469 23 574 c 0
 23 680 83.1212121212 748 178 748 c 0
 278 748 342 682.214765101 342 579 c 0xd9
293 410 m 1xbc
 296 741 l 1
 386 741 l 1xba
 388 483 l 1
 451 485 l 1
 449 410 l 1
 293 410 l 1xbc
EndSplineSet
Validated: 5
EndChar

StartChar: ordmasculine
Encoding: 120 186 141
Width: 399
Flags: W
HStem: 282 74<30 365> 403 84<137.975 260.933> 664 84<137.975 260.933>
VStem: 23 87<515.701 636.456> 289 87<513.624 636.456>
LayerCount: 2
Fore
SplineSet
29 356 m 5
 369 360 l 5
 365 278 l 1
 30 282 l 1
 29 356 l 5
110 576 m 0
 110 521.510204082 145.357142857 487 200 487 c 0
 255.018181818 487 289 521.510204082 289 576 c 0
 289 629.166666667 255.018181818 664 200 664 c 0
 145.357142857 664 110 629.166666667 110 576 c 0
23 577 m 0
 23 682 91.1290322581 748 199 748 c 0
 306.903743316 748 376 682 376 577 c 0
 376 471 306.903743316 403 199 403 c 0
 91.1290322581 403 23 471 23 577 c 0
EndSplineSet
Validated: 1
EndChar

StartChar: germandbls
Encoding: 157 223 142
Width: 688
Flags: W
HStem: 0 21G<133.335 248.637> 401 96<30 189> 674.374 100.47<273.456 456.397>
VStem: 114.869 113.533<391.648 632.235> 133.335 115.302<0 563.944> 136.002 52.998<406 493> 340 112.432<324.716 393.429> 509.509 107.491<506.474 626.32> 534.438 113.852<117.655 192.042>
LayerCount: 2
Fore
SplineSet
190 493 m 1xe6
 189 406 l 1
 27 401 l 1
 30 497 l 1
 190 493 l 1xe6
135.984375 412.096679688 m 2
 135.995907697 413.890505028 136.001953125 415.655786034 136.001953125 417.393554688 c 0xe6
 136.001953125 496.02844417 114.869140625 516.944537403 114.869140625 580 c 0
 114.869140625 697.538360368 204.393268411 774.84375 362.01953125 774.84375 c 0
 515.310916931 774.84375 617 704.456715858 617 546.93359375 c 0xf3
 617 478.752165039 594.232421875 426.700195312 594.232421875 426.700195312 c 1
 594.232421875 426.700195312 452.431640625 419.786962826 452.431640625 360 c 0
 452.431640625 336.639380714 468.649993362 320.761538978 532.298828125 295.861328125 c 0
 615.885651892 263.161129542 648.2890625 222.041769864 648.2890625 157 c 0
 648.2890625 -20.2066687279 373.0390625 -23.900390625 373.0390625 -23.900390625 c 1
 360.569335938 76.900390625 l 1
 360.569335938 76.900390625 534.4375 84.5944547358 534.4375 154 c 0xe280
 534.4375 185.490800689 508.18189043 201.724807362 442.036132812 227.700195312 c 0
 364.169513384 258.278356647 340 296.00064625 340 352 c 0
 340 438.17681093 406.25563426 483.854798124 504.392578125 508.052734375 c 1
 504.392578125 508.052734375 509.508789062 527.136867431 509.508789062 558.416015625 c 0
 509.508789062 623.921496483 467.056327162 674.374023438 364 674.374023438 c 4
 264.598894803 674.374023438 228.40234375 624.798351413 228.40234375 566 c 0xf3
 228.40234375 522.090982388 243.822800071 481.467103747 244.637695312 399.96484375 c 2
 248.63671875 0 l 1
 133.334960938 0 l 1xea
 135.984375 412.096679688 l 2
EndSplineSet
Validated: 5
EndChar

StartChar: florin
Encoding: 319 402 144
Width: 433
Flags: W
HStem: 401 96<30 245.857> 480 20G<190 394.623> 696.374 101.47<296.766 343.31>
VStem: 114.869 113.533<391.971 637.735> 135.994 108.644<20 399.965 406 563.944>
LayerCount: 2
Fore
SplineSet
30 497 m 1xa0
 190 493 l 1
 395 500 l 1x60
 393 394 l 1
 187 406 l 1
 27 401 l 1
 30 497 l 1xa0
248.63671875 0 m 1
 117.477539062 -184 l 1
 19.4775390625 -118 l 5
 132.307617188 20 l 1
 135.984375 412.096679688 l 2
 135.994026862 413.125973227 135.994140625 414.120894614 135.994140625 415.099609375 c 0x28
 135.994140625 494.065459228 114.869140625 515.800022262 114.869140625 580 c 0
 114.869140625 711.412976765 197.189297229 767.86158329 342.01953125 797.84375 c 1
 360.7265625 696.374023438 l 1
 264.448095983 674.387342782 228.40234375 636.752655962 228.40234375 566 c 0x30
 228.40234375 522.090982388 243.823551834 481.391915728 244.637695312 399.96484375 c 2x28
 248.63671875 0 l 1
EndSplineSet
Validated: 5
EndChar

StartChar: circumflex
Encoding: 427 710 145
Width: 332
Flags: W
HStem: 540 208
VStem: 15 302
LayerCount: 2
Fore
SplineSet
164 748 m 5
 317 602 l 5
 259 540 l 5
 165 650 l 5
 69 542 l 5
 15 596 l 5
 164 748 l 5
EndSplineSet
Validated: 1
EndChar

StartChar: caron
Encoding: 428 711 146
Width: 332
Flags: W
HStem: 516 208
VStem: 15 302
LayerCount: 2
Fore
SplineSet
168 516 m 1
 15 662 l 1
 73 724 l 1
 167 614 l 1
 263 722 l 5
 317 668 l 1
 168 516 l 1
EndSplineSet
Validated: 1
EndChar

StartChar: tilde
Encoding: 434 732 147
Width: 384
Flags: W
HStem: 558.187 189.475 713.706 20G<303.172 342.69>
LayerCount: 2
Fore
SplineSet
248.321289062 655.379882812 m 1x80
 321.98046875 733.706054688 l 5x40
 373.66015625 683.795898438 l 1
 246.280273438 558.186523438 l 1
 142.33984375 650.467773438 l 1
 58.6806640625 572.140625 l 1
 11 626.051757812 l 1
 143.380859375 747.661132812 l 1
 248.321289062 655.379882812 l 1x80
EndSplineSet
Validated: 1
EndChar

StartChar: zero.superior
Encoding: 660 8304 148
Width: 449
Flags: W
HStem: 342 93<163.411 285.265> 750 93<163.411 285.265>
VStem: 18.25 94.25<492.338 691.334> 336.75 94.25<493.796 689.849>
LayerCount: 2
Fore
SplineSet
112.5 591 m 0
 112.5 496 155.75 435 224.25 435 c 0
 292.75 435 336.75 496 336.75 591 c 0
 336.75 688.25 292.75 750 224.25 750 c 0
 155.75 750 112.5 688.25 112.5 591 c 0
18.25 591 m 0
 18.25 745 98.25 843 224.25 843 c 0
 350.5 843 431 745 431 591 c 0
 431 439 350.5 342 224.25 342 c 0
 98.25 342 18.25 439 18.25 591 c 0
EndSplineSet
EndChar

StartChar: one.superior
Encoding: 119 185 149
Width: 241
Flags: W
HStem: 755 82<19 113>
VStem: 110 99<350 756>
LayerCount: 2
Fore
SplineSet
205.25 837 m 1
 209 350 l 1
 110 350 l 1
 113 756 l 1
 16.75 755 l 1
 19 837 l 1
 205.25 837 l 1
EndSplineSet
EndChar

StartChar: two.superior
Encoding: 112 178 150
Width: 396
Flags: W
HStem: 350 88.75<192.75 369.5> 752.5 90.5<88.9632 235.304>
VStem: 259 100.5<594.998 727.03>
LayerCount: 2
Fore
SplineSet
192.75 438.75 m 1
 372.5 442.75 l 1
 369.5 350 l 1
 29.75 350 l 1
 23.5 414.75 l 1
 23.5 414.75 259 536.25 259 664.25 c 0
 259 723.75 226.25 752.5 169.5 752.5 c 0
 99.75 752.5 58 708 58 708 c 1
 20.75 792.25 l 1
 20.75 792.25 83 843 186.25 843 c 0
 298.5 843 359.5 781 359.5 683 c 0
 359.5 526.5 192.75 438.75 192.75 438.75 c 1
EndSplineSet
EndChar

StartChar: three.superior
Encoding: 113 179 151
Width: 387
Flags: W
HStem: 343 83<40.8929 242.783> 563 67<223.75 246.841> 749.25 87.75<29.75 221.25>
VStem: 265.25 98.75<447.847 543.383>
LayerCount: 2
Fore
SplineSet
223.75 630 m 1
 232.75 630 244 629 256.5 626.25 c 0
 308.75 615.25 364 577 364 494.75 c 0
 364 395.75 291 343 178 343 c 0
 63.75 343 15.5 372 15.5 372 c 1
 38.5 453 l 1
 38.5 453 90.25 426 162 426 c 0
 234.75 426 265.25 453.5 265.25 499 c 0
 265.25 537 235.25 563 176 563 c 0
 129.25 563 104 551.75 104 551.75 c 1
 86.25 602 l 1
 221.25 749.25 l 1
 25 747.5 l 1
 29.75 837 l 1
 343.25 837 l 1
 350 773 l 1
 223.75 630 l 1
EndSplineSet
EndChar

StartChar: four.superior
Encoding: 661 8308 152
Width: 457
Flags: W
HStem: 477 80.25<134.25 429.75>
LayerCount: 2
Fore
SplineSet
350.75 763.25 m 1
 354.75 350 l 1
 260 350 l 1
 264 763.25 l 1
 350.75 763.25 l 1
233.5 854 m 1
 309.5 808.25 l 1
 134.25 557.25 l 1
 431.5 558 l 1
 429.75 474.25 l 1
 35.5 477 l 1
 18.75 527.25 l 1
 233.5 854 l 1
EndSplineSet
EndChar

StartChar: five.superior
Encoding: 662 8309 153
Width: 405
Flags: W
HStem: 342.25 83.75<61.0945 257.32> 586.75 79.25<122.085 260.543> 750.5 86.5<139.5 340.75>
VStem: 285.5 95.75<454.494 562.709>
LayerCount: 2
Fore
SplineSet
340.75 749.5 m 1
 139.5 750.5 l 1
 120.5 642.75 l 1
 120.5 642.75 145.25 666 215.5 666 c 0
 330 666 381.25 604 381.25 509.5 c 0
 381.25 393.5 305.25 342.25 186.25 342.25 c 0
 66 342.25 15.5 379 15.5 379 c 1
 40.5 456.5 l 1
 40.5 456.5 97.75 426 177 426 c 0
 249.75 426 285.5 457.5 285.5 507.75 c 0
 285.5 555.75 252.5 586.75 188.5 586.75 c 0
 129.5 586.75 93.75 551.75 93.75 551.75 c 1
 25.75 599 l 1
 67.25 837 l 1
 340.75 837 l 1
 340.75 749.5 l 1
EndSplineSet
EndChar

StartChar: six.superior
Encoding: 663 8310 154
Width: 411
Flags: W
HStem: 342 84.5<151.466 270.042> 597.75 75.5<149.751 271.333> 761.5 87.5<230.748 328.11>
VStem: 23.5 101.5<452.766 624.636> 295.75 93.25<451.998 572.956>
LayerCount: 2
Fore
SplineSet
327.25 849 m 1
 338 761.5 l 1
 134.75 748.75 127.25 635.75 127.25 635.75 c 1
 127.25 635.75 156 673.25 234.75 673.25 c 0
 325.5 673.25 389 610 389 514.75 c 0
 389 422 339.25 342 210.75 342 c 0
 98.75 342 23.5 408.25 23.5 553 c 0
 23.5 695 96.5 835 327.25 849 c 1
125 513 m 0
 125 460.5 158.25 426.5 210.75 426.5 c 0
 262.75 426.5 295.75 460.5 295.75 513 c 0
 295.75 565.25 262.75 597.75 210.75 597.75 c 0
 158.25 597.75 125 565.25 125 513 c 0
EndSplineSet
EndChar

StartChar: seven.superior
Encoding: 664 8311 155
Width: 380
Flags: W
HStem: 746 91<117.75 266.5>
LayerCount: 2
Fore
SplineSet
14.75 645 m 1
 36.25 837 l 1
 348.75 837 l 1
 376.75 781.25 l 1
 207.75 338.25 l 1
 111.75 369.25 l 1
 266.5 747 l 1
 117.75 746 l 1
 106 638.25 l 1
 14.75 645 l 1
EndSplineSet
EndChar

StartChar: eight.superior
Encoding: 665 8312 156
Width: 409
Flags: W
HStem: 342 85.5<134.791 273.151> 761 82<146.861 268.497>
VStem: 23.5 92.25<446.975 539.408> 41.25 92<666.288 745.68> 283.75 85.5<655.693 745.719> 289.5 98<446.585 528.833>
LayerCount: 2
Fore
SplineSet
202 427.5 m 0xe4
 256.25 427.5 289.5 450 289.5 487 c 0xe4
 289.5 521.75 262.5 543.5 183.5 568 c 0
 88 597.75 41.25 640.75 41.25 708 c 0
 41.25 791 106.25 843 208.75 843 c 0
 307.25 843 369.25 796.25 369.25 712.25 c 0
 369.25 612 245.25 575.25 245.25 575.25 c 1
 201.25 612.25 l 1
 201.25 612.25 283.75 650.5 283.75 700.75 c 0
 283.75 738.5 254.75 761 208 761 c 0
 161.5 761 133.25 739.5 133.25 704.75 c 0xd8
 133.25 673.5 154.25 658.25 223.5 638 c 0
 343.25 603.5 387.5 565.5 387.5 487.75 c 0
 387.5 396.75 319 342 206.25 342 c 0
 96.75 342 23.5 397 23.5 481 c 0
 23.5 584.25 142.5 618 142.5 618 c 1
 192.5 576.25 l 1
 192.5 576.25 115.75 548.75 115.75 490 c 0
 115.75 452 149.5 427.5 202 427.5 c 0xe4
EndSplineSet
EndChar

StartChar: nine.superior
Encoding: 666 8313 157
Width: 412
Flags: W
HStem: 336 87.5<84.41 182.303> 512.5 74.75<141.402 264.07> 758.5 84.5<142.795 261.852>
VStem: 23.5 93.25<612.09 733.002> 288.25 101.5<560.364 732.234>
LayerCount: 2
Fore
SplineSet
85.25 336 m 1
 74.75 423.5 l 1
 278.75 436.25 285.5 550 285.5 550 c 1
 285.5 550 256.75 512.5 178 512.5 c 0
 87.25 512.5 23.5 575 23.5 670.25 c 0
 23.5 763 73.25 843 202.5 843 c 0
 314.5 843 389.75 776.75 389.75 632 c 0
 389.75 490 316.75 350 85.25 336 c 1
288.25 672 m 0
 288.25 724.5 255.25 758.5 202.75 758.5 c 0
 150 758.5 116.75 724.5 116.75 672 c 0
 116.75 619.75 150 587.25 202.75 587.25 c 0
 255.25 587.25 288.25 619.75 288.25 672 c 0
EndSplineSet
EndChar

StartChar: zero.inferior
Encoding: 667 8320 158
Width: 449
Flags: W
HStem: -358 93<163.411 285.265> 50 93<163.411 285.265>
VStem: 18.25 94.25<-207.662 -8.66583> 336.75 94.25<-206.204 -10.1506>
LayerCount: 2
Fore
SplineSet
112.5 -109 m 0
 112.5 -204 155.75 -265 224.25 -265 c 0
 292.75 -265 336.75 -204 336.75 -109 c 0
 336.75 -11.75 292.75 50 224.25 50 c 0
 155.75 50 112.5 -11.75 112.5 -109 c 0
18.25 -109 m 0
 18.25 45 98.25 143 224.25 143 c 0
 350.5 143 431 45 431 -109 c 0
 431 -261 350.5 -358 224.25 -358 c 0
 98.25 -358 18.25 -261 18.25 -109 c 0
EndSplineSet
EndChar

StartChar: one.inferior
Encoding: 668 8321 159
Width: 241
Flags: W
HStem: 55 82<19 113>
VStem: 110 99<-350 56>
LayerCount: 2
Fore
SplineSet
205.25 137 m 1
 209 -350 l 1
 110 -350 l 1
 113 56 l 1
 16.75 55 l 1
 19 137 l 1
 205.25 137 l 1
EndSplineSet
EndChar

StartChar: two.inferior
Encoding: 669 8322 160
Width: 396
Flags: W
HStem: -350 88.75<193.5 370.25> 52.5 90.5<88.7984 235.516>
VStem: 259.75 100.5<-105.002 27.0298>
LayerCount: 2
Fore
SplineSet
193.5 -261.25 m 1
 373.25 -257.25 l 1
 370.25 -350 l 1
 29.75 -350 l 1
 23.5 -285.25 l 1
 23.5 -285.25 259.75 -163.75 259.75 -35.75 c 0
 259.75 23.75 226.25 52.5 169.5 52.5 c 0
 99.75 52.5 58 8.25 58 8.25 c 1
 20.75 92 l 1
 20.75 92 82.25 143 186.25 143 c 0
 298.5 143 360.25 81 360.25 -17 c 0
 360.25 -173.5 193.5 -261.25 193.5 -261.25 c 1
EndSplineSet
EndChar

StartChar: three.inferior
Encoding: 670 8323 161
Width: 387
Flags: W
HStem: -357.75 83.75<41.6997 242.407> -137 67.75<223 246.091> 48.5 88.5<29.75 221.25>
VStem: 264.5 98.75<-252.315 -156.42>
LayerCount: 2
Fore
SplineSet
223 -69.25 m 1
 232 -69.25 243.25 -70.25 255.75 -73 c 0
 308 -84 363.25 -122.25 363.25 -205.25 c 0
 363.25 -305 291 -357.75 178 -357.75 c 0
 63.75 -357.75 15.5 -328 15.5 -328 c 1
 38.5 -247 l 1
 38.5 -247 90.25 -274 162 -274 c 0
 234 -274 264.5 -246.5 264.5 -201 c 0
 264.5 -163 234.5 -137 175.25 -137 c 0
 128.5 -137 103.25 -148.25 103.25 -148.25 c 1
 86.25 -97.25 l 1
 221.25 48.5 l 1
 25 46.75 l 1
 29.75 137 l 1
 342.5 137 l 1
 349.25 72.25 l 1
 223 -69.25 l 1
EndSplineSet
EndChar

StartChar: four.inferior
Encoding: 671 8324 162
Width: 457
Flags: W
HStem: -223 80.25<134.25 429.75>
LayerCount: 2
Fore
SplineSet
350.75 65 m 1
 354.75 -350 l 1
 260 -350 l 1
 264 65 l 1
 350.75 65 l 1
233.5 155.75 m 1
 309.5 110 l 1
 134.25 -142.75 l 1
 431.5 -142 l 1
 429.75 -225.75 l 1
 35.5 -223 l 1
 18.75 -172.75 l 1
 233.5 155.75 l 1
EndSplineSet
EndChar

StartChar: five.inferior
Encoding: 672 8325 163
Width: 405
Flags: W
HStem: -357.75 83.75<61.0945 257.32> -113.25 79.25<122.085 260.543> 50.5 86.5<139.5 340.75>
VStem: 285.5 95.75<-245.506 -137.291>
LayerCount: 2
Fore
SplineSet
340.75 49.5 m 1
 139.5 50.5 l 1
 120.5 -57.25 l 1
 120.5 -57.25 145.25 -34 215.5 -34 c 0
 330 -34 381.25 -96 381.25 -190.5 c 0
 381.25 -306.5 305.25 -357.75 186.25 -357.75 c 0
 66 -357.75 15.5 -321 15.5 -321 c 1
 40.5 -243.5 l 1
 40.5 -243.5 97.75 -274 177 -274 c 0
 249.75 -274 285.5 -242.5 285.5 -192.25 c 0
 285.5 -144.25 252.5 -113.25 188.5 -113.25 c 0
 129.5 -113.25 93.75 -148.25 93.75 -148.25 c 1
 25.75 -101 l 1
 67.25 137 l 1
 340.75 137 l 1
 340.75 49.5 l 1
EndSplineSet
EndChar

StartChar: six.inferior
Encoding: 673 8326 164
Width: 412
Flags: W
HStem: -358 84.5<151.327 270.242> -102.25 75.5<149.751 271.532> 61.5 87.5<231.105 328.86>
VStem: 23.5 101.5<-247.234 -75.3644> 296.5 93.25<-248.002 -127.044>
LayerCount: 2
Fore
SplineSet
328 149 m 1
 338.75 61.5 l 1
 134.75 48.75 127.25 -64.25 127.25 -64.25 c 1
 127.25 -64.25 156 -26.75 234.75 -26.75 c 0
 325.5 -26.75 389.75 -90 389.75 -185.25 c 0
 389.75 -278 339.25 -358 210.75 -358 c 0
 98 -358 23.5 -291.75 23.5 -147 c 0
 23.5 -5 96.5 135 328 149 c 1
125 -187 m 0
 125 -239.5 158.25 -273.5 210.75 -273.5 c 0
 262.75 -273.5 296.5 -239.5 296.5 -187 c 0
 296.5 -134.75 262.75 -102.25 210.75 -102.25 c 0
 158.25 -102.25 125 -134.75 125 -187 c 0
EndSplineSet
EndChar

StartChar: seven.inferior
Encoding: 674 8327 165
Width: 380
Flags: W
HStem: 46 91<117.75 266.5>
LayerCount: 2
Fore
SplineSet
14.75 -55 m 1
 36.25 137 l 1
 348.75 137 l 1
 376.75 81.25 l 1
 207.75 -361.75 l 1
 111.75 -330.75 l 1
 266.5 47 l 1
 117.75 46 l 1
 106 -61.75 l 1
 14.75 -55 l 1
EndSplineSet
EndChar

StartChar: eight.inferior
Encoding: 675 8328 166
Width: 408
Flags: W
HStem: -358 85.5<134.468 272.429> 61 82<146.507 267.747>
VStem: 23.5 92.25<-252.869 -159.609> 41.25 92<-33.7116 45.6801> 283 85.5<-44.4746 45.6009> 288.75 98<-253.916 -169.676>
LayerCount: 2
Fore
SplineSet
202 -272.5 m 0xe4
 255.5 -272.5 288.75 -250 288.75 -213 c 0xe4
 288.75 -178.25 262.5 -156.5 183.5 -132 c 0
 88 -102.25 41.25 -59.25 41.25 8 c 0
 41.25 91 105.5 143 208 143 c 0
 306.5 143 368.5 96 368.5 12 c 0
 368.5 -87.5 243.75 -124 243.75 -124 c 1
 199 -88 l 1
 199 -88 283 -50.5 283 0.75 c 0
 283 38.5 254 61 207.25 61 c 0
 161.5 61 133.25 39.5 133.25 4.75 c 0xd8
 133.25 -26.5 154.25 -41.75 223.5 -62 c 0
 342.5 -96.5 386.75 -134.5 386.75 -212.25 c 0
 386.75 -303.25 318.25 -358 205.5 -358 c 0
 96 -358 23.5 -302 23.5 -219 c 0
 23.5 -115.75 141 -82 141 -82 c 1
 190.25 -123 l 1
 190.25 -123 115.75 -151.25 115.75 -210 c 0
 115.75 -248 149.5 -272.5 202 -272.5 c 0xe4
EndSplineSet
EndChar

StartChar: nine.inferior
Encoding: 676 8329 167
Width: 412
Flags: W
HStem: -364 87.5<84.41 182.303> -187.5 74.75<141.402 264.07> 58.5 84.5<142.795 261.852>
VStem: 23.5 93.25<-87.9103 33.0021> 288.25 101.5<-139.636 32.2337>
LayerCount: 2
Fore
SplineSet
85.25 -364 m 1
 74.75 -276.5 l 1
 278.75 -263.75 285.5 -150 285.5 -150 c 1
 285.5 -150 256.75 -187.5 178 -187.5 c 0
 87.25 -187.5 23.5 -125 23.5 -29.75 c 0
 23.5 63 73.25 143 202.5 143 c 0
 314.5 143 389.75 76.75 389.75 -68 c 0
 389.75 -210 316.75 -350 85.25 -364 c 1
288.25 -28 m 0
 288.25 24.5 255.25 58.5 202.75 58.5 c 0
 150 58.5 116.75 24.5 116.75 -28 c 0
 116.75 -80.25 150 -112.75 202.75 -112.75 c 0
 255.25 -112.75 288.25 -80.25 288.25 -28 c 0
EndSplineSet
EndChar

StartChar: fraction
Encoding: 655 8260 168
Width: 238
Flags: W
LayerCount: 2
Fore
SplineSet
411.329101562 712.93359375 m 1
 149.708984375 343.799804688 l 5
 -84.2412109375 -15 l 1
 -135.5703125 17 l 1
 129.908203125 374.200195312 l 5
 366.599609375 743.93359375 l 1
 411.329101562 712.93359375 l 1
EndSplineSet
EndChar

StartChar: perthousand
Encoding: 646 8240 169
Width: 1159
Flags: W
HStem: -10 95.5576<618.923 728.322 890.005 999.38> 265.225 95.6543<618.923 728.322 890.005 999.38> 368.113 95.5576<154.929 273.39> 643.338 95.6543<154.929 273.39>
VStem: 29.5205 99.3037<490.109 617.827> 299.784 99.3359<490.109 617.827> 489.521 103.304<111.247 240.448> 753.784 111.04<120.83 230.626> 779.521 59.5996<64.4329 291.081> 1025.78 103.336<111.247 240.448>
LayerCount: 2
Fore
SplineSet
128.82421875 554.370117188 m 4xfe40
 128.82421875 498.942946332 161.953580951 463.670898438 214.015625 463.670898438 c 4
 266.429811331 463.670898438 299.784179688 498.942946332 299.784179688 554.370117188 c 4
 299.784179688 608.739573962 266.429811331 643.337890625 214.015625 643.337890625 c 4
 161.953580951 643.337890625 128.82421875 608.739573962 128.82421875 554.370117188 c 4xfe40
29.5205078125 554.512695312 m 4
 29.5205078125 667.250454842 101.26224047 738.9921875 214 738.9921875 c 4
 327.129155142 738.9921875 399.120117188 667.250454842 399.120117188 554.512695312 c 4
 399.120117188 440.601747797 327.129155142 368.11328125 214 368.11328125 c 4
 101.26224047 368.11328125 29.5205078125 440.601747797 29.5205078125 554.512695312 c 4
864.82421875 176.256835938 m 4xff40
 864.82421875 120.830414296 896.008499207 85.5576171875 945.015625 85.5576171875 c 4
 994.374276167 85.5576171875 1025.78417969 120.830414296 1025.78417969 176.256835938 c 4
 1025.78417969 230.626654471 994.374276167 265.224609375 945.015625 265.224609375 c 4
 896.008499207 265.224609375 864.82421875 230.626654471 864.82421875 176.256835938 c 4xff40
779.520507812 181.399414062 m 4xfec0
 779.520507812 291.081274564 845.42915194 360.87890625 949 360.87890625 c 4
 1059.07355519 360.87890625 1129.12011719 289.136828688 1129.12011719 176.399414062 c 4
 1129.12011719 62.4881854988 1059.07355519 -10 949 -10 c 4
 845.42915194 -10 779.520507812 64.4326171877 779.520507812 181.399414062 c 4xfec0
592.82421875 176.256835938 m 4
 592.82421875 120.829665082 624.00917343 85.5576171875 673.015625 85.5576171875 c 4
 722.374251719 85.5576171875 753.784179688 120.829665082 753.784179688 176.256835938 c 4xff40
 753.784179688 230.626292712 722.374251719 265.224609375 673.015625 265.224609375 c 4
 624.00917343 265.224609375 592.82421875 230.626292712 592.82421875 176.256835938 c 4
489.520507812 176.399414062 m 4
 489.520507812 289.137173592 559.317803942 360.87890625 669 360.87890625 c 4
 772.962472704 360.87890625 839.120117188 291.08161012 839.120117188 181.399414062 c 4xfec0
 839.120117188 64.4329057753 772.962472704 -10 669 -10 c 4
 559.317803942 -10 489.520507812 62.4884665473 489.520507812 176.399414062 c 4
EndSplineSet
Refer: 168 8260 N 1 0 0 1 304 0 2
EndChar

StartChar: uni2031
Encoding: 647 8241 170
Width: 1439
Flags: W
HStem: -10 95.5576<618.923 728.322 891.458 997.548 1170 1279.38> 265.225 95.6543<618.923 728.322 891.458 999.707 1170 1279.38> 368.113 95.5576<154.929 273.39> 643.338 95.6543<154.929 273.39>
VStem: 29.5205 99.3037<490.109 617.827> 299.784 99.3359<490.109 617.827> 489.521 103.304<111.247 240.448> 753.784 113.04<120.83 230.626> 769.521 69.5996<64.4329 291.081> 1023.78 121.04<120.83 230.627> 1059.52 59.5996<64.4326 291.081> 1305.78 103.336<110.601 239.911>
LayerCount: 2
Fore
SplineSet
128.82421875 554.370117188 m 0xfe10
 128.82421875 498.942946332 161.953580951 463.670898438 214.015625 463.670898438 c 0
 266.429811331 463.670898438 299.784179688 498.942946332 299.784179688 554.370117188 c 0
 299.784179688 608.739573962 266.429811331 643.337890625 214.015625 643.337890625 c 0
 161.953580951 643.337890625 128.82421875 608.739573962 128.82421875 554.370117188 c 0xfe10
29.5205078125 554.512695312 m 0
 29.5205078125 667.250454842 101.26224047 738.9921875 214 738.9921875 c 0
 327.129155142 738.9921875 399.120117188 667.250454842 399.120117188 554.512695312 c 0
 399.120117188 440.601747797 327.129155142 368.11328125 214 368.11328125 c 0
 101.26224047 368.11328125 29.5205078125 440.601747797 29.5205078125 554.512695312 c 0
1144.82421875 176.256835938 m 0xfe50
 1144.82421875 120.830414296 1176.00849921 85.5576171875 1225.015625 85.5576171875 c 0
 1274.37427618 85.5576171875 1305.78417969 120.830414296 1305.78417969 176.256835938 c 0
 1305.78417969 230.626654471 1274.37427618 265.224609375 1225.015625 265.224609375 c 0
 1176.00849921 265.224609375 1144.82421875 230.626654471 1144.82421875 176.256835938 c 0xfe50
1059.52050781 181.399414062 m 0xfe30
 1059.52050781 291.081274564 1125.42915194 360.87890625 1229 360.87890625 c 0
 1339.07355519 360.87890625 1409.12011719 291.081274564 1409.12011719 181.399414062 c 0
 1409.12011719 64.4326171877 1339.07355519 -10 1229 -10 c 0
 1125.42915194 -10 1059.52050781 64.4326171875 1059.52050781 181.399414062 c 0xfe30
866.82421875 176.256835938 m 0xff50
 866.82421875 120.830414296 896.841879918 85.5576171875 944.015625 85.5576171875 c 0
 992.763163944 85.5576171875 1023.78417969 120.830414296 1023.78417969 176.256835938 c 4
 1023.78417969 230.626654471 992.763163944 265.224609375 944.015625 265.224609375 c 0
 896.841879918 265.224609375 866.82421875 230.626654471 866.82421875 176.256835938 c 0xff50
769.520507812 181.399414062 m 0xfeb0
 769.520507812 291.081274564 837.373594989 360.87890625 944 360.87890625 c 0
 1051.01799547 360.87890625 1119.12011719 291.081274564 1119.12011719 181.399414062 c 0
 1119.12011719 64.4326171875 1051.01799547 -10 944 -10 c 0
 837.373594989 -10 769.520507812 64.4326171875 769.520507812 181.399414062 c 0xfeb0
592.82421875 176.256835938 m 0
 592.82421875 120.829665082 624.00917343 85.5576171875 673.015625 85.5576171875 c 0
 722.374251719 85.5576171875 753.784179688 120.829665082 753.784179688 176.256835938 c 0xff10
 753.784179688 230.626292712 722.374251719 265.224609375 673.015625 265.224609375 c 0
 624.00917343 265.224609375 592.82421875 230.626292712 592.82421875 176.256835938 c 0
489.520507812 176.399414062 m 0
 489.520507812 289.137173592 559.317803942 360.87890625 669 360.87890625 c 0
 772.962472704 360.87890625 839.120117188 291.08161012 839.120117188 181.399414062 c 0xfe90
 839.120117188 64.4329057751 772.962472704 -10 669 -10 c 0
 559.317803942 -10 489.520507812 62.4884665473 489.520507812 176.399414062 c 0
EndSplineSet
Refer: 168 8260 N 1 0 0 1 304 0 2
EndChar

StartChar: Lslash
Encoding: 255 321 171
Width: 620
Flags: W
HStem: 0 51.293<219.064 576.539> 495 20G<405.247 448.714> 680.084 50.9258<53.6201 168.151>
VStem: 163.43 55.6348<51.293 680.084>
LayerCount: 2
Fore
SplineSet
443 515 m 13
 477 396 l 21
 259 320.293945312 l 1
 49 207 l 9
 11 329 l 17
 233 403.75 l 1
 443 515 l 13
EndSplineSet
Refer: 44 76 N 1 0 0 1 0 0 2
EndChar

StartChar: lslash
Encoding: 256 322 172
Width: 387
Flags: W
HStem: 0 42.3975<225.809 353.939> 713.075 41.9268<53.2201 181.471>
VStem: 177.15 48.6588<42.3975 713.075>
LayerCount: 2
Fore
SplineSet
363 555 m 13
 397 436 l 21
 219 360.293945312 l 1
 49 257 l 9
 11 379 l 17
 193 443.75 l 1
 363 555 l 13
EndSplineSet
Refer: 8 108 N 1 0 0 1 0 0 2
EndChar

StartChar: quoteright
Encoding: 635 8217 173
Width: 229
Flags: W
HStem: 445 320
VStem: 21 177
LayerCount: 2
Fore
SplineSet
21 723 m 9
 129 765 l 1
 198 626 l 1
 100 445 l 1
 22 487 l 21
 89 606 l 1
 21 723 l 9
EndSplineSet
Validated: 1
EndChar

StartChar: uni2120
Encoding: 702 8480 179
Width: 540
Flags: W
VStem: 13.001 74.9072<650.11 695.102> 100.049 81.8857<542.218 596.51>
LayerCount: 2
Fore
SplineSet
150.276367188 765.357421875 m 1
 150.276367188 765.357421875 13.0009765625 762.795898438 13.0009765625 671.666015625 c 0
 13.0009765625 640.110936899 26.7777919246 620.154280453 69.361328125 601.0625 c 0
 93.8500413466 590.08330057 100.048828125 580.465356649 100.048828125 568.400390625 c 0
 100.048828125 530.850594354 18.888671875 526.673828125 18.888671875 526.673828125 c 1
 29.77734375 462.049804688 l 1
 29.77734375 462.049804688 181.934570312 464.396484375 181.934570312 570.418945312 c 0
 181.934570312 600.280567127 170.5124245 619.146116568 140.114257812 634.260742188 c 0
 95.4659241145 656.460858902 87.908203125 662.068990371 87.908203125 672.774414062 c 0
 87.908203125 701.633984641 162.6171875 707.837890625 162.6171875 707.837890625 c 1
 150.276367188 765.357421875 l 1
242.327148438 698.084960938 m 1
 196 695.631835938 l 1
 194.248046875 762.404296875 l 1
 324.091796875 766.404296875 l 1
 375 654.799804688 l 1
 436.599609375 766 l 1
 507.200195312 762.400390625 l 1
 530.799804688 472 l 1
 457 466.400390625 l 1
 445.400390625 656.400390625 l 1
 372.200195312 538 l 1
 303.799804688 652.799804688 l 1
 290.200195312 467.599609375 l 1
 224.799804688 473.599609375 l 1
 242.327148438 698.084960938 l 1
EndSplineSet
EndChar

StartChar: trademark
Encoding: 703 8482 180
Width: 608
Flags: W
HStem: 703.2 12.833<79.4609 152.642> 703.232 59.1719<10.4482 79.4609 152.642 222.492>
VStem: 77.7324 76.5312<470 715.2>
LayerCount: 2
Fore
SplineSet
152.641601562 715.200195312 m 1xa0
 154.263671875 470 l 1
 77.732421875 470 l 1
 79.4609375 716.033203125 l 1
 152.641601562 715.200195312 l 1xa0
116.841796875 703.200195312 m 1
 9 703.232421875 l 1
 10.4482421875 762.404296875 l 1
 222.4921875 762.404296875 l 1x60
 224.845703125 701.599609375 l 1
 116.841796875 703.200195312 l 1
309.52734375 698.084960938 m 1
 263.200195312 695.631835938 l 1
 261.448242188 762.404296875 l 1
 391.291992188 766.404296875 l 1
 442.200195312 654.799804688 l 1
 503.799804688 766 l 5
 574.400390625 762.400390625 l 1
 598 472 l 1
 524.200195312 466.400390625 l 1
 512.599609375 656.400390625 l 1
 439.400390625 538 l 1
 371 652.799804688 l 1
 357.400390625 467.599609375 l 1
 292 473.599609375 l 1
 309.52734375 698.084960938 l 1
EndSplineSet
EndChar

StartChar: uni2117
Encoding: 701 8471 181
Width: 795
Flags: W
HStem: -10.0664 70.877<278.885 517.541> 257.358 78<365.244 490.81> 499.943 83.8496<276.684 487.31> 499.943 18.0049<307.554 362.957> 670.64 68.2939<278.885 517.541>
VStem: 30 78<235.702 490.594> 277.919 85.0381<140.398 284.059 353.924 517.948> 514.605 87.6001<358.25 473.3> 694.117 70.8828<235.702 490.594>
LayerCount: 2
Fore
SplineSet
364.956054688 140.3984375 m 5xdf80
 274.216796875 140.3984375 l 5
 277.918945312 517.948242188 l 5
 362.95703125 517.948242188 l 5
 364.956054688 140.3984375 l 5xdf80
347.072265625 353.923828125 m 5
 347.072265625 353.923828125 369.268702696 335.358398438 426.705078125 335.358398438 c 4
 484.317316041 335.358398438 514.604980469 365.528473378 514.604980469 414.2578125 c 4
 514.604980469 471.631792826 481.227184695 499.943359375 407.504882812 499.943359375 c 4
 307.553607385 499.943359375 218.565917969 457.004882812 218.565917969 457.004882812 c 5
 193.804199219 539.302734375 l 5
 193.804199219 539.302734375 260.584682377 583.79296875 417.705078125 583.79296875 c 4xef80
 531.528696986 583.79296875 602.205078125 520.984438596 602.205078125 411.2578125 c 4
 602.205078125 317.919972062 540.858284801 257.358398438 441.705078125 257.358398438 c 4
 371.799188262 257.358398438 329.708984375 284.05859375 329.708984375 284.05859375 c 5
 347.072265625 353.923828125 l 5
30 361.93359375 m 0
 30 592.322641811 172.722067272 738.93359375 397 738.93359375 c 0
 621.889353198 738.93359375 765 592.322641811 765 361.93359375 c 0
 765 134.599173678 621.889353198 -10.06640625 397 -10.06640625 c 0
 172.722067272 -10.06640625 30 134.599173678 30 361.93359375 c 0
108 361.93359375 m 0
 108 177.913558157 220.776770833 60.810546875 398 60.810546875 c 0
 578.96098092 60.810546875 694.1171875 177.913558157 694.1171875 361.93359375 c 0
 694.1171875 550.588786913 578.96098092 670.639648438 398 670.639648438 c 0
 220.776770833 670.639648438 108 550.588786913 108 361.93359375 c 0
EndSplineSet
EndChar

StartChar: lira
Encoding: 679 8356 182
Width: 576
Flags: W
HStem: 0 111.293<189.064 536.539> 223 99<207.367 418> 231 90<24 389.5> 363 99<223.42 428> 371 90<215 401.375>
VStem: 53.4297 135.635<111.293 218.829>
LayerCount: 2
Back
SplineSet
14 326 m 1
 430 327 l 1
 428 218 l 1
 12 226 l 1
 14 326 l 1
24 466 m 1
 440 467 l 1
 438 358 l 1
 22 366 l 1
 24 466 l 1
EndSplineSet
Fore
SplineSet
24 321 m 1xa4
 208 317.466796875 l 1
 420 322 l 5
 418 223 l 5xc4
 190 230.577148438 l 1
 22 231 l 1
 24 321 l 1xa4
34 461 m 1x8c
 225 458 l 1
 430 462 l 5
 428 363 l 5x94
 215 370.288085938 l 1
 32 371 l 1
 34 461 l 1x8c
189.064453125 111.29296875 m 1
 540.159179688 112.930664062 l 1
 536.5390625 0 l 1
 53.4296875 0 l 1
 74.4187518606 452.125433501 165.496678415 643.005046291 451.930664062 747.6640625 c 1
 488.798828125 639.354492188 l 1
 299.067835543 570.9698483 201.298642795 416.579393728 189.064453125 111.29296875 c 1
EndSplineSet
EndChar

StartChar: Euro
Encoding: 684 8364 183
Width: 541
Flags: W
HStem: -33.0664 116<401.892 479.026> 246 100<32 250.157> 378 109<359.536 442.978> 633.992 115<412.158 488.852>
LayerCount: 2
Fore
SplineSet
32 346 m 1
 238 339.5078125 l 1
 436.83984375 347 l 1
 416.7734375 238 l 1
 232 252.213867188 l 1
 30 246 l 1
 32 346 l 1
35 486 m 1
 248 472.45703125 l 1
 463.043945312 487 l 1
 442.977539062 378 l 1
 240 387.963867188 l 1
 33 386 l 1
 35 486 l 1
478 -33.06640625 m 5
 229.27760594 -11.8298471102 71 120.543550932 71 361.93359375 c 0
 71 598.46956446 233.166490607 728.46176596 488 748.9921875 c 5
 502 633.9921875 l 1
 315.609969918 602.368240353 197 528.193144926 197 361.93359375 c 0
 197 191.432988281 297.822363282 116.548051581 495 82.93359375 c 1
 478 -33.06640625 l 5
EndSplineSet
EndChar

StartChar: uni20B5
Encoding: 691 8373 184
Width: 461
Flags: W
HStem: 0 21G<245.82 342.82> 91.9014 63.0986<252.82 333.82> 564 55.457<250.82 331.82> 719 20G<241.82 338.82>
VStem: 40 123.22<263.958 453.888> 245.82 97<0 66.4286 634 739> 252.82 81<68.8889 155 564 675.364>
LayerCount: 2
Fore
SplineSet
342.8203125 0 m 5xfc
 245.8203125 0 l 5xfc
 252.8203125 155 l 5
 333.8203125 155 l 5xfa
 342.8203125 0 l 5xfc
241.8203125 739 m 5
 338.8203125 739 l 5
 331.8203125 564 l 5
 250.8203125 564 l 5
 241.8203125 739 l 5
40 357.576171875 m 0
 40 517.614257812 138.674406336 619.45703125 293.735351562 619.45703125 c 0
 406.329101562 619.45703125 454.184570312 569.0703125 454.184570312 569.0703125 c 1
 415.112304688 487.358398438 l 1
 415.112304688 487.358398438 370.228879994 518.0390625 300.436523438 518.0390625 c 0
 216.580589018 518.0390625 163.219726562 458.020986314 163.219726562 363.708007812 c 0
 163.219726562 260.478990575 211.308621333 194.787109375 305.35546875 194.787109375 c 0
 393.600942591 194.787109375 438.297851562 226.900390625 438.297851562 226.900390625 c 1
 471.774414062 132.869140625 l 1
 471.774414062 132.869140625 428.375976562 91.9013671875 293.735351562 91.9013671875 c 0
 138.674406336 91.9013671875 40 195.21875 40 357.576171875 c 0
EndSplineSet
EndChar

StartChar: uni20B2
Encoding: 688 8370 185
Width: 542
Flags: W
HStem: 0 21G<245.82 342.82> 91.9014 63.0986<252.82 333.82> 268.989 82.4453<469.916 530.564> 564 55.457<250.82 331.82> 719 20G<241.82 338.82>
VStem: 40 123.22<263.958 453.888> 245.82 97<0 66.4286 634 739> 252.82 81<68.8889 155 564 675.364> 368.557 101.359<208.849 268.989> 369.688 160.877<268.989 351.435>
LayerCount: 2
Fore
SplineSet
241.8203125 739 m 1xfc
 338.8203125 739 l 1
 331.8203125 564 l 1
 250.8203125 564 l 1
 241.8203125 739 l 1xfc
342.8203125 0 m 1xfe
 245.8203125 0 l 1xfe
 252.8203125 155 l 1
 333.8203125 155 l 1xfd
 342.8203125 0 l 1xfe
40 357.576171875 m 0
 40 517.614257812 138.674406335 619.45703125 293.735351562 619.45703125 c 0
 406.329101562 619.45703125 454.184570312 566.0703125 454.184570312 566.0703125 c 1
 415.112304688 484.358398438 l 1
 415.112304688 484.358398438 370.228879994 518.0390625 300.436523438 518.0390625 c 0
 216.580589018 518.0390625 163.219726562 458.020986312 163.219726562 363.708007812 c 0
 163.219726562 260.478990576 211.308645198 194.787109375 305.35546875 194.787109375 c 0
 347.971967337 194.787109375 368.556640625 208.848632812 368.556640625 208.848632812 c 1xfc80
 369.6875 351.434570312 l 5
 530.564453125 351.434570312 l 5xfc40
 532.12109375 268.02734375 l 5
 469.916015625 268.989257812 l 5xfc80
 471.774414062 131.869140625 l 1
 471.774414062 131.869140625 408.375976562 91.9013671875 293.735351562 91.9013671875 c 0
 138.674406335 91.9013671875 40 195.21875 40 357.576171875 c 0
EndSplineSet
EndChar

StartChar: uni20AD
Encoding: 685 8365 186
Width: 697
Flags: W
HStem: 0 21G<153.83 290.159> 307 113<44 233.055> 317.186 93.2822<128.945 442.405> 620.084 110.927<33.6201 158.151>
VStem: 153.83 136.329<0 620.084>
LayerCount: 2
Fore
SplineSet
44 420 m 1xd8
 316 410.467773438 l 1
 640 421 l 1
 638 299 l 1
 320 317.185546875 l 1xb8
 42 307 l 1
 44 420 l 1xd8
284.729492188 731.010742188 m 1
 290.159179688 0 l 1
 153.830078125 0 l 1
 158.151367188 620.083984375 l 1
 30 618.080078125 l 1
 33.6201171875 731.010742188 l 1
 284.729492188 731.010742188 l 1
538 745.0078125 m 1
 642 661.0078125 l 5
 366 364 l 1
 667 68 l 1
 563 -27 l 1
 224 364 l 1
 538 745.0078125 l 1
EndSplineSet
EndChar

StartChar: uni20AE
Encoding: 686 8366 187
Width: 550
Flags: W
HStem: 0 21G<201.83 338.159> 477.5 20G<412.224 471.468> 618 30<206.151 334.104> 618.08 112.931<33.6201 206.151 334.104 508.729>
VStem: 201.83 136.329<0 648>
LayerCount: 2
Fore
SplineSet
55.3798828125 197.71484375 m 5xc8
 270.721679688 257.834960938 l 5
 479.76953125 336.35546875 l 5
 512.74609375 226.365234375 l 5
 292.53515625 178.768554688 l 5
 83.9306640625 102.056640625 l 5
 55.3798828125 197.71484375 l 5xc8
41.08203125 358.859375 m 5
 256.423828125 418.98046875 l 5
 465.471679688 497.5 l 5
 498.448242188 387.509765625 l 5
 278.237304688 339.912109375 l 5
 69.6328125 263.200195312 l 5
 41.08203125 358.859375 l 5
334.103515625 648 m 1xe8
 338.159179688 0 l 1
 201.830078125 0 l 1
 206.151367188 650.083984375 l 1
 334.103515625 648 l 1xe8
272.103515625 618 m 1
 30 618.080078125 l 1
 33.6201171875 731.010742188 l 1
 508.729492188 731.010742188 l 1xd8
 514.61328125 614 l 1
 272.103515625 618 l 1
EndSplineSet
EndChar

StartChar: uni20B1
Encoding: 687 8369 188
Width: 722
Flags: W
HStem: 0 21G<137.771 269.003> 189.934 109<269.333 438.036> 291 90<22 214.906> 375.467 46.8213<178 221.929> 421 90<24 219.985> 501 20G<523.556 585 585 701.596> 612.992 126<83.4684 430.315> 612.992 56.2578<146.654 265.67>
VStem: 137.771 131.232<0 214.434 292.577 325.877 375.467 422.288 506 669.25> 522 102.917<431 521>
LayerCount: 2
Fore
SplineSet
514 391 m 1x80c0
 568 385.466796875 l 1
 695 392 l 1
 693 293 l 1
 550 302.577148438 l 1
 512 301 l 1
 514 391 l 1x80c0
524 521 m 1x84c0
 585 516 l 1
 702 522 l 1
 700 423 l 1
 575 432.288085938 l 1
 522 431 l 1
 524 521 l 1x84c0
22 381 m 1xa0c0
 178 375.466796875 l 1x90c0
 243 382 l 1
 241 283 l 1
 160 292.577148438 l 1
 20 291 l 1
 22 381 l 1xa0c0
24 511 m 1x88c0
 195 506 l 1
 236 512 l 1
 234 413 l 1
 185 422.288085938 l 1x90c0
 22 421 l 1
 24 511 l 1x88c0
269.002929688 0 m 1
 137.770507812 0 l 1
 143.940429688 669.25 l 1
 265.669921875 669.25 l 1x81c0
 269.002929688 0 l 1
224.196289062 325.876953125 m 1
 224.196289062 325.876953125 262.943421946 298.93359375 350.916992188 298.93359375 c 0
 450.829501487 298.93359375 501.916992188 357.655643504 501.916992188 449.93359375 c 0
 501.916992188 549.580855511 453.124489523 612.9921875 328.916992188 612.9921875 c 0
 146.654100934 612.9921875 39.26953125 581.427734375 39.26953125 581.427734375 c 1
 18 704.840820312 l 1
 18 704.840820312 103.339985131 738.9921875 326.916992188 738.9921875 c 0
 509.02779825 738.9921875 624.916992188 627.358797128 624.916992188 451.93359375 c 0
 624.916992188 291.821289062 524.583457452 189.93359375 366.916992188 189.93359375 c 0xc2c0
 259.770507812 189.93359375 195.2578125 214.43359375 195.2578125 214.43359375 c 1
 224.196289062 325.876953125 l 1
EndSplineSet
EndChar

StartChar: uni20B3
Encoding: 689 8371 189
Width: 768
Flags: W
HStem: 115.712 99<103.25 756> 123.712 90<12 662.75> 255.712 99<133.25 716> 263.712 90<52 632.75> 599.069 121.931<103.819 265.508> 711 20G<99.4395 448.638>
LayerCount: 2
Fore
SplineSet
265.5078125 604.112304688 m 1x04
 103.819335938 599.069335938 l 1
 99.439453125 721 l 1x08
 441.548828125 731 l 1
 696.450195312 11.9111328125 l 1
 572.176757812 -15 l 1
 374.818359375 576.8671875 l 1
 170.819335938 -15 l 1
 48.2734375 16 l 1
 265.5078125 604.112304688 l 1x04
52 353.711914062 m 1x10
 718 354.711914062 l 1
 716 255.711914062 l 5x20
 50 263.711914062 l 5
 52 353.711914062 l 1x10
12 213.711914062 m 1x40
 758 214.711914062 l 1
 756 115.711914062 l 5x80
 10 123.711914062 l 5
 12 213.711914062 l 1x40
EndSplineSet
EndChar

StartChar: uni20B4
Encoding: 690 8372 190
Width: 598
Flags: W
HStem: 233 99<325.499 536> 241 90<32 443.223> 373 99<345.179 566> 381 90<42 219.052 273 482.199> 718.393 20G<167.467 169.646>
VStem: 88 134.215<174.323 239.348> 363.067 132.269<477.994 569.224>
LayerCount: 2
Fore
SplineSet
169.645507812 738.392578125 m 1x0e
 169.645507812 738.392578125 495.3359375 732.179674276 495.3359375 511.162109375 c 4
 495.3359375 441.381942773 460 380 343.934570312 332.655273438 c 4
 239.052037304 289.872208232 222.21484375 265.39341893 222.21484375 226 c 0
 222.21484375 109.628525753 460.115234375 96.6826171875 460.115234375 96.6826171875 c 1
 448.893554688 -19.8779296875 l 1
 448.893554688 -19.8779296875 88 -14.4429637867 88 231.044921875 c 0
 88 312.247420589 121.939068859 359.1297634 219.051757812 404.650390625 c 4
 335 459 363.067382812 483.942769964 363.067382812 526.93359375 c 4
 363.067382812 611.428260135 157.794921875 629.592773438 157.794921875 629.592773438 c 1
 169.645507812 738.392578125 l 1x0e
32 331 m 1x4e
 266 325.466796875 l 1
 538 332 l 1
 536 233 l 1x8e
 248 242.577148438 l 1
 30 241 l 1
 32 331 l 1x4e
42 471 m 1x1e
 283 466 l 1
 568 472 l 1
 566 373 l 1x2e
 273 382.288085938 l 1
 40 381 l 1
 42 471 l 1x1e
EndSplineSet
EndChar

StartChar: uni20B8
Encoding: 692 8376 191
Width: 590
Flags: W
HStem: 0 21G<221.83 358.159> 438 32.084<226.151 354.104> 438.08 102.931<33.6201 226.151 354.104 548.729> 618.08 112.931<43.6201 538.729>
VStem: 221.83 136.329<0 468>
LayerCount: 2
Fore
SplineSet
272.103515625 438 m 5xd8
 30 438.080078125 l 5
 33.6201171875 541.010742188 l 5
 548.729492188 541.010742188 l 5xb8
 554.61328125 434 l 5
 272.103515625 438 l 5xd8
354.103515625 468 m 5
 358.159179688 0 l 1
 221.830078125 0 l 1
 226.151367188 470.083984375 l 5xd8
 354.103515625 468 l 5
40 618.080078125 m 1
 43.6201171875 731.010742188 l 1
 538.729492188 731.010742188 l 1
 544.61328125 614 l 1
 40 618.080078125 l 1
EndSplineSet
EndChar

StartChar: uni20B9
Encoding: 693 8377 192
Width: 646
Flags: W
HStem: 240.855 94.0783<216.93 347.744> 411.934 109<461.008 614> 419.934 100<130 555.94> 622.992 116<49.5542 315.911>
VStem: 399.917 129<387.379 547.269>
LayerCount: 2
Fore
SplineSet
130 519.93359375 m 1xb8
 421 514.93359375 l 1
 616 520.93359375 l 1
 614 411.93359375 l 1xd8
 411 421.221679688 l 1
 128 419.93359375 l 1
 130 519.93359375 l 1xb8
134.196289062 356.876953125 m 1
 134.196289062 356.876953125 172.943496242 334.93359375 260.916992188 334.93359375 c 0
 352.887928254 334.93359375 399.916992188 384.710582387 399.916992188 462.93359375 c 0
 399.916992188 560.748046685 335.57352941 622.9921875 203.916992188 622.9921875 c 0
 98.2853519921 622.9921875 39.26953125 597.427734375 39.26953125 597.427734375 c 1
 18 710.840820312 l 1
 18 710.840820312 67.5031607479 738.9921875 226.916992188 738.9921875 c 0
 411.47305658 738.9921875 528.916992188 650.858398438 528.916992188 480.93359375 c 4
 528.916992188 253.244988294 334.995909257 240.855264775 292.786882636 240.855264775 c 0
 287.632278734 240.855264775 284.740234375 241.040039062 284.740234375 241.040039062 c 5
 509.770507812 68 l 1
 425.770507812 -37 l 1
 103.2578125 268.43359375 l 1
 134.196289062 356.876953125 l 1
EndSplineSet
EndChar

StartChar: uni20BA
Encoding: 694 8378 193
Width: 643
Flags: W
HStem: -9.99805 110.877<261.516 410.276> 711.01 20G<130.621 256.786>
VStem: 125.348 135.635<105.293 377.835 459.912 731.01> 489.918 122<188.875 257.09>
LayerCount: 2
Fore
SplineSet
16.2978515625 317.71484375 m 5
 231.639648438 377.834960938 l 5
 440.6875 456.35546875 l 5
 474.6640625 346.365234375 l 5
 254.453125 298.768554688 l 5
 45.8486328125 222.056640625 l 5
 16.2978515625 317.71484375 l 5
2 478.859375 m 5
 217.341796875 538.98046875 l 5
 426.389648438 617.5 l 5
 460.366210938 507.509765625 l 5
 240.155273438 459.912109375 l 5
 31.55078125 383.200195312 l 5
 2 478.859375 l 5
260.982421875 105.29296875 m 1
 260.982421875 105.29296875 278.382576327 100.87890625 311.380859375 100.87890625 c 0
 399.799202222 100.87890625 478.516433448 135.341135884 489.91796875 275 c 1
 611.91796875 256 l 1
 588.935170369 105.546875 524.338667169 -9.998046875 299.91796875 -9.998046875 c 0
 194.105088006 -9.998046875 125.34765625 0 125.34765625 0 c 1
 130.76953125 731.009765625 l 1
 256.647460938 731.009765625 l 1
 260.982421875 105.29296875 l 1
EndSplineSet
EndChar

StartChar: breve
Encoding: 430 728 194
Width: 332
Flags: W
HStem: 616 80<100.268 239.519>
VStem: 15 302
LayerCount: 2
Fore
SplineSet
168 616 m 0
 74.2337707597 616 15 692 15 692 c 5
 63 748 l 1
 63 748 106.282819864 696 167 696 c 0
 226.162790698 696 273 742 273 742 c 1
 317 698 l 5
 317 698 272.035502959 616 168 616 c 0
EndSplineSet
Validated: 1
EndChar

StartChar: dotaccent
Encoding: 431 729 195
Width: 240
Flags: W
HStem: 619.008 120<71.7076 168.292>
VStem: 60 120<630.715 727.3>
LayerCount: 2
Fore
SplineSet
60 679.0078125 m 4
 60 715.67471591 83.333096591 739.0078125 120 739.0078125 c 0
 156.66690341 739.0078125 180 715.67471591 180 679.0078125 c 0
 180 642.34090909 156.66690341 619.0078125 120 619.0078125 c 0
 83.333096591 619.0078125 60 642.34090909 60 679.0078125 c 4
EndSplineSet
Validated: 1
EndChar

StartChar: ogonek
Encoding: 433 731 196
Width: 207
Flags: W
HStem: -248 71<123.284 195.592>
VStem: 30 84<-164.994 -59.7268>
LayerCount: 2
Fore
SplineSet
190 18 m 5
 190 18 114 -65.7008797666 114 -124 c 0
 114 -164.725455678 139.309090909 -176.277272728 201 -177 c 1
 195 -248 l 1
 86.1167512688 -242 30 -216.730463477 30 -136 c 0
 30 -47.52 117 22 117 22 c 5
 190 18 l 5
EndSplineSet
Validated: 1
EndChar

StartChar: ring
Encoding: 432 730 197
Width: 307
Flags: W
HStem: 498.113 69.3027<116.677 193.856> 669.593 69.3994<116.392 194.144>
VStem: 30 78.3838<574.276 663.497> 201.184 76.416<574.939 662.33>
LayerCount: 2
Fore
SplineSet
108.383789062 619.416015625 m 0
 108.383789062 587.63874163 126.30916787 567.416015625 154.479492188 567.416015625 c 4
 183.020939611 567.416015625 201.18359375 587.63874163 201.18359375 619.416015625 c 0
 201.18359375 650.079941578 183.020939611 669.592773438 154.479492188 669.592773438 c 0
 126.30916787 669.592773438 108.383789062 650.079941578 108.383789062 619.416015625 c 0
30 619.512695312 m 0
 30 692.527906327 78.4086566804 738.9921875 154.479492188 738.9921875 c 0
 229.719666503 738.9921875 277.599609375 689.606300444 277.599609375 612 c 0
 277.599609375 542.402270226 229.719666503 498.11328125 154.479492188 498.11328125 c 4
 78.4086566802 498.11328125 30 545.323854793 30 619.512695312 c 0
EndSplineSet
Validated: 1
EndChar

StartChar: hungarumlaut
Encoding: 435 733 198
Width: 420
Flags: W
HStem: 509.248 235.246
LayerCount: 2
Fore
SplineSet
330.5078125 744.494140625 m 1
 412.631835938 682.544921875 l 5
 253.493164062 509.248046875 l 1
 201.208984375 550.534179688 l 1
 330.5078125 744.494140625 l 1
140.5078125 744.494140625 m 1
 222.631835938 682.544921875 l 5
 63.4931640625 509.248046875 l 1
 11.208984375 550.534179688 l 1
 140.5078125 744.494140625 l 1
EndSplineSet
Validated: 1
EndChar

StartChar: partialdiff
Encoding: 714 8706 199
Width: 615
Flags: W
HStem: -10.0664 109.925<212.476 377.138> 403.009 93.9248<220.559 380.753> 649.268 104.243<210.773 268.621>
VStem: 40 109.375<165.264 331.47> 445.625 129.375<181.928 419.174>
LayerCount: 2
Fore
SplineSet
149.375 247.858398438 m 4
 149.375 157.413784948 207.094282359 99.8583984375 292.025390625 99.8583984375 c 0
 388.010332686 99.8583984375 445.625 161.302662417 445.625 257.858398438 c 4
 445.625 346.561927673 390.558852816 403.008789062 304.025390625 403.008789062 c 0
 209.516412512 403.008789062 149.375 342.673074109 149.375 247.858398438 c 4
40 239.93359375 m 0
 40 403.100373145 130.222430269 496.93359375 272 496.93359375 c 0
 400.985416938 496.93359375 458.90234375 421.057617188 458.90234375 421.057617188 c 1
 434.965274975 537.280040962 368.843309501 615.9227778 183.021484375 649.267578125 c 1
 212.770507812 753.510742188 l 1
 462.913371127 732.027172961 575 570.795761438 575 332 c 0
 575 103.182430662 452.071589053 -10.06640625 279 -10.06640625 c 0
 144.072186445 -10.06640625 40 87.155085637 40 239.93359375 c 0
EndSplineSet
EndChar

StartChar: emptyset
Encoding: 715 8709 200
Width: 795
Flags: W
HStem: -10.0664 100.877<283.004 518.138> 640.64 98.2939<286.076 524.103>
VStem: 20 108<243.344 482.978> 674.117 100.883<243.344 482.978>
LayerCount: 2
Fore
SplineSet
710.94921875 726.93359375 m 5
 442.330078125 339.799804688 l 5
 185.37890625 -81 l 5
 84.05078125 -17 l 5
 366.529296875 378.200195312 l 5
 616.220703125 793.93359375 l 5
 710.94921875 726.93359375 l 5
20 361.93359375 m 0
 20 592.322641811 166.610951939 738.93359375 397 738.93359375 c 0
 628.000476926 738.93359375 775 592.322641811 775 361.93359375 c 0
 775 134.599173678 628.000476926 -10.06640625 397 -10.06640625 c 0
 166.610951939 -10.06640625 20 134.599173678 20 361.93359375 c 0
128 361.93359375 m 0
 128 196.246930926 232.9990625 90.810546875 398 90.810546875 c 0
 566.738726451 90.810546875 674.1171875 196.246930926 674.1171875 361.93359375 c 0
 674.1171875 532.255308483 566.738726451 640.639648438 398 640.639648438 c 0
 232.9990625 640.639648438 128 532.255308483 128 361.93359375 c 0
EndSplineSet
Validated: 5
EndChar

StartChar: Delta
Encoding: 716 8710 201
Width: 670
Flags: W
HStem: 0 118.317<174.086 492.606> 599.069 121.931<65.8193 227.508> 711 20G<61.4395 411.017>
LayerCount: 2
Fore
SplineSet
227.5078125 604.112304688 m 1xa0
 65.8193359375 599.069335938 l 1
 61.439453125 721 l 1xc0
 403.548828125 731 l 1
 650 71 l 1
 633 0 l 1
 37 0 l 5
 20 67 l 5
 227.5078125 604.112304688 l 1xa0
492.606445312 119.631835938 m 1
 336.818359375 576.8671875 l 1
 174.0859375 118.317382812 l 1
 492.606445312 119.631835938 l 1
EndSplineSet
EndChar

StartChar: notequal
Encoding: 726 8800 202
Width: 450
Flags: W
HStem: 222 47<151.2 399> 232 40<46 292.8> 398 40<48 403>
LayerCount: 2
Fore
SplineSet
266.526367188 594.734375 m 5x20
 358.124023438 562.322265625 l 5
 253.0859375 317.234375 l 5
 182.477539062 80.1787109375 l 5
 91.7880859375 113.673828125 l 5
 193.328125 341.390625 l 5
 266.526367188 594.734375 l 5x20
EndSplineSet
Refer: 19 61 N 1 0 0 1 0 0 2
EndChar

StartChar: approxequal
Encoding: 725 8776 203
Width: 450
Flags: W
LayerCount: 2
Fore
SplineSet
289.991210938 261.168945312 m 5
 414.650390625 324.280273438 l 5
 446.330078125 259 l 5
 284.950195312 156.959960938 l 5
 160.009765625 247.791015625 l 5
 45.3505859375 179.6796875 l 5
 3.669921875 249.959960938 l 5
 165.05078125 352 l 5
 289.991210938 261.168945312 l 5
289.991210938 461.168945312 m 5
 414.650390625 524.280273438 l 5
 446.330078125 459 l 5
 284.950195312 356.959960938 l 5
 160.009765625 447.791015625 l 5
 45.3505859375 379.6796875 l 5
 3.669921875 449.959960938 l 5
 165.05078125 552 l 5
 289.991210938 461.168945312 l 5
EndSplineSet
EndChar

StartChar: product
Encoding: 717 8719 204
Width: 853
Flags: W
HStem: 610.084 120.927<33.6201 138.151 265.838 587.979 716.073 820.369>
VStem: 133.83 136.329<-173.994 610.084> 583.83 136.329<-173.994 608.628>
LayerCount: 2
Fore
SplineSet
133.830078125 -173.994140625 m 1
 138.151367188 610.083984375 l 5
 30 608.080078125 l 5
 33.6201171875 731.010742188 l 1
 820.369140625 731.010742188 l 1
 823.989257812 608.080078125 l 5
 716.073242188 610.080078125 l 5
 720.159179688 -173.994140625 l 1
 583.830078125 -173.994140625 l 1
 587.979492188 608.627929688 l 5
 265.837890625 610.083984375 l 5
 270.159179688 -173.994140625 l 1
 133.830078125 -173.994140625 l 1
EndSplineSet
EndChar

StartChar: summation
Encoding: 718 8721 205
Width: 670
Flags: W
HStem: -173.994 111.48<201.018 626.539> 618.08 112.931<33.6201 138.151 278.104 618.729>
LayerCount: 2
Fore
SplineSet
618.729492188 731.010742188 m 1
 624.61328125 614 l 1
 278.103515625 618 l 1
 444 301 l 1
 201.017578125 -62.513671875 l 1
 261.064453125 -62.701171875 l 1
 630.159179688 -61.0634765625 l 1
 626.5390625 -173.994140625 l 1
 63.4296875 -173.994140625 l 1
 54.87109375 -62.994140625 l 1
 306 302 l 1
 138.151367188 620.083984375 l 1
 30 618.080078125 l 1
 33.6201171875 731.010742188 l 1
 618.729492188 731.010742188 l 1
EndSplineSet
EndChar

StartChar: integral
Encoding: 724 8747 206
Width: 523
Flags: W
LayerCount: 2
Fore
SplineSet
398.01953125 797.84375 m 1
 487.7265625 707.374023438 l 5
 320.637695312 549.96484375 l 1
 268.63671875 10 l 1
 111.477539062 -204 l 1
 9.4775390625 -118 l 1
 152.307617188 30 l 1
 205.984375 592.096679688 l 1
 398.01953125 797.84375 l 1
EndSplineSet
EndChar

StartChar: angleleft
Encoding: 729 9001 268
Width: 382
Flags: W
LayerCount: 2
Fore
SplineSet
142.13671875 300.836914062 m 5
 361 -158.994140625 l 1
 261 -198.994140625 l 1
 21 301.005859375 l 1
 261 791.001953125 l 1
 361 751.001953125 l 1
 142.13671875 300.836914062 l 5
EndSplineSet
EndChar

StartChar: angleright
Encoding: 730 9002 269
Width: 382
Flags: W
LayerCount: 2
Fore
SplineSet
239.86328125 291.170898438 m 5
 21 751.001953125 l 1
 121 791.001953125 l 1
 361 291.001953125 l 1
 121 -198.994140625 l 1
 21 -158.994140625 l 1
 239.86328125 291.170898438 l 5
EndSplineSet
EndChar

StartChar: dcroat
Encoding: 207 273 271
Width: 672
Flags: W
HStem: -10.0664 44<179.164 370.913> 0 40.9268<536.849 658.38> 464.934 42<181.361 369.388> 544 100<292 599.38> 735.002 20G<491.875 534.245>
VStem: 30 44<140.186 355.559> 478 58.8486<116.766 380.156> 487.271 29.7295<107.737 404.656> 487.271 49.5781<243.934 755.002>
AnchorPoint: "Anchor-0" 483 755.01 basechar 0
AnchorPoint: "Anchor-2" 328 0 basechar 0
LayerCount: 2
Fore
SplineSet
292 644 m 5x3c
 493 639 l 5
 648 645 l 5
 646 536 l 5
 483 545.288085938 l 5
 290 544 l 5
 292 644 l 5x3c
EndSplineSet
Refer: 5 100 S 1 0 0 1 0 0 2
EndChar

StartChar: Hbar
Encoding: 228 294 272
Width: 830
Flags: W
HStem: 0 21G<143.83 280.159 573.83 710.159> 235 112<364.727 604> 246 97<232 467.273> 407.934 89<133.308 818> 416 80<31 713.692> 620.084 110.927<33.6201 148.151 463.62 578.151>
VStem: 143.83 136.329<0 246 343 620.084> 228 52.1592<246 343> 573.83 136.329<0 235 347 620.084>
AnchorPoint: "Anchor-0" 386 731.008 basechar 0
AnchorPoint: "Anchor-2" 432 0 basechar 0
AnchorPoint: "Anchor-2" 432 0 basechar 0
LayerCount: 2
Fore
SplineSet
274.729492188 731.010742188 m 1x8680
 280.159179688 0 l 1
 143.830078125 0 l 1
 148.151367188 620.083984375 l 1
 30 618.080078125 l 1
 33.6201171875 731.010742188 l 1
 274.729492188 731.010742188 l 1x8680
704.729492188 731.010742188 m 1
 710.159179688 0 l 1
 573.830078125 0 l 1
 578.151367188 620.083984375 l 1
 460 618.080078125 l 1
 463.620117188 731.010742188 l 1
 704.729492188 731.010742188 l 1
232 343 m 5xa580
 608 347 l 1
 604 235 l 1xc580
 228 246 l 5
 232 343 l 5xa580
31 496 m 1x8c80
 820 496.93359375 l 1
 818 407.93359375 l 1x9480
 29 416 l 1
 31 496 l 1x8c80
EndSplineSet
Validated: 5
EndChar

StartChar: hbar
Encoding: 229 295 273
Width: 643
Flags: W
HStem: 0 21G<133.83 250.159> 407.934 99<303.942 443.849> 559 89<243.008 396> 567 80<22 337.94> 735.002 20G<138.037 244.873>
VStem: 133.83 116.329<0 253.934 568.288 755.002> 486 112<1.14906 361.697>
AnchorPoint: "Anchor-0" 174 755.01 basechar 0
AnchorPoint: "Anchor-2" 360 0 basechar 0
LayerCount: 2
Fore
SplineSet
178 253.93359375 m 1xce
 199.064453125 411.989257812 265.5 506.93359375 403 506.93359375 c 0
 531.481445312 506.93359375 598 429.158203125 598 278.93359375 c 0
 598 134.376953125 580.159179688 -15 580.159179688 -15 c 1
 465.830078125 0 l 1
 465.830078125 0 486 138.278320312 486 251.93359375 c 0
 486 350.953125 457.584960938 407.93359375 377 407.93359375 c 0
 293.782226562 407.93359375 249.305664062 354.221679688 236 216.93359375 c 1
 178 253.93359375 l 1xce
22 647 m 1xde
 203 642 l 1
 398 648 l 1
 396 559 l 1xee
 193 568.288085938 l 1
 20 567 l 1
 22 647 l 1xde
244.729492188 755.001953125 m 1
 250.159179688 0 l 1
 133.830078125 0 l 1
 138.151367188 755.001953125 l 1
 244.729492188 755.001953125 l 1
EndSplineSet
EndChar

StartChar: Tbar
Encoding: 292 358 275
Width: 590
Flags: W
HStem: 0 21G<261.83 318.159> 259 109<373.092 512> 269 97<80 415.947> 678 30<266.151 314.104> 678.08 52.9307<43.6201 266.151 314.104 538.729>
VStem: 261.83 56.3291<0 708>
AnchorPoint: "Anchor-0" 289 731.008 basechar 0
AnchorPoint: "Anchor-2" 288 0 basechar 0
AnchorPoint: "Anchor-2" 288 0 basechar 0
LayerCount: 2
Fore
SplineSet
80 366 m 5xa4
 295 362 l 5
 516 368 l 5
 512 259 l 5xc4
 288 270.288085938 l 5
 76 269 l 5
 80 366 l 5xa4
EndSplineSet
Refer: 61 84 N 1 0 0 1 0 0 2
EndChar

StartChar: tbar
Encoding: 293 359 276
Width: 426
Flags: W
HStem: -16 48.9307<262.039 319.201> 200.712 99<234.008 387> 208.712 90<3 328.94> 458 39<33 365>
VStem: 150.83 48.2988<98.0467 453.039>
AnchorPoint: "Anchor-0" 203 648.019 basechar 0
AnchorPoint: "Anchor-2" 248 0 basechar 0
LayerCount: 2
Fore
SplineSet
3 298.711914062 m 1xb8
 194 293.711914062 l 1
 389 299.711914062 l 1
 387 200.711914062 l 1xd8
 184 210 l 1
 1 208.711914062 l 1
 3 298.711914062 l 1xb8
EndSplineSet
Refer: 7 116 N 1 0 0 1 0 0 2
EndChar

StartChar: .notdef
Encoding: 738 -1 362
Width: 795
Flags: W
HStem: -10.0664 70.877<278.885 517.541> 141.077 99.5999<332.318 417.682> 282.308 112.103<341.559 407.843> 523.427 70.8796<320.832 404.2> 670.64 68.2939<278.885 517.541>
VStem: 30 78<235.702 490.594> 325.2 99.6006<148.195 233.559> 444.45 84.1494<406.423 489.498> 694.117 70.8828<235.702 490.594>
LayerCount: 2
Fore
SplineSet
308.400390625 523.427001953 m 5
 322.194335938 594.306640625 l 5
 463.742202628 574.524979031 528.599609375 530.359347308 528.599609375 445.283203125 c 4
 528.599609375 378.784080101 478.842241785 347.934714738 434.615478516 336.759765625 c 4
 422.147793562 333.501660444 411.345947266 332.776855469 411.345947266 332.776855469 c 5
 407.849853516 278.327148438 l 5
 407.849853516 278.327148438 398.311600358 282.307861328 376.200195312 282.307861328 c 4
 353.544170673 282.307861328 341.549804688 277.126953125 341.549804688 277.126953125 c 5
 337.593505859 395.326416016 l 5
 337.593505859 395.326416016 349.797087249 394.410888672 374.099609375 394.410888672 c 4
 415.073027559 394.410888672 444.450195312 409.610232225 444.450195312 450.077148438 c 4
 444.450195312 492.057011936 400.329860135 512.258107728 308.400390625 523.427001953 c 5
325.199707031 190.876708984 m 4
 325.199707031 221.310417852 344.566291133 240.677001953 375 240.677001953 c 4
 405.433708867 240.677001953 424.800292969 221.310417852 424.800292969 190.876708984 c 4
 424.800292969 160.443447711 405.433708867 141.077148438 375 141.077148438 c 4
 344.566291133 141.077148438 325.199707031 160.443447711 325.199707031 190.876708984 c 4
30 361.93359375 m 0
 30 592.322641811 172.722067272 738.93359375 397 738.93359375 c 0
 621.889353198 738.93359375 765 592.322641811 765 361.93359375 c 0
 765 134.599173678 621.889353198 -10.06640625 397 -10.06640625 c 0
 172.722067272 -10.06640625 30 134.599173678 30 361.93359375 c 0
108 361.93359375 m 0
 108 177.913558157 220.776770833 60.810546875 398 60.810546875 c 0
 578.96098092 60.810546875 694.1171875 177.913558157 694.1171875 361.93359375 c 0
 694.1171875 550.588786913 578.96098092 670.639648438 398 670.639648438 c 0
 220.776770833 670.639648438 108 550.588786913 108 361.93359375 c 0
EndSplineSet
EndChar

StartChar: uni0326
Encoding: 452 806 363
Width: 0
Flags: W
HStem: -206.337 211.029
VStem: 0 175.796
AnchorPoint: "Anchor-2" 138 21 mark 0
AnchorPoint: "Anchor-2" 138 21 mark 0
LayerCount: 2
Fore
SplineSet
87.78125 4.6923828125 m 25
 175.795898438 -55.037109375 l 25
 47.78125 -206.336914062 l 29
 0 -173 l 25
 87.78125 4.6923828125 l 25
EndSplineSet
Validated: 1
EndChar

StartChar: dcaron
Encoding: 205 271 403
Width: 672
Flags: W
HStem: -10.0664 44<179.164 370.913> 0 40.9268<536.849 658.38> 464.934 42<181.361 369.388> 735.002 20G<491.875 534.245>
VStem: 30 44<140.186 355.559> 478 58.8486<116.766 380.156> 487.271 29.7295<107.737 404.656> 487.271 49.5781<243.934 755.002> 635 69<484 513.471>
LayerCount: 2
Fore
SplineSet
757 739.9921875 m 5x3880
 704 479 l 29
 635 484 l 1
 625 751 l 25
 757 739.9921875 l 5x3880
EndSplineSet
Refer: 5 100 N 1 0 0 1 0 0 2
EndChar

StartChar: Lcaron
Encoding: 251 317 404
Width: 620
Flags: W
HStem: 0 51.293<219.064 576.539> 680.084 50.9258<53.6201 168.151>
VStem: 163.43 55.6348<51.293 680.084>
LayerCount: 2
Fore
SplineSet
607 731.9921875 m 5
 539 479 l 5
 465 484 l 1
 470 751 l 1
 607 731.9921875 l 5
EndSplineSet
Refer: 44 76 N 1 0 0 1 0 0 2
EndChar

StartChar: lcaron
Encoding: 252 318 405
Width: 387
Flags: W
HStem: 0 42.3975<225.809 353.939> 713.075 41.9268<53.2201 181.471>
VStem: 177.15 48.6588<42.3975 713.075>
LayerCount: 2
Fore
SplineSet
501 731.9921875 m 1
 433 479 l 25
 359 484 l 1
 364 751 l 25
 501 731.9921875 l 1
EndSplineSet
Refer: 8 108 N 1 0 0 1 0 0 2
EndChar

StartChar: tcaron
Encoding: 291 357 409
Width: 426
Flags: W
HStem: -16 48.9307<262.039 319.201> 458 39<33 365>
VStem: 150.83 48.2988<98.0467 453.039> 323 64<551 574.417>
LayerCount: 2
Fore
SplineSet
442 734.9921875 m 5
 387 551 l 25
 323 549 l 1
 326 751 l 25
 442 734.9921875 l 5
EndSplineSet
Refer: 7 116 N 1 0 0 1 0 0 2
EndChar

StartChar: uni030F
Encoding: 448 783 435
Width: 0
Flags: W
HStem: 509.248 235.246
AnchorPoint: "Anchor-0" 248.423 491 mark 0
LayerCount: 2
Fore
SplineSet
92.1240234375 744.494140625 m 1
 221.422851562 550.534179688 l 1
 169.138671875 509.248046875 l 1
 10 682.544921875 l 1
 92.1240234375 744.494140625 l 1
282.124023438 744.494140625 m 1
 411.422851562 550.534179688 l 5
 359.138671875 509.248046875 l 1
 200 682.544921875 l 1
 282.124023438 744.494140625 l 1
EndSplineSet
Validated: 1
EndChar

StartChar: uni031B
Encoding: 450 795 463
Width: 0
Flags: W
HStem: 424 326
VStem: 95 104<528.867 677.516>
LayerCount: 2
Fore
SplineSet
48 717 m 1
 154 750 l 1
 154 750 199 696.444114829 199 611 c 0
 199 477.463768116 68 424 68 424 c 5
 29 483 l 1
 29 483 95 521 95 597.989257812 c 0
 95 661 48 717 48 717 c 1
EndSplineSet
Validated: 1
EndChar

StartChar: Uhorn
Encoding: 322 431 464
Width: 847
Flags: W
HStem: -10 52<322.444 532.412> 652 79.0078<676 708.506> 680.084 50.9268<53.6201 175.151 503.62 629.151>
VStem: 163.517 51.6426<156.323 505.609> 637.83 49.8115<156.047 494.476> 712 105<734.128 787.208>
AnchorPoint: "Anchor-0" 386 731.008 basechar 0
AnchorPoint: "Anchor-0" 386 731.008 basechar 0
AnchorPoint: "Anchor-2" 425 0 basechar 0
AnchorPoint: "Anchor-2" 425 0 basechar 0
AnchorPoint: "Anchor-3" 495 0 basechar 0
LayerCount: 2
Fore
SplineSet
667 800 m 1xdc
 754 860.93359375 l 1
 754 860.93359375 817 823.456365297 817 758 c 0
 817 679.446428571 756 654.839285714 676 652 c 5
 649 731.0078125 l 1
 692 731.0078125 712 735.726110124 712 757 c 0
 712 783.72972973 667 800 667 800 c 1xdc
EndSplineSet
Refer: 53 85 N 1 0 0 1 0 0 2
EndChar

StartChar: uhorn
Encoding: 323 432 465
Width: 687
Flags: W
HStem: -9.93164 43<172.17 347.514> 0 37.9268<487.849 599.38> 428.003 69.0078<496 539.717> 477.002 20G<85.8408 129.17 447.81 485.287>
VStem: 65 44<104.246 427.594> 443.271 44.5781<173.068 497.002> 552 105<511.084 588.826>
AnchorPoint: "Anchor-0" 298 496.019 basechar 0
AnchorPoint: "Anchor-2" 325 0 basechar 0
AnchorPoint: "Anchor-3" 465 0 basechar 0
LayerCount: 2
Fore
SplineSet
501 606.002929688 m 5x2e
 584 654.936523438 l 1
 584 654.936523438 657 610.800426041 657 540 c 0
 657 458.492698967 595.34751773 430.548317648 496 428.002929688 c 1
 449 497.010742188 l 1
 519.301587302 497.010742188 552 510.337972317 552 545.002929688 c 0
 552 590.749492938 501 606.002929688 501 606.002929688 c 5x2e
EndSplineSet
Refer: 27 117 N 1 0 0 1 0 0 2
EndChar

StartChar: uni01B7
Encoding: 324 439 466
Width: 644
Flags: W
HStem: -183.994 113<126.763 390.154> 250.992 100.342<252.43 404.661> 608.008 123<48 402.848>
VStem: 478.917 124<7.35966 182.073>
AnchorPoint: "Anchor-2" 296 -174 basechar 0
AnchorPoint: "Anchor-0" 306 731.008 basechar 0
LayerCount: 2
Fore
SplineSet
312 349 m 1
 312 349 326.706745392 351.333984375 352.368164062 351.333984375 c 0
 460.121403016 351.333984375 602.916992188 286.232505089 602.916992188 93.056640625 c 0
 602.916992188 -88.4548276127 472.250449952 -183.994140625 266.916992188 -183.994140625 c 0
 78.2072104287 -183.994140625 -2 -117.842773438 -2 -117.842773438 c 1
 43 -7.927734375 l 1
 43 -7.927734375 120.533254138 -70.994140625 263.916992188 -70.994140625 c 0
 415.406010981 -70.994140625 478.916992188 -6.80808731009 478.916992188 94.056640625 c 0
 478.916992188 189.478905826 424.756749769 250.9921875 300.916992188 250.9921875 c 4
 203.942500004 250.9921875 160.2578125 222.43359375 160.2578125 222.43359375 c 1
 119 312 l 1
 402.84765625 614.0078125 l 1
 42 608.0078125 l 1
 48 731.0078125 l 1
 559.016601562 731.0078125 l 1
 579.016601562 649.0078125 l 1
 312 349 l 1
EndSplineSet
EndChar

StartChar: uni0292
Encoding: 426 658 467
Width: 498
Flags: W
HStem: -183.994 100<71.944 304.797> 133.992 84.0078<198.63 314.812> 397 100<46 293.848>
VStem: 355.917 111<-35.9054 92.1584>
AnchorPoint: "Anchor-0" 241 496.019 basechar 0
AnchorPoint: "Anchor-2" 226 -174 basechar 0
LayerCount: 2
Back
SplineSet
20 338 m 5
 30 497 l 5
 399.016601562 497 l 5
 431.016601562 369 l 5
 257.168945312 164 l 5
 441.016601562 170 l 5
 431.016601562 0 l 5
 41 0 l 5
 12 128 l 5
 193.84765625 344 l 5
 20 338 l 5
EndSplineSet
Fore
SplineSet
263 216 m 1
 263 216 273.555183231 218 284 218 c 0
 381.310286924 218 466.916992188 149.676737902 466.916992188 28 c 4
 466.916992188 -115.80131334 367.361531436 -183.994140625 210.916992188 -183.994140625 c 0
 71.3290030521 -183.994140625 12 -139.842773438 12 -139.842773438 c 1
 37 -43.927734375 l 1
 37 -43.927734375 86.5084134616 -83.994140625 207 -83.994140625 c 0
 302.679743697 -83.994140625 355.916992188 -40.8298021353 355.916992188 27.056640625 c 4
 355.916992188 92.0772972625 313.964062499 133.9921875 231.916992188 133.9921875 c 0
 165.342247741 133.9921875 125.2578125 112.43359375 125.2578125 112.43359375 c 1
 95 187 l 1
 293.84765625 397 l 1
 40 394 l 1
 46 497.010742188 l 1
 423.016601562 497 l 1
 445.016601562 422 l 1
 263 216 l 1
EndSplineSet
EndChar

StartChar: infinity
Encoding: 723 8734 470
Width: 579
Flags: W
HStem: 221 90.5898<354.647 450.023> 221 81.5879<129.816 235.219> 424.634 90.0508<131.054 228.569> 432.315 82.3691<342.18 447.437>
VStem: 30 87.0693<316.541 411.207> 461.665 88.1191<323.219 417.81>
LayerCount: 2
Fore
SplineSet
461.665039062 370.404296875 m 0x9c
 461.665039062 333.931226865 438.284411974 311.58984375 400.116210938 311.58984375 c 0x9c
 367.881854379 311.58984375 347.585461735 327.988603263 325.504882812 388.341796875 c 0
 298.076400106 463.3125 253.104030708 514.684570312 175.237304688 514.684570312 c 0
 86.4565561247 514.684570312 30 457.278320312 30 367.000976562 c 0
 30 280.737304688 81.315648209 221 162.53515625 221 c 0
 269.056640625 221 309.377929688 311.271484375 309.377929688 311.271484375 c 1
 281.307617188 382.428710938 l 1
 281.307617188 382.428710938 243.702179626 302.587890625 182.021484375 302.587890625 c 0
 141.631523329 302.587890625 117.069335938 325.543808481 117.069335938 363.291015625 c 0
 117.069335938 401.121111974 142.023713231 424.633789062 182.170898438 424.633789062 c 0x6c
 216.530925357 424.633789062 236.50454278 406.472884986 252.903320312 354.533203125 c 0
 283.382724952 257.99609375 324.500704291 221 401.311523438 221 c 0
 493.862187386 221 549.784179688 276.083984375 549.784179688 367.248046875 c 0
 549.784179688 455.794921875 495.679866888 514.684570312 414.331054688 514.684570312 c 0
 318.250976562 514.684570312 276.788085938 433.2109375 276.788085938 433.2109375 c 5
 309.979492188 369.119140625 l 5
 309.979492188 369.119140625 337.408730376 432.315429688 396.541992188 432.315429688 c 0
 435.977192196 432.315429688 461.665039062 407.89546426 461.665039062 370.404296875 c 0x9c
EndSplineSet
EndChar

StartChar: radical
Encoding: 722 8730 471
Width: 659
Flags: W
HStem: 0 21G<250.458 401.133> 491 20G<10 205.066>
LayerCount: 2
Fore
SplineSet
394.607421875 0 m 1
 257.174804688 0 l 1
 120.151367188 408 l 1
 17.0458984375 400 l 1
 10 497 l 1
 198.546875 511 l 1
 327.905273438 114.1328125 l 1
 533 783 l 1
 639 749 l 1
 394.607421875 0 l 1
EndSplineSet
EndChar

StartChar: lessequal
Encoding: 727 8804 472
Width: 450
Flags: W
HStem: 93 98<84.5 410> 101 91<41 363.5>
LayerCount: 2
Fore
SplineSet
219.37109375 441.5 m 1x00
 415.349609375 331 l 1
 365.349609375 242 l 5
 34.650390625 432 l 1
 365.349609375 651 l 5
 415.349609375 562 l 1
 219.37109375 441.5 l 1x00
41 192 m 1x40
 412 191 l 1
 410 93 l 1x80
 38 101 l 1
 41 192 l 1x40
EndSplineSet
EndChar

StartChar: greaterequal
Encoding: 728 8805 473
Width: 450
Flags: W
HStem: 93 98<84.5 410> 101 91<41 363.5>
LayerCount: 2
Fore
SplineSet
230.62890625 451.5 m 1x00
 34.650390625 562 l 1
 84.650390625 651 l 1
 415.349609375 461 l 1
 84.650390625 242 l 1
 34.650390625 331 l 5
 230.62890625 451.5 l 1x00
41 192 m 1x40
 412 191 l 1
 410 93 l 1x80
 38 101 l 1
 41 192 l 1x40
EndSplineSet
EndChar

StartChar: three.ss01.superior
Encoding: 739 -1 507
Width: 390
Flags: W
HStem: 342 82.5<54.0138 246.18> 561.5 74<97.7591 237.794> 756 87<50.5139 238.961>
VStem: 256.5 98.75<654.991 738.244> 272.5 95.75<449.233 539.239>
LayerCount: 2
Fore
SplineSet
38.5 453.75 m 1xe8
 38.5 453.75 88.5 424.5 158.5 424.5 c 0
 235.25 424.5 272.5 451.5 272.5 494 c 0xe8
 272.5 535.75 237.25 561.5 159.75 561.5 c 0
 110 561.5 97.75 557.5 97.75 557.5 c 1
 97.75 637.75 l 1
 97.75 637.75 109.75 635.5 150.5 635.5 c 0
 225.5 635.5 256.5 659.5 256.5 695.75 c 0
 256.5 733.5 227.5 756 160.75 756 c 0
 92 756 46.75 727.25 46.75 727.25 c 1
 23.75 813.25 l 1
 23.75 813.25 69 843 175.25 843 c 0
 286.5 843 355.25 793 355.25 712 c 0xf0
 355.25 626 272.5 602.25 272.5 602.25 c 1
 272.5 602.25 368.25 582.75 368.25 480.75 c 0
 368.25 395.75 295 342 180 342 c 0
 64.5 342 15.5 372 15.5 372 c 1
 38.5 453.75 l 1xe8
EndSplineSet
EndChar

StartChar: five.ss02.superior
Encoding: 740 -1 508
Width: 408
Flags: W
HStem: 343 83<62.1232 259.761> 587.5 78.5<122.941 263.188> 749.5 132.25<287 357.25> 750.5 86.5<141.75 281.25>
VStem: 287 70.25<837 881.75> 288.5 95.75<454.746 563.088>
LayerCount: 2
Fore
SplineSet
357.25 749.5 m 1xe8
 141.75 750.5 l 1
 122 643.5 l 1
 122 643.5 147.5 666 217.75 666 c 0
 332.25 666 384.25 603.25 384.25 509.5 c 0
 384.25 393.5 307.5 343 187.75 343 c 0
 66.75 343 15.5 379 15.5 379 c 1
 42 456.5 l 1
 42 456.5 99.25 426 179.25 426 c 0
 252.75 426 288.5 458.25 288.5 508.5 c 0
 288.5 557.25 255.5 587.5 191.5 587.5 c 0
 132.5 587.5 96 551.75 96 551.75 c 1
 27.25 599.75 l 1
 70.25 837 l 1
 281.25 837 l 1xd4
 287 881.75 l 1
 357.25 883 l 1
 357.25 749.5 l 1xe8
EndSplineSet
EndChar

StartChar: three.ss01.inferior
Encoding: 741 -1 509
Width: 390
Flags: W
HStem: -358 82.5<54.0769 246.162> -138.5 74<98.2602 238.536> 56 87<61.5402 238.845>
VStem: 256.5 98.75<-44.9871 38.1141> 272.5 95.75<-250.647 -160.037>
LayerCount: 2
Fore
SplineSet
38.5 -246.25 m 1xe8
 38.5 -246.25 89 -275.5 159 -275.5 c 0
 235 -275.5 272.5 -248.5 272.5 -206 c 0xe8
 272.5 -164.25 238.5 -138.5 161 -138.5 c 0
 112 -138.5 98.25 -142.5 98.25 -142.5 c 1
 98.25 -61.5 l 1
 98.25 -61.5 111 -64.5 151.25 -64.5 c 0
 225.75 -64.5 256.5 -40.5 256.5 -4.25 c 0
 256.5 33.5 226.75 56 160.75 56 c 0
 92.5 56 47.25 27 47.25 27 c 1
 23.75 113 l 1
 23.75 113 69 143 175.25 143 c 0
 286.5 143 355.25 92 355.25 12 c 0xf0
 355.25 -74 273.25 -97.5 273.25 -97.5 c 1
 273.25 -97.5 368.25 -117 368.25 -219 c 0
 368.25 -304 295 -358 180 -358 c 0
 64.5 -358 15.5 -328 15.5 -328 c 1
 38.5 -246.25 l 1xe8
EndSplineSet
EndChar

StartChar: five.ss02.inferior
Encoding: 742 -1 510
Width: 408
Flags: W
HStem: -357 83<61.1772 259.564> -112.5 78.5<122.796 263.329> 49.5 132.5<287 357.25> 50.5 86.5<141.75 281.25>
VStem: 287 70.25<137 182> 288.5 95.75<-245.254 -136.912>
LayerCount: 2
Fore
SplineSet
357.25 49.5 m 1xe8
 141.75 50.5 l 1
 122 -56.5 l 1
 122 -56.5 147.5 -34 217.75 -34 c 0
 332.25 -34 384.25 -96.75 384.25 -190.5 c 0
 384.25 -306.5 307.5 -357 187.75 -357 c 0
 66.75 -357 15.5 -321.75 15.5 -321.75 c 1
 42 -243.75 l 1
 42 -243.75 98.5 -274 178.5 -274 c 0
 252 -274 288.5 -241.75 288.5 -191.5 c 0
 288.5 -142.75 256.25 -112.5 191.5 -112.5 c 0
 131.75 -112.5 96 -148.25 96 -148.25 c 1
 27.25 -100.25 l 1
 70.25 137 l 1
 281.25 137 l 1xd4
 287 182 l 1
 357.25 183 l 1
 357.25 49.5 l 1xe8
EndSplineSet
EndChar

StartChar: guilsinglleft
Encoding: 651 8249 511
Width: 392
Flags: W
HStem: 491 20G<288.479 326.889>
LayerCount: 2
Fore
SplineSet
165.720703125 255.5 m 1
 371.69921875 81 l 1
 311.69921875 2 l 5
 11 252 l 1
 311.69921875 511 l 5
 371.69921875 432 l 1
 165.720703125 255.5 l 1
EndSplineSet
Validated: 1
EndChar

StartChar: guilsinglright
Encoding: 652 8250 512
Width: 392
Flags: W
HStem: 491 20G<64.8101 104.056>
LayerCount: 2
Fore
SplineSet
225.978515625 257.5 m 5
 20 432 l 1
 80 511 l 1
 380.69921875 261 l 1
 80 2 l 1
 20 81 l 1
 225.978515625 257.5 l 5
EndSplineSet
Validated: 1
EndChar

StartChar: dagger
Encoding: 640 8224 513
Width: 520
Flags: W
HStem: 425.934 110<33 223.961> 430.345 97.5244<62.0385 360.924>
VStem: 194 128.329<-170 165.189 631.17 788.992> 207.616 101.554<146.811 759.641>
LayerCount: 2
Fore
SplineSet
33 535.93359375 m 5x80
 253 527.869140625 l 5
 489 539.93359375 l 5
 487 414.93359375 l 5
 256 430.344726562 l 5x40
 31 425.93359375 l 5
 33 535.93359375 l 5x80
316.899414062 788.9921875 m 1
 309.169921875 478 l 1x10
 322.329101562 -170 l 1
 194 -170 l 1x20
 207.616210938 482 l 1x10
 200.169921875 788.9921875 l 1
 316.899414062 788.9921875 l 1
EndSplineSet
EndChar

